%TF.GenerationSoftware,KiCad,Pcbnew,8.0.6*%
%TF.CreationDate,2025-06-05T21:04:29+02:00*%
%TF.ProjectId,ChrisPCB,43687269-7350-4434-922e-6b696361645f,rev?*%
%TF.SameCoordinates,Original*%
%TF.FileFunction,Copper,L3,Inr*%
%TF.FilePolarity,Positive*%
%FSLAX46Y46*%
G04 Gerber Fmt 4.6, Leading zero omitted, Abs format (unit mm)*
G04 Created by KiCad (PCBNEW 8.0.6) date 2025-06-05 21:04:29*
%MOMM*%
%LPD*%
G01*
G04 APERTURE LIST*
G04 Aperture macros list*
%AMRoundRect*
0 Rectangle with rounded corners*
0 $1 Rounding radius*
0 $2 $3 $4 $5 $6 $7 $8 $9 X,Y pos of 4 corners*
0 Add a 4 corners polygon primitive as box body*
4,1,4,$2,$3,$4,$5,$6,$7,$8,$9,$2,$3,0*
0 Add four circle primitives for the rounded corners*
1,1,$1+$1,$2,$3*
1,1,$1+$1,$4,$5*
1,1,$1+$1,$6,$7*
1,1,$1+$1,$8,$9*
0 Add four rect primitives between the rounded corners*
20,1,$1+$1,$2,$3,$4,$5,0*
20,1,$1+$1,$4,$5,$6,$7,0*
20,1,$1+$1,$6,$7,$8,$9,0*
20,1,$1+$1,$8,$9,$2,$3,0*%
G04 Aperture macros list end*
%TA.AperFunction,ComponentPad*%
%ADD10C,0.600000*%
%TD*%
%TA.AperFunction,ComponentPad*%
%ADD11O,1.200000X1.900000*%
%TD*%
%TA.AperFunction,ComponentPad*%
%ADD12C,1.450000*%
%TD*%
%TA.AperFunction,ComponentPad*%
%ADD13C,6.400000*%
%TD*%
%TA.AperFunction,ComponentPad*%
%ADD14C,1.400000*%
%TD*%
%TA.AperFunction,ComponentPad*%
%ADD15C,1.500000*%
%TD*%
%TA.AperFunction,ComponentPad*%
%ADD16O,0.900000X2.000000*%
%TD*%
%TA.AperFunction,ComponentPad*%
%ADD17O,0.900000X1.700000*%
%TD*%
%TA.AperFunction,ComponentPad*%
%ADD18RoundRect,0.250000X-0.625000X0.350000X-0.625000X-0.350000X0.625000X-0.350000X0.625000X0.350000X0*%
%TD*%
%TA.AperFunction,ComponentPad*%
%ADD19O,1.750000X1.200000*%
%TD*%
%TA.AperFunction,ComponentPad*%
%ADD20R,1.700000X1.700000*%
%TD*%
%TA.AperFunction,ComponentPad*%
%ADD21RoundRect,0.250000X-0.600000X-0.725000X0.600000X-0.725000X0.600000X0.725000X-0.600000X0.725000X0*%
%TD*%
%TA.AperFunction,ComponentPad*%
%ADD22O,1.700000X1.950000*%
%TD*%
%TA.AperFunction,ComponentPad*%
%ADD23O,1.700000X1.700000*%
%TD*%
%TA.AperFunction,ComponentPad*%
%ADD24C,1.300000*%
%TD*%
%TA.AperFunction,ComponentPad*%
%ADD25C,2.483000*%
%TD*%
%TA.AperFunction,ViaPad*%
%ADD26C,0.800000*%
%TD*%
G04 APERTURE END LIST*
D10*
%TO.N,GND*%
%TO.C,U15*%
X150800000Y-100700000D03*
X149800000Y-100700000D03*
%TD*%
D11*
%TO.N,Shield*%
%TO.C,J11*%
X146700000Y-76462500D03*
D12*
X145700000Y-79162500D03*
X140700000Y-79162500D03*
D11*
X139700000Y-76462500D03*
%TD*%
D13*
%TO.N,GND*%
%TO.C,H3*%
X168000000Y-80000000D03*
%TD*%
D14*
%TO.N,GND*%
%TO.C,TP6*%
X116600000Y-104162500D03*
%TO.N,/Ferro Amplifier 1/Vout*%
X114060000Y-104162500D03*
%TD*%
D13*
%TO.N,GND*%
%TO.C,H1*%
X100000000Y-116320000D03*
%TD*%
D15*
%TO.N,GND*%
%TO.C,TP5*%
X99200000Y-86500000D03*
%TD*%
%TO.N,VRef*%
%TO.C,TP4*%
X99200000Y-99300000D03*
%TD*%
%TO.N,+3.3VA*%
%TO.C,TP3*%
X99200000Y-96000000D03*
%TD*%
D16*
%TO.N,Shield*%
%TO.C,J7*%
X104725000Y-115142500D03*
X113375000Y-115142500D03*
D17*
X104725000Y-119312500D03*
X113375000Y-119312500D03*
%TD*%
D15*
%TO.N,VCC*%
%TO.C,TP1*%
X99200000Y-89700000D03*
%TD*%
D18*
%TO.N,BAT+*%
%TO.C,X1*%
X132100000Y-77900000D03*
D19*
%TO.N,GND*%
X132100000Y-79900000D03*
%TD*%
D14*
%TO.N,GND*%
%TO.C,TP9*%
X143850000Y-104162500D03*
%TO.N,/Ferro Amplifier 4/Vout*%
X141310000Y-104162500D03*
%TD*%
%TO.N,GND*%
%TO.C,TP8*%
X134750000Y-104162500D03*
%TO.N,/Ferro Amplifier 3/Vout*%
X132210000Y-104162500D03*
%TD*%
D20*
%TO.N,Shield*%
%TO.C,J5*%
X171100000Y-87200000D03*
%TD*%
D13*
%TO.N,GND*%
%TO.C,H4*%
X168000000Y-116320000D03*
%TD*%
D16*
%TO.N,Shield*%
%TO.C,J8*%
X116725000Y-115142500D03*
X125375000Y-115142500D03*
D17*
X116725000Y-119312500D03*
X125375000Y-119312500D03*
%TD*%
D16*
%TO.N,Shield*%
%TO.C,J9*%
X128725000Y-115142500D03*
X137375000Y-115142500D03*
D17*
X128725000Y-119312500D03*
X137375000Y-119312500D03*
%TD*%
D21*
%TO.N,+5V_Gen*%
%TO.C,J3*%
X153456000Y-116078000D03*
D22*
%TO.N,UART2 RXD*%
X155956000Y-116078000D03*
%TO.N,UART2 TXD*%
X158456000Y-116078000D03*
%TO.N,GND*%
X160956000Y-116078000D03*
%TD*%
D20*
%TO.N,GND*%
%TO.C,J1*%
X105420000Y-82400000D03*
D23*
%TO.N,+3.3V*%
X107960000Y-82400000D03*
%TO.N,VCC*%
X110500000Y-82400000D03*
%TD*%
D14*
%TO.N,GND*%
%TO.C,TP7*%
X125650000Y-104162500D03*
%TO.N,/Ferro Amplifier 2/Vout*%
X123110000Y-104162500D03*
%TD*%
D13*
%TO.N,GND*%
%TO.C,H2*%
X100000000Y-80000000D03*
%TD*%
D20*
%TO.N,GPIO38*%
%TO.C,J2*%
X152151000Y-110744000D03*
D23*
%TO.N,GPIO39*%
X154691000Y-110744000D03*
%TO.N,GPIO40*%
X157231000Y-110744000D03*
%TO.N,GPIO41*%
X159771000Y-110744000D03*
%TO.N,GPIO42*%
X162311000Y-110744000D03*
%TD*%
D15*
%TO.N,+3.3V*%
%TO.C,TP2*%
X99200000Y-92900000D03*
%TD*%
D16*
%TO.N,Shield*%
%TO.C,J10*%
X140725000Y-115142500D03*
X149375000Y-115142500D03*
D17*
X140725000Y-119312500D03*
X149375000Y-119312500D03*
%TD*%
D24*
%TO.N,Net-(D1-K)*%
%TO.C,S1*%
X112000000Y-77200000D03*
%TO.N,VCC*%
X110000000Y-77200000D03*
%TO.N,unconnected-(S1-Pad3)*%
X108000000Y-77200000D03*
D25*
%TO.N,N/C*%
X114100000Y-77200000D03*
X105900000Y-77200000D03*
%TD*%
D26*
%TO.N,Shield*%
X107825000Y-98462500D03*
X133050000Y-85612500D03*
X146275000Y-111312500D03*
X127050000Y-111350000D03*
X139050000Y-111312500D03*
X115050000Y-111312500D03*
X146275000Y-98462500D03*
X127050000Y-85612500D03*
X121050000Y-85612500D03*
X133050000Y-111312500D03*
X146275000Y-85612500D03*
X121050000Y-111312500D03*
X146275000Y-109687500D03*
X107825000Y-109687500D03*
X107825000Y-92462500D03*
X139050000Y-85612500D03*
X107825000Y-87237500D03*
X109650000Y-111312500D03*
X144450000Y-111312500D03*
X107825000Y-111312500D03*
X146232502Y-92420000D03*
X107825000Y-85612500D03*
X146275000Y-87237500D03*
X146275000Y-104462500D03*
X115050000Y-85612500D03*
X109625000Y-85612500D03*
X144450000Y-85612500D03*
X107825000Y-104462500D03*
%TO.N,+3.3V*%
X166300000Y-86600000D03*
X150300000Y-105200000D03*
X165900000Y-107800000D03*
X163800000Y-106000000D03*
X102112500Y-91400000D03*
X109500000Y-91600000D03*
%TO.N,UART2 TXD*%
X163682719Y-91896788D03*
%TO.N,VBUS*%
X159300000Y-84900000D03*
X147100000Y-81700000D03*
%TO.N,VCC_STATE*%
X161400000Y-88700000D03*
X145500000Y-84000000D03*
%TO.N,BOOT*%
X153600000Y-87297500D03*
X161700000Y-87300000D03*
%TO.N,+3.3VA*%
X133300000Y-106000000D03*
X103400000Y-102200000D03*
X127300000Y-102100000D03*
X115200000Y-106000000D03*
X142400000Y-106000000D03*
X110000000Y-102100000D03*
X118200000Y-102100000D03*
X139800000Y-102000000D03*
X121600000Y-102100000D03*
X112400000Y-102100000D03*
X136400000Y-102100000D03*
X130600000Y-102100000D03*
X124200000Y-106000000D03*
%TO.N,DRDY 1*%
X156400000Y-93000000D03*
X118011250Y-95162500D03*
%TO.N,USBD-*%
X150950000Y-88950000D03*
X150124868Y-87813466D03*
%TO.N,VRef*%
X121000000Y-96000000D03*
X131200000Y-109900000D03*
X120800000Y-116300000D03*
X122100000Y-109900000D03*
X111150000Y-95900000D03*
X129784340Y-95957500D03*
X111600000Y-110500000D03*
X108800000Y-116300000D03*
X140300000Y-109900000D03*
X106100000Y-109200000D03*
X138438599Y-96272878D03*
X144800000Y-116300000D03*
X132800000Y-116300000D03*
%TO.N,SCK*%
X126990000Y-91462500D03*
X144800000Y-91462500D03*
X157300000Y-91200000D03*
X136100000Y-91462500D03*
X117911250Y-91462500D03*
%TO.N,MOSI*%
X136200000Y-97362500D03*
X144900000Y-97362500D03*
X118011250Y-97362500D03*
X127090000Y-97362500D03*
X159000000Y-91200000D03*
%TO.N,MISO*%
X118011250Y-96262500D03*
X144900000Y-96262500D03*
X127090000Y-96262500D03*
X136200000Y-96262500D03*
X158200000Y-92000000D03*
%TO.N,DRDY 2*%
X127090000Y-95162500D03*
X155600000Y-93800000D03*
%TO.N,DRDY 3*%
X136200000Y-95162500D03*
X154800000Y-94700000D03*
%TO.N,DRDY 4*%
X144900000Y-95162500D03*
X154000000Y-95582500D03*
%TO.N,ESP EN*%
X153600000Y-79375000D03*
X165600000Y-102800000D03*
%TO.N,CS 1*%
X150900000Y-90000000D03*
X117900000Y-90351250D03*
%TO.N,CS 2*%
X150192891Y-90707109D03*
X127000000Y-90380000D03*
%TO.N,CS 3*%
X136050000Y-90420000D03*
X150876239Y-91437905D03*
%TO.N,CS 4*%
X144750000Y-90420000D03*
X150200000Y-92300000D03*
%TO.N,LED3*%
X163500000Y-107900000D03*
X153950000Y-105250000D03*
%TO.N,LED4*%
X155100000Y-102800000D03*
X163100000Y-106800000D03*
%TO.N,LED1*%
X161500000Y-106500000D03*
X154100000Y-100800000D03*
%TO.N,LED2*%
X160600000Y-105600000D03*
X154300000Y-101900000D03*
%TO.N,GND*%
X119250000Y-108957500D03*
X106000000Y-102200000D03*
X135350000Y-109757500D03*
X120600000Y-90000000D03*
X151900000Y-90000000D03*
X137350000Y-108957500D03*
X134950000Y-100057500D03*
X138800000Y-90400000D03*
X134000000Y-76200000D03*
X105300000Y-84900000D03*
X129600000Y-90000000D03*
X104000000Y-93000000D03*
X139650000Y-93157500D03*
X116850000Y-100000000D03*
X163100000Y-84400000D03*
X137000000Y-76200000D03*
X110960000Y-100900000D03*
X167600000Y-88000000D03*
X158400000Y-87800000D03*
X117200000Y-76800000D03*
X141400000Y-80500000D03*
X153600000Y-77200000D03*
X117250000Y-109700000D03*
X130550000Y-93157500D03*
X170900000Y-109000000D03*
X143100000Y-82200000D03*
X106000000Y-104400000D03*
X103900000Y-107800000D03*
X163300000Y-105000000D03*
X144450000Y-109757500D03*
X105750000Y-94885661D03*
X137250000Y-100957500D03*
X156950000Y-82850000D03*
X116100000Y-79400000D03*
X127500000Y-80200000D03*
X128250000Y-108957500D03*
X152800000Y-105200000D03*
X110150000Y-108900000D03*
X116700000Y-83300000D03*
X163400000Y-86100000D03*
X103600000Y-88000000D03*
X111500000Y-89800000D03*
X167800000Y-105600000D03*
X121550000Y-93157500D03*
X103600000Y-97200000D03*
X159850000Y-97050000D03*
X131900000Y-82900000D03*
X128150000Y-100957500D03*
X144050000Y-100057500D03*
X125950000Y-100057500D03*
X148100000Y-105200000D03*
X103900000Y-112700000D03*
X160400000Y-77200000D03*
X112450000Y-93100000D03*
X126350000Y-109757500D03*
X119150000Y-100957500D03*
%TO.N,ESP TXD*%
X160700000Y-102700000D03*
X152500000Y-81300000D03*
%TO.N,ESP RXD*%
X152500000Y-84000000D03*
X162000000Y-102700000D03*
%TO.N,EN_5V*%
X153900000Y-102900000D03*
X148800000Y-101600000D03*
%TD*%
%TA.AperFunction,Conductor*%
%TO.N,GND*%
G36*
X139044349Y-75019685D02*
G01*
X139090104Y-75072489D01*
X139100048Y-75141647D01*
X139071023Y-75205203D01*
X139050199Y-75224315D01*
X138983072Y-75273086D01*
X138983070Y-75273088D01*
X138983069Y-75273088D01*
X138860588Y-75395569D01*
X138860588Y-75395570D01*
X138860586Y-75395572D01*
X138816859Y-75455756D01*
X138758768Y-75535711D01*
X138680128Y-75690052D01*
X138626597Y-75854802D01*
X138601730Y-76011811D01*
X138599500Y-76025889D01*
X138599500Y-76899111D01*
X138626598Y-77070201D01*
X138680127Y-77234945D01*
X138758768Y-77389288D01*
X138860586Y-77529428D01*
X138983072Y-77651914D01*
X139123212Y-77753732D01*
X139277555Y-77832373D01*
X139442299Y-77885902D01*
X139613389Y-77913000D01*
X139613390Y-77913000D01*
X139786610Y-77913000D01*
X139786611Y-77913000D01*
X139957701Y-77885902D01*
X139968799Y-77882295D01*
X140038639Y-77880299D01*
X140098472Y-77916378D01*
X140129301Y-77979079D01*
X140121338Y-78048493D01*
X140078242Y-78101801D01*
X139909255Y-78220127D01*
X139909253Y-78220128D01*
X139757628Y-78371753D01*
X139757623Y-78371759D01*
X139634632Y-78547408D01*
X139634631Y-78547410D01*
X139544009Y-78741751D01*
X139544005Y-78741760D01*
X139488509Y-78948875D01*
X139488507Y-78948886D01*
X139469819Y-79162498D01*
X139469819Y-79162501D01*
X139488507Y-79376113D01*
X139488509Y-79376124D01*
X139544005Y-79583239D01*
X139544007Y-79583243D01*
X139544008Y-79583247D01*
X139584343Y-79669745D01*
X139634631Y-79777590D01*
X139725397Y-79907216D01*
X139757627Y-79953245D01*
X139909255Y-80104873D01*
X140084909Y-80227868D01*
X140279253Y-80318492D01*
X140279259Y-80318493D01*
X140279260Y-80318494D01*
X140329109Y-80331850D01*
X140486381Y-80373992D01*
X140638346Y-80387287D01*
X140699998Y-80392681D01*
X140700000Y-80392681D01*
X140700002Y-80392681D01*
X140761654Y-80387287D01*
X140913619Y-80373992D01*
X141120747Y-80318492D01*
X141315091Y-80227868D01*
X141490745Y-80104873D01*
X141642373Y-79953245D01*
X141765368Y-79777591D01*
X141855992Y-79583247D01*
X141911492Y-79376119D01*
X141930181Y-79162500D01*
X141911492Y-78948881D01*
X141855992Y-78741753D01*
X141765368Y-78547410D01*
X141744229Y-78517221D01*
X141642376Y-78371759D01*
X141642371Y-78371753D01*
X141490745Y-78220127D01*
X141315090Y-78097131D01*
X141208061Y-78047223D01*
X141120747Y-78006508D01*
X141120743Y-78006507D01*
X141120739Y-78006505D01*
X140913624Y-77951009D01*
X140913620Y-77951008D01*
X140913619Y-77951008D01*
X140913618Y-77951007D01*
X140913613Y-77951007D01*
X140700002Y-77932319D01*
X140699998Y-77932319D01*
X140486386Y-77951007D01*
X140486375Y-77951009D01*
X140367275Y-77982922D01*
X140297425Y-77981259D01*
X140239563Y-77942096D01*
X140212059Y-77877868D01*
X140223646Y-77808965D01*
X140270644Y-77757265D01*
X140274915Y-77754880D01*
X140276781Y-77753736D01*
X140276782Y-77753734D01*
X140276788Y-77753732D01*
X140416928Y-77651914D01*
X140539414Y-77529428D01*
X140641232Y-77389288D01*
X140719873Y-77234945D01*
X140773402Y-77070201D01*
X140800500Y-76899111D01*
X140800500Y-76025889D01*
X140773402Y-75854799D01*
X140719873Y-75690055D01*
X140641232Y-75535712D01*
X140539414Y-75395572D01*
X140416928Y-75273086D01*
X140349802Y-75224316D01*
X140307139Y-75168988D01*
X140301160Y-75099374D01*
X140333766Y-75037580D01*
X140394605Y-75003222D01*
X140422690Y-75000000D01*
X145977310Y-75000000D01*
X146044349Y-75019685D01*
X146090104Y-75072489D01*
X146100048Y-75141647D01*
X146071023Y-75205203D01*
X146050199Y-75224315D01*
X145983072Y-75273086D01*
X145983070Y-75273088D01*
X145983069Y-75273088D01*
X145860588Y-75395569D01*
X145860588Y-75395570D01*
X145860586Y-75395572D01*
X145816859Y-75455756D01*
X145758768Y-75535711D01*
X145680128Y-75690052D01*
X145626597Y-75854802D01*
X145601730Y-76011811D01*
X145599500Y-76025889D01*
X145599500Y-76899111D01*
X145626598Y-77070201D01*
X145680127Y-77234945D01*
X145758768Y-77389288D01*
X145860586Y-77529428D01*
X145983072Y-77651914D01*
X146069769Y-77714903D01*
X146123218Y-77753736D01*
X146127364Y-77756277D01*
X146126476Y-77757726D01*
X146171911Y-77800642D01*
X146188703Y-77868464D01*
X146166162Y-77934598D01*
X146111444Y-77978046D01*
X146041923Y-77985015D01*
X146032724Y-77982922D01*
X145913624Y-77951009D01*
X145913620Y-77951008D01*
X145913619Y-77951008D01*
X145913618Y-77951007D01*
X145913613Y-77951007D01*
X145700002Y-77932319D01*
X145699998Y-77932319D01*
X145486386Y-77951007D01*
X145486375Y-77951009D01*
X145279260Y-78006505D01*
X145279251Y-78006509D01*
X145084910Y-78097131D01*
X145084908Y-78097132D01*
X144909259Y-78220123D01*
X144909253Y-78220128D01*
X144757628Y-78371753D01*
X144757623Y-78371759D01*
X144634632Y-78547408D01*
X144634631Y-78547410D01*
X144544009Y-78741751D01*
X144544005Y-78741760D01*
X144488509Y-78948875D01*
X144488507Y-78948886D01*
X144469819Y-79162498D01*
X144469819Y-79162501D01*
X144488507Y-79376113D01*
X144488509Y-79376124D01*
X144544005Y-79583239D01*
X144544007Y-79583243D01*
X144544008Y-79583247D01*
X144584343Y-79669745D01*
X144634631Y-79777590D01*
X144725397Y-79907216D01*
X144757627Y-79953245D01*
X144909255Y-80104873D01*
X145084909Y-80227868D01*
X145279253Y-80318492D01*
X145279259Y-80318493D01*
X145279260Y-80318494D01*
X145329109Y-80331850D01*
X145486381Y-80373992D01*
X145638346Y-80387287D01*
X145699998Y-80392681D01*
X145700000Y-80392681D01*
X145700002Y-80392681D01*
X145761654Y-80387287D01*
X145913619Y-80373992D01*
X146120747Y-80318492D01*
X146315091Y-80227868D01*
X146490745Y-80104873D01*
X146642373Y-79953245D01*
X146765368Y-79777591D01*
X146855992Y-79583247D01*
X146911492Y-79376119D01*
X146911590Y-79375000D01*
X152694540Y-79375000D01*
X152714326Y-79563256D01*
X152714327Y-79563259D01*
X152772818Y-79743277D01*
X152772821Y-79743284D01*
X152867467Y-79907216D01*
X152951650Y-80000710D01*
X152994129Y-80047888D01*
X153147265Y-80159148D01*
X153147270Y-80159151D01*
X153320192Y-80236142D01*
X153320197Y-80236144D01*
X153505354Y-80275500D01*
X153505355Y-80275500D01*
X153694644Y-80275500D01*
X153694646Y-80275500D01*
X153879803Y-80236144D01*
X154052730Y-80159151D01*
X154205871Y-80047888D01*
X154248991Y-79999999D01*
X164294922Y-79999999D01*
X164294922Y-80000000D01*
X164315219Y-80387287D01*
X164375886Y-80770323D01*
X164375887Y-80770330D01*
X164476262Y-81144936D01*
X164615244Y-81506994D01*
X164791310Y-81852543D01*
X165002531Y-82177793D01*
X165211095Y-82435350D01*
X165211096Y-82435350D01*
X166705748Y-80940698D01*
X166779588Y-81042330D01*
X166957670Y-81220412D01*
X167059300Y-81294251D01*
X165564648Y-82788903D01*
X165564649Y-82788904D01*
X165822206Y-82997468D01*
X166147456Y-83208689D01*
X166493005Y-83384755D01*
X166855063Y-83523737D01*
X167229669Y-83624112D01*
X167229676Y-83624113D01*
X167612712Y-83684780D01*
X167999999Y-83705078D01*
X168000001Y-83705078D01*
X168387287Y-83684780D01*
X168770323Y-83624113D01*
X168770330Y-83624112D01*
X169144936Y-83523737D01*
X169506994Y-83384755D01*
X169852543Y-83208689D01*
X170177783Y-82997476D01*
X170177785Y-82997475D01*
X170435349Y-82788902D01*
X168940698Y-81294251D01*
X169042330Y-81220412D01*
X169220412Y-81042330D01*
X169294251Y-80940698D01*
X170788902Y-82435349D01*
X170997475Y-82177785D01*
X170997476Y-82177783D01*
X171208689Y-81852543D01*
X171384755Y-81506994D01*
X171523737Y-81144936D01*
X171624112Y-80770330D01*
X171624113Y-80770323D01*
X171684780Y-80387287D01*
X171705078Y-80000000D01*
X171705078Y-79999999D01*
X171684780Y-79612712D01*
X171624113Y-79229676D01*
X171624112Y-79229669D01*
X171523737Y-78855063D01*
X171384755Y-78493005D01*
X171208689Y-78147456D01*
X170997468Y-77822206D01*
X170788904Y-77564649D01*
X170788903Y-77564648D01*
X169294251Y-79059300D01*
X169220412Y-78957670D01*
X169042330Y-78779588D01*
X168940698Y-78705748D01*
X170435350Y-77211096D01*
X170435350Y-77211095D01*
X170177793Y-77002531D01*
X169852543Y-76791310D01*
X169506994Y-76615244D01*
X169144936Y-76476262D01*
X168770330Y-76375887D01*
X168770323Y-76375886D01*
X168387287Y-76315219D01*
X168000001Y-76294922D01*
X167999999Y-76294922D01*
X167612712Y-76315219D01*
X167229676Y-76375886D01*
X167229669Y-76375887D01*
X166855063Y-76476262D01*
X166493005Y-76615244D01*
X166147456Y-76791310D01*
X165822206Y-77002531D01*
X165564648Y-77211095D01*
X165564648Y-77211096D01*
X167059301Y-78705748D01*
X166957670Y-78779588D01*
X166779588Y-78957670D01*
X166705748Y-79059300D01*
X165211096Y-77564648D01*
X165211095Y-77564648D01*
X165002531Y-77822206D01*
X164791310Y-78147456D01*
X164615244Y-78493005D01*
X164476262Y-78855063D01*
X164375887Y-79229669D01*
X164375886Y-79229676D01*
X164315219Y-79612712D01*
X164294922Y-79999999D01*
X154248991Y-79999999D01*
X154332533Y-79907216D01*
X154427179Y-79743284D01*
X154485674Y-79563256D01*
X154505460Y-79375000D01*
X154485674Y-79186744D01*
X154427179Y-79006716D01*
X154332533Y-78842784D01*
X154205871Y-78702112D01*
X154205870Y-78702111D01*
X154052734Y-78590851D01*
X154052729Y-78590848D01*
X153879807Y-78513857D01*
X153879802Y-78513855D01*
X153734001Y-78482865D01*
X153694646Y-78474500D01*
X153505354Y-78474500D01*
X153472897Y-78481398D01*
X153320197Y-78513855D01*
X153320192Y-78513857D01*
X153147270Y-78590848D01*
X153147265Y-78590851D01*
X152994129Y-78702111D01*
X152867466Y-78842785D01*
X152772821Y-79006715D01*
X152772818Y-79006722D01*
X152715412Y-79183401D01*
X152714326Y-79186744D01*
X152694540Y-79375000D01*
X146911590Y-79375000D01*
X146930181Y-79162500D01*
X146911492Y-78948881D01*
X146855992Y-78741753D01*
X146765368Y-78547410D01*
X146744229Y-78517221D01*
X146642376Y-78371759D01*
X146642371Y-78371753D01*
X146490748Y-78220130D01*
X146490738Y-78220121D01*
X146321759Y-78101800D01*
X146278134Y-78047223D01*
X146270942Y-77977725D01*
X146302464Y-77915370D01*
X146362694Y-77879957D01*
X146431203Y-77882296D01*
X146442299Y-77885902D01*
X146613389Y-77913000D01*
X146613390Y-77913000D01*
X146786610Y-77913000D01*
X146786611Y-77913000D01*
X146957701Y-77885902D01*
X147122445Y-77832373D01*
X147276788Y-77753732D01*
X147416928Y-77651914D01*
X147539414Y-77529428D01*
X147641232Y-77389288D01*
X147719873Y-77234945D01*
X147773402Y-77070201D01*
X147800500Y-76899111D01*
X147800500Y-76025889D01*
X147773402Y-75854799D01*
X147719873Y-75690055D01*
X147641232Y-75535712D01*
X147539414Y-75395572D01*
X147416928Y-75273086D01*
X147349802Y-75224316D01*
X147307139Y-75168988D01*
X147301160Y-75099374D01*
X147333766Y-75037580D01*
X147394605Y-75003222D01*
X147422690Y-75000000D01*
X167999290Y-75000000D01*
X168000641Y-75000006D01*
X168213481Y-75002328D01*
X168222915Y-75002792D01*
X168647552Y-75039943D01*
X168658270Y-75041354D01*
X169077393Y-75115256D01*
X169087921Y-75117590D01*
X169499033Y-75227747D01*
X169509322Y-75230992D01*
X169909255Y-75376555D01*
X169919221Y-75380683D01*
X170304942Y-75560547D01*
X170314528Y-75565538D01*
X170683088Y-75778326D01*
X170692203Y-75784132D01*
X171040820Y-76028237D01*
X171049402Y-76034822D01*
X171375420Y-76308383D01*
X171383395Y-76315692D01*
X171684307Y-76616604D01*
X171691616Y-76624579D01*
X171965177Y-76950597D01*
X171971762Y-76959179D01*
X172215864Y-77307792D01*
X172221676Y-77316916D01*
X172434459Y-77685467D01*
X172439454Y-77695062D01*
X172466812Y-77753731D01*
X172603669Y-78047223D01*
X172619310Y-78080764D01*
X172623448Y-78090756D01*
X172663958Y-78202054D01*
X172769003Y-78490664D01*
X172772256Y-78500980D01*
X172863842Y-78842785D01*
X172882405Y-78912061D01*
X172884746Y-78922623D01*
X172958644Y-79341725D01*
X172960056Y-79352450D01*
X172997206Y-79777073D01*
X172997671Y-79786527D01*
X172999993Y-79999357D01*
X173000000Y-80000710D01*
X173000000Y-88976000D01*
X172980315Y-89043039D01*
X172927511Y-89088794D01*
X172876000Y-89100000D01*
X167600000Y-89100000D01*
X167600000Y-105000000D01*
X172876000Y-105000000D01*
X172943039Y-105019685D01*
X172988794Y-105072489D01*
X173000000Y-105124000D01*
X173000000Y-116319289D01*
X172999993Y-116320642D01*
X172997671Y-116533472D01*
X172997206Y-116542926D01*
X172960056Y-116967549D01*
X172958644Y-116978274D01*
X172884746Y-117397376D01*
X172882405Y-117407938D01*
X172772256Y-117819019D01*
X172769003Y-117829335D01*
X172623450Y-118229240D01*
X172619310Y-118239235D01*
X172439454Y-118624937D01*
X172434459Y-118634532D01*
X172221676Y-119003083D01*
X172215864Y-119012207D01*
X171971762Y-119360820D01*
X171965177Y-119369402D01*
X171691616Y-119695420D01*
X171684307Y-119703395D01*
X171383395Y-120004307D01*
X171375420Y-120011616D01*
X171049402Y-120285177D01*
X171040820Y-120291762D01*
X170692207Y-120535864D01*
X170683083Y-120541676D01*
X170314532Y-120754459D01*
X170304937Y-120759454D01*
X169919235Y-120939310D01*
X169909240Y-120943450D01*
X169509335Y-121089003D01*
X169499019Y-121092256D01*
X169087938Y-121202405D01*
X169077376Y-121204746D01*
X168658274Y-121278644D01*
X168647549Y-121280056D01*
X168222926Y-121317206D01*
X168213472Y-121317671D01*
X168005455Y-121319940D01*
X168000640Y-121319993D01*
X167999290Y-121320000D01*
X146124000Y-121320000D01*
X146056961Y-121300315D01*
X146011206Y-121247511D01*
X146000000Y-121196000D01*
X146000000Y-118818879D01*
X148424500Y-118818879D01*
X148424500Y-119806120D01*
X148461025Y-119989743D01*
X148461027Y-119989751D01*
X148532676Y-120162728D01*
X148532681Y-120162737D01*
X148636697Y-120318407D01*
X148636700Y-120318411D01*
X148769088Y-120450799D01*
X148769092Y-120450802D01*
X148924762Y-120554818D01*
X148924768Y-120554821D01*
X148924769Y-120554822D01*
X149097749Y-120626473D01*
X149281379Y-120662999D01*
X149281383Y-120663000D01*
X149281384Y-120663000D01*
X149468617Y-120663000D01*
X149468618Y-120662999D01*
X149652251Y-120626473D01*
X149825231Y-120554822D01*
X149980908Y-120450802D01*
X150113302Y-120318408D01*
X150217322Y-120162731D01*
X150288973Y-119989751D01*
X150325500Y-119806116D01*
X150325500Y-118818884D01*
X150288973Y-118635249D01*
X150217322Y-118462269D01*
X150217321Y-118462268D01*
X150217318Y-118462262D01*
X150113302Y-118306592D01*
X150113299Y-118306588D01*
X149980911Y-118174200D01*
X149980907Y-118174197D01*
X149825237Y-118070181D01*
X149825228Y-118070176D01*
X149652251Y-117998527D01*
X149652243Y-117998525D01*
X149468620Y-117962000D01*
X149468616Y-117962000D01*
X149281384Y-117962000D01*
X149281379Y-117962000D01*
X149097756Y-117998525D01*
X149097748Y-117998527D01*
X148924771Y-118070176D01*
X148924762Y-118070181D01*
X148769092Y-118174197D01*
X148769088Y-118174200D01*
X148636700Y-118306588D01*
X148636697Y-118306592D01*
X148532681Y-118462262D01*
X148532676Y-118462271D01*
X148461027Y-118635248D01*
X148461025Y-118635256D01*
X148424500Y-118818879D01*
X146000000Y-118818879D01*
X146000000Y-115560025D01*
X147389500Y-115560025D01*
X147389500Y-115704975D01*
X147411243Y-115786120D01*
X147427017Y-115844988D01*
X147499488Y-115970511D01*
X147499490Y-115970513D01*
X147499491Y-115970515D01*
X147601985Y-116073009D01*
X147601986Y-116073010D01*
X147601988Y-116073011D01*
X147727511Y-116145482D01*
X147727512Y-116145482D01*
X147727515Y-116145484D01*
X147867525Y-116183000D01*
X147867528Y-116183000D01*
X148012472Y-116183000D01*
X148012475Y-116183000D01*
X148152485Y-116145484D01*
X148278015Y-116073009D01*
X148306445Y-116044578D01*
X148367764Y-116011095D01*
X148437456Y-116016079D01*
X148493390Y-116057949D01*
X148508685Y-116084808D01*
X148532676Y-116142727D01*
X148532681Y-116142737D01*
X148636697Y-116298407D01*
X148636700Y-116298411D01*
X148769088Y-116430799D01*
X148769092Y-116430802D01*
X148924762Y-116534818D01*
X148924771Y-116534823D01*
X148963956Y-116551054D01*
X149097749Y-116606473D01*
X149281379Y-116642999D01*
X149281383Y-116643000D01*
X149281384Y-116643000D01*
X149468617Y-116643000D01*
X149468618Y-116642999D01*
X149652251Y-116606473D01*
X149825231Y-116534822D01*
X149980908Y-116430802D01*
X150113302Y-116298408D01*
X150217322Y-116142731D01*
X150288973Y-115969751D01*
X150325500Y-115786116D01*
X150325500Y-115302983D01*
X152105500Y-115302983D01*
X152105500Y-116853001D01*
X152105501Y-116853018D01*
X152116000Y-116955796D01*
X152116001Y-116955799D01*
X152160581Y-117090330D01*
X152171186Y-117122334D01*
X152263288Y-117271656D01*
X152387344Y-117395712D01*
X152536666Y-117487814D01*
X152703203Y-117542999D01*
X152805991Y-117553500D01*
X154106008Y-117553499D01*
X154208797Y-117542999D01*
X154375334Y-117487814D01*
X154524656Y-117395712D01*
X154648712Y-117271656D01*
X154740814Y-117122334D01*
X154740814Y-117122331D01*
X154744178Y-117116879D01*
X154796126Y-117070154D01*
X154865088Y-117058931D01*
X154929170Y-117086774D01*
X154937398Y-117094294D01*
X155076213Y-117233109D01*
X155248179Y-117358048D01*
X155248181Y-117358049D01*
X155248184Y-117358051D01*
X155437588Y-117454557D01*
X155639757Y-117520246D01*
X155849713Y-117553500D01*
X155849714Y-117553500D01*
X156062286Y-117553500D01*
X156062287Y-117553500D01*
X156272243Y-117520246D01*
X156474412Y-117454557D01*
X156663816Y-117358051D01*
X156685789Y-117342086D01*
X156835786Y-117233109D01*
X156835788Y-117233106D01*
X156835792Y-117233104D01*
X156986104Y-117082792D01*
X157105683Y-116918204D01*
X157161011Y-116875540D01*
X157230624Y-116869561D01*
X157292420Y-116902166D01*
X157306313Y-116918199D01*
X157342168Y-116967549D01*
X157425896Y-117082792D01*
X157576213Y-117233109D01*
X157748179Y-117358048D01*
X157748181Y-117358049D01*
X157748184Y-117358051D01*
X157937588Y-117454557D01*
X158139757Y-117520246D01*
X158349713Y-117553500D01*
X158349714Y-117553500D01*
X158562286Y-117553500D01*
X158562287Y-117553500D01*
X158772243Y-117520246D01*
X158974412Y-117454557D01*
X159163816Y-117358051D01*
X159185789Y-117342086D01*
X159335786Y-117233109D01*
X159335788Y-117233106D01*
X159335792Y-117233104D01*
X159486104Y-117082792D01*
X159605991Y-116917779D01*
X159661320Y-116875115D01*
X159730933Y-116869136D01*
X159792729Y-116901741D01*
X159806627Y-116917781D01*
X159926272Y-117082459D01*
X159926276Y-117082464D01*
X160076535Y-117232723D01*
X160076540Y-117232727D01*
X160248442Y-117357620D01*
X160437782Y-117454095D01*
X160639871Y-117519757D01*
X160706000Y-117530231D01*
X160706000Y-116482145D01*
X160772657Y-116520630D01*
X160893465Y-116553000D01*
X161018535Y-116553000D01*
X161139343Y-116520630D01*
X161206000Y-116482145D01*
X161206000Y-117530230D01*
X161272126Y-117519757D01*
X161272129Y-117519757D01*
X161474217Y-117454095D01*
X161663557Y-117357620D01*
X161835459Y-117232727D01*
X161835464Y-117232723D01*
X161985723Y-117082464D01*
X161985727Y-117082459D01*
X162110620Y-116910557D01*
X162207095Y-116721217D01*
X162272757Y-116519130D01*
X162272757Y-116519127D01*
X162303030Y-116328000D01*
X161360146Y-116328000D01*
X161364765Y-116319999D01*
X164294922Y-116319999D01*
X164294922Y-116320000D01*
X164315219Y-116707287D01*
X164375886Y-117090323D01*
X164375887Y-117090330D01*
X164476262Y-117464936D01*
X164615244Y-117826994D01*
X164791310Y-118172543D01*
X165002531Y-118497793D01*
X165211095Y-118755350D01*
X165211096Y-118755350D01*
X166705748Y-117260698D01*
X166779588Y-117362330D01*
X166957670Y-117540412D01*
X167059300Y-117614251D01*
X165564648Y-119108903D01*
X165564649Y-119108904D01*
X165822206Y-119317468D01*
X166147456Y-119528689D01*
X166493005Y-119704755D01*
X166855063Y-119843737D01*
X167229669Y-119944112D01*
X167229676Y-119944113D01*
X167612712Y-120004780D01*
X167999999Y-120025078D01*
X168000001Y-120025078D01*
X168387287Y-120004780D01*
X168770323Y-119944113D01*
X168770330Y-119944112D01*
X169144936Y-119843737D01*
X169506994Y-119704755D01*
X169852543Y-119528689D01*
X170177783Y-119317476D01*
X170177785Y-119317475D01*
X170435349Y-119108902D01*
X168940698Y-117614251D01*
X169042330Y-117540412D01*
X169220412Y-117362330D01*
X169294251Y-117260698D01*
X170788902Y-118755349D01*
X170997475Y-118497785D01*
X170997476Y-118497783D01*
X171208689Y-118172543D01*
X171384755Y-117826994D01*
X171523737Y-117464936D01*
X171624112Y-117090330D01*
X171624113Y-117090323D01*
X171684780Y-116707287D01*
X171705078Y-116320000D01*
X171705078Y-116319999D01*
X171684780Y-115932712D01*
X171624113Y-115549676D01*
X171624112Y-115549669D01*
X171523737Y-115175063D01*
X171384755Y-114813005D01*
X171208689Y-114467456D01*
X170997468Y-114142206D01*
X170788904Y-113884649D01*
X170788903Y-113884648D01*
X169294251Y-115379300D01*
X169220412Y-115277670D01*
X169042330Y-115099588D01*
X168940698Y-115025748D01*
X170435350Y-113531096D01*
X170435350Y-113531095D01*
X170177793Y-113322531D01*
X169852543Y-113111310D01*
X169506994Y-112935244D01*
X169144936Y-112796262D01*
X168770330Y-112695887D01*
X168770323Y-112695886D01*
X168387287Y-112635219D01*
X168000001Y-112614922D01*
X167999999Y-112614922D01*
X167612712Y-112635219D01*
X167229676Y-112695886D01*
X167229669Y-112695887D01*
X166855063Y-112796262D01*
X166493005Y-112935244D01*
X166147456Y-113111310D01*
X165822206Y-113322531D01*
X165564648Y-113531095D01*
X165564648Y-113531096D01*
X167059301Y-115025748D01*
X166957670Y-115099588D01*
X166779588Y-115277670D01*
X166705748Y-115379300D01*
X165211096Y-113884648D01*
X165211095Y-113884648D01*
X165002531Y-114142206D01*
X164791310Y-114467456D01*
X164615244Y-114813005D01*
X164476262Y-115175063D01*
X164375887Y-115549669D01*
X164375886Y-115549676D01*
X164315219Y-115932712D01*
X164294922Y-116319999D01*
X161364765Y-116319999D01*
X161398630Y-116261343D01*
X161431000Y-116140535D01*
X161431000Y-116015465D01*
X161398630Y-115894657D01*
X161360146Y-115828000D01*
X162303030Y-115828000D01*
X162272757Y-115636872D01*
X162272757Y-115636869D01*
X162207095Y-115434782D01*
X162110620Y-115245442D01*
X161985727Y-115073540D01*
X161985723Y-115073535D01*
X161835464Y-114923276D01*
X161835459Y-114923272D01*
X161663557Y-114798379D01*
X161474215Y-114701903D01*
X161272124Y-114636241D01*
X161206000Y-114625768D01*
X161206000Y-115673854D01*
X161139343Y-115635370D01*
X161018535Y-115603000D01*
X160893465Y-115603000D01*
X160772657Y-115635370D01*
X160706000Y-115673854D01*
X160706000Y-114625768D01*
X160705999Y-114625768D01*
X160639875Y-114636241D01*
X160437784Y-114701903D01*
X160248442Y-114798379D01*
X160076540Y-114923272D01*
X160076535Y-114923276D01*
X159926276Y-115073535D01*
X159926272Y-115073540D01*
X159806627Y-115238218D01*
X159751297Y-115280884D01*
X159681684Y-115286863D01*
X159619889Y-115254257D01*
X159605991Y-115238218D01*
X159486109Y-115073214D01*
X159486105Y-115073209D01*
X159335786Y-114922890D01*
X159163820Y-114797951D01*
X158974414Y-114701444D01*
X158974413Y-114701443D01*
X158974412Y-114701443D01*
X158772243Y-114635754D01*
X158772241Y-114635753D01*
X158772240Y-114635753D01*
X158610957Y-114610208D01*
X158562287Y-114602500D01*
X158349713Y-114602500D01*
X158301042Y-114610208D01*
X158139760Y-114635753D01*
X157937585Y-114701444D01*
X157748179Y-114797951D01*
X157576213Y-114922890D01*
X157425894Y-115073209D01*
X157425890Y-115073214D01*
X157306318Y-115237793D01*
X157250989Y-115280459D01*
X157181375Y-115286438D01*
X157119580Y-115253833D01*
X157105682Y-115237793D01*
X156986109Y-115073214D01*
X156986105Y-115073209D01*
X156835786Y-114922890D01*
X156663820Y-114797951D01*
X156474414Y-114701444D01*
X156474413Y-114701443D01*
X156474412Y-114701443D01*
X156272243Y-114635754D01*
X156272241Y-114635753D01*
X156272240Y-114635753D01*
X156110957Y-114610208D01*
X156062287Y-114602500D01*
X155849713Y-114602500D01*
X155801042Y-114610208D01*
X155639760Y-114635753D01*
X155437585Y-114701444D01*
X155248179Y-114797951D01*
X155076215Y-114922889D01*
X154937398Y-115061706D01*
X154876075Y-115095190D01*
X154806383Y-115090206D01*
X154750450Y-115048334D01*
X154744178Y-115039120D01*
X154648712Y-114884344D01*
X154524657Y-114760289D01*
X154524656Y-114760288D01*
X154375334Y-114668186D01*
X154208797Y-114613001D01*
X154208795Y-114613000D01*
X154106010Y-114602500D01*
X152805998Y-114602500D01*
X152805981Y-114602501D01*
X152703203Y-114613000D01*
X152703200Y-114613001D01*
X152536668Y-114668185D01*
X152536663Y-114668187D01*
X152387342Y-114760289D01*
X152263289Y-114884342D01*
X152171187Y-115033663D01*
X152171185Y-115033668D01*
X152143349Y-115117670D01*
X152116001Y-115200203D01*
X152116001Y-115200204D01*
X152116000Y-115200204D01*
X152105500Y-115302983D01*
X150325500Y-115302983D01*
X150325500Y-114498884D01*
X150288973Y-114315249D01*
X150217322Y-114142269D01*
X150217321Y-114142268D01*
X150217318Y-114142262D01*
X150113302Y-113986592D01*
X150113299Y-113986588D01*
X149980911Y-113854200D01*
X149980907Y-113854197D01*
X149825237Y-113750181D01*
X149825228Y-113750176D01*
X149652251Y-113678527D01*
X149652243Y-113678525D01*
X149468620Y-113642000D01*
X149468616Y-113642000D01*
X149281384Y-113642000D01*
X149281379Y-113642000D01*
X149097756Y-113678525D01*
X149097748Y-113678527D01*
X148924771Y-113750176D01*
X148924762Y-113750181D01*
X148769092Y-113854197D01*
X148769088Y-113854200D01*
X148636700Y-113986588D01*
X148636697Y-113986592D01*
X148532681Y-114142262D01*
X148532676Y-114142271D01*
X148461027Y-114315248D01*
X148461025Y-114315256D01*
X148424500Y-114498879D01*
X148424500Y-115061789D01*
X148404815Y-115128828D01*
X148352011Y-115174583D01*
X148282853Y-115184527D01*
X148238500Y-115169176D01*
X148152488Y-115119517D01*
X148152489Y-115119517D01*
X148141006Y-115116440D01*
X148012475Y-115082000D01*
X147867525Y-115082000D01*
X147738993Y-115116440D01*
X147727511Y-115119517D01*
X147601988Y-115191988D01*
X147601982Y-115191993D01*
X147499493Y-115294482D01*
X147499488Y-115294488D01*
X147427017Y-115420011D01*
X147427016Y-115420015D01*
X147389500Y-115560025D01*
X146000000Y-115560025D01*
X146000000Y-112327791D01*
X146019685Y-112260752D01*
X146072489Y-112214997D01*
X146141647Y-112205053D01*
X146149754Y-112206495D01*
X146180354Y-112213000D01*
X146180356Y-112213000D01*
X146369644Y-112213000D01*
X146369646Y-112213000D01*
X146554803Y-112173644D01*
X146727730Y-112096651D01*
X146880871Y-111985388D01*
X147007533Y-111844716D01*
X147102179Y-111680784D01*
X147160674Y-111500756D01*
X147180460Y-111312500D01*
X147160674Y-111124244D01*
X147102179Y-110944216D01*
X147007533Y-110780284D01*
X146880871Y-110639612D01*
X146826786Y-110600317D01*
X146784121Y-110544989D01*
X146778142Y-110475375D01*
X146810747Y-110413580D01*
X146826787Y-110399682D01*
X146841543Y-110388961D01*
X146880871Y-110360388D01*
X147007533Y-110219716D01*
X147102179Y-110055784D01*
X147160674Y-109875756D01*
X147163787Y-109846135D01*
X150800500Y-109846135D01*
X150800500Y-111641870D01*
X150800501Y-111641876D01*
X150806908Y-111701483D01*
X150857202Y-111836328D01*
X150857206Y-111836335D01*
X150943452Y-111951544D01*
X150943455Y-111951547D01*
X151058664Y-112037793D01*
X151058671Y-112037797D01*
X151193517Y-112088091D01*
X151193516Y-112088091D01*
X151200444Y-112088835D01*
X151253127Y-112094500D01*
X153048872Y-112094499D01*
X153108483Y-112088091D01*
X153243331Y-112037796D01*
X153358546Y-111951546D01*
X153444796Y-111836331D01*
X153493810Y-111704916D01*
X153535681Y-111648984D01*
X153601145Y-111624566D01*
X153669418Y-111639417D01*
X153697673Y-111660569D01*
X153819599Y-111782495D01*
X153908457Y-111844714D01*
X154013165Y-111918032D01*
X154013167Y-111918033D01*
X154013170Y-111918035D01*
X154227337Y-112017903D01*
X154455592Y-112079063D01*
X154632034Y-112094500D01*
X154690999Y-112099659D01*
X154691000Y-112099659D01*
X154691001Y-112099659D01*
X154749966Y-112094500D01*
X154926408Y-112079063D01*
X155154663Y-112017903D01*
X155368830Y-111918035D01*
X155562401Y-111782495D01*
X155729495Y-111615401D01*
X155859425Y-111429842D01*
X155914002Y-111386217D01*
X155983500Y-111379023D01*
X156045855Y-111410546D01*
X156062575Y-111429842D01*
X156192500Y-111615395D01*
X156192505Y-111615401D01*
X156359599Y-111782495D01*
X156448457Y-111844714D01*
X156553165Y-111918032D01*
X156553167Y-111918033D01*
X156553170Y-111918035D01*
X156767337Y-112017903D01*
X156995592Y-112079063D01*
X157172034Y-112094500D01*
X157230999Y-112099659D01*
X157231000Y-112099659D01*
X157231001Y-112099659D01*
X157289966Y-112094500D01*
X157466408Y-112079063D01*
X157694663Y-112017903D01*
X157908830Y-111918035D01*
X158102401Y-111782495D01*
X158269495Y-111615401D01*
X158399425Y-111429842D01*
X158454002Y-111386217D01*
X158523500Y-111379023D01*
X158585855Y-111410546D01*
X158602575Y-111429842D01*
X158732500Y-111615395D01*
X158732505Y-111615401D01*
X158899599Y-111782495D01*
X158988457Y-111844714D01*
X159093165Y-111918032D01*
X159093167Y-111918033D01*
X159093170Y-111918035D01*
X159307337Y-112017903D01*
X159535592Y-112079063D01*
X159712034Y-112094500D01*
X159770999Y-112099659D01*
X159771000Y-112099659D01*
X159771001Y-112099659D01*
X159829966Y-112094500D01*
X160006408Y-112079063D01*
X160234663Y-112017903D01*
X160448830Y-111918035D01*
X160642401Y-111782495D01*
X160809495Y-111615401D01*
X160939425Y-111429842D01*
X160994002Y-111386217D01*
X161063500Y-111379023D01*
X161125855Y-111410546D01*
X161142575Y-111429842D01*
X161272500Y-111615395D01*
X161272505Y-111615401D01*
X161439599Y-111782495D01*
X161528457Y-111844714D01*
X161633165Y-111918032D01*
X161633167Y-111918033D01*
X161633170Y-111918035D01*
X161847337Y-112017903D01*
X162075592Y-112079063D01*
X162252034Y-112094500D01*
X162310999Y-112099659D01*
X162311000Y-112099659D01*
X162311001Y-112099659D01*
X162369966Y-112094500D01*
X162546408Y-112079063D01*
X162774663Y-112017903D01*
X162988830Y-111918035D01*
X163182401Y-111782495D01*
X163349495Y-111615401D01*
X163485035Y-111421830D01*
X163584903Y-111207663D01*
X163646063Y-110979408D01*
X163666659Y-110744000D01*
X163664589Y-110720346D01*
X163649247Y-110544989D01*
X163646063Y-110508592D01*
X163593317Y-110311740D01*
X163584905Y-110280344D01*
X163584904Y-110280343D01*
X163584903Y-110280337D01*
X163485035Y-110066171D01*
X163479425Y-110058158D01*
X163349494Y-109872597D01*
X163182402Y-109705506D01*
X163182395Y-109705501D01*
X162988834Y-109569967D01*
X162988830Y-109569965D01*
X162937510Y-109546034D01*
X162774663Y-109470097D01*
X162774659Y-109470096D01*
X162774655Y-109470094D01*
X162546413Y-109408938D01*
X162546403Y-109408936D01*
X162311001Y-109388341D01*
X162310999Y-109388341D01*
X162075596Y-109408936D01*
X162075586Y-109408938D01*
X161847344Y-109470094D01*
X161847335Y-109470098D01*
X161633171Y-109569964D01*
X161633169Y-109569965D01*
X161439597Y-109705505D01*
X161272505Y-109872597D01*
X161142575Y-110058158D01*
X161087998Y-110101783D01*
X161018500Y-110108977D01*
X160956145Y-110077454D01*
X160939425Y-110058158D01*
X160809494Y-109872597D01*
X160642402Y-109705506D01*
X160642395Y-109705501D01*
X160448834Y-109569967D01*
X160448830Y-109569965D01*
X160397510Y-109546034D01*
X160234663Y-109470097D01*
X160234659Y-109470096D01*
X160234655Y-109470094D01*
X160006413Y-109408938D01*
X160006403Y-109408936D01*
X159771001Y-109388341D01*
X159770999Y-109388341D01*
X159535596Y-109408936D01*
X159535586Y-109408938D01*
X159307344Y-109470094D01*
X159307335Y-109470098D01*
X159093171Y-109569964D01*
X159093169Y-109569965D01*
X158899597Y-109705505D01*
X158732505Y-109872597D01*
X158602575Y-110058158D01*
X158547998Y-110101783D01*
X158478500Y-110108977D01*
X158416145Y-110077454D01*
X158399425Y-110058158D01*
X158269494Y-109872597D01*
X158102402Y-109705506D01*
X158102395Y-109705501D01*
X157908834Y-109569967D01*
X157908830Y-109569965D01*
X157857510Y-109546034D01*
X157694663Y-109470097D01*
X157694659Y-109470096D01*
X157694655Y-109470094D01*
X157466413Y-109408938D01*
X157466403Y-109408936D01*
X157231001Y-109388341D01*
X157230999Y-109388341D01*
X156995596Y-109408936D01*
X156995586Y-109408938D01*
X156767344Y-109470094D01*
X156767335Y-109470098D01*
X156553171Y-109569964D01*
X156553169Y-109569965D01*
X156359597Y-109705505D01*
X156192505Y-109872597D01*
X156062575Y-110058158D01*
X156007998Y-110101783D01*
X155938500Y-110108977D01*
X155876145Y-110077454D01*
X155859425Y-110058158D01*
X155729494Y-109872597D01*
X155562402Y-109705506D01*
X155562395Y-109705501D01*
X155368834Y-109569967D01*
X155368830Y-109569965D01*
X155317510Y-109546034D01*
X155154663Y-109470097D01*
X155154659Y-109470096D01*
X155154655Y-109470094D01*
X154926413Y-109408938D01*
X154926403Y-109408936D01*
X154691001Y-109388341D01*
X154690999Y-109388341D01*
X154455596Y-109408936D01*
X154455586Y-109408938D01*
X154227344Y-109470094D01*
X154227335Y-109470098D01*
X154013171Y-109569964D01*
X154013169Y-109569965D01*
X153819600Y-109705503D01*
X153697673Y-109827430D01*
X153636350Y-109860914D01*
X153566658Y-109855930D01*
X153510725Y-109814058D01*
X153493810Y-109783081D01*
X153444797Y-109651671D01*
X153444793Y-109651664D01*
X153358547Y-109536455D01*
X153358544Y-109536452D01*
X153243335Y-109450206D01*
X153243328Y-109450202D01*
X153108482Y-109399908D01*
X153108483Y-109399908D01*
X153048883Y-109393501D01*
X153048881Y-109393500D01*
X153048873Y-109393500D01*
X153048864Y-109393500D01*
X151253129Y-109393500D01*
X151253123Y-109393501D01*
X151193516Y-109399908D01*
X151058671Y-109450202D01*
X151058664Y-109450206D01*
X150943455Y-109536452D01*
X150943452Y-109536455D01*
X150857206Y-109651664D01*
X150857202Y-109651671D01*
X150806908Y-109786517D01*
X150800501Y-109846116D01*
X150800500Y-109846135D01*
X147163787Y-109846135D01*
X147180460Y-109687500D01*
X147160674Y-109499244D01*
X147102179Y-109319216D01*
X147007533Y-109155284D01*
X146880871Y-109014612D01*
X146876918Y-109011740D01*
X146727734Y-108903351D01*
X146727729Y-108903348D01*
X146554807Y-108826357D01*
X146554802Y-108826355D01*
X146409001Y-108795365D01*
X146369646Y-108787000D01*
X146180354Y-108787000D01*
X146149778Y-108793498D01*
X146080112Y-108788181D01*
X146024379Y-108746043D01*
X146000275Y-108680463D01*
X146000000Y-108672208D01*
X146000000Y-105477791D01*
X146019685Y-105410752D01*
X146072489Y-105364997D01*
X146141647Y-105355053D01*
X146149754Y-105356495D01*
X146180354Y-105363000D01*
X146180356Y-105363000D01*
X146369644Y-105363000D01*
X146369646Y-105363000D01*
X146554803Y-105323644D01*
X146727730Y-105246651D01*
X146791940Y-105200000D01*
X149394540Y-105200000D01*
X149414326Y-105388256D01*
X149414327Y-105388259D01*
X149472818Y-105568277D01*
X149472821Y-105568284D01*
X149567467Y-105732216D01*
X149639070Y-105811739D01*
X149694129Y-105872888D01*
X149847265Y-105984148D01*
X149847270Y-105984151D01*
X150020192Y-106061142D01*
X150020197Y-106061144D01*
X150205354Y-106100500D01*
X150205355Y-106100500D01*
X150394644Y-106100500D01*
X150394646Y-106100500D01*
X150579803Y-106061144D01*
X150752730Y-105984151D01*
X150905871Y-105872888D01*
X151032533Y-105732216D01*
X151127179Y-105568284D01*
X151185674Y-105388256D01*
X151200205Y-105250000D01*
X153044540Y-105250000D01*
X153064326Y-105438256D01*
X153064327Y-105438259D01*
X153122818Y-105618277D01*
X153122821Y-105618284D01*
X153217467Y-105782216D01*
X153244060Y-105811750D01*
X153344129Y-105922888D01*
X153497265Y-106034148D01*
X153497270Y-106034151D01*
X153670192Y-106111142D01*
X153670197Y-106111144D01*
X153855354Y-106150500D01*
X153855355Y-106150500D01*
X154044644Y-106150500D01*
X154044646Y-106150500D01*
X154229803Y-106111144D01*
X154402730Y-106034151D01*
X154555871Y-105922888D01*
X154682533Y-105782216D01*
X154777179Y-105618284D01*
X154783120Y-105600000D01*
X159694540Y-105600000D01*
X159714326Y-105788256D01*
X159714327Y-105788259D01*
X159772818Y-105968277D01*
X159772821Y-105968284D01*
X159867467Y-106132216D01*
X159986650Y-106264582D01*
X159994129Y-106272888D01*
X160147265Y-106384148D01*
X160147270Y-106384151D01*
X160320192Y-106461142D01*
X160320193Y-106461142D01*
X160320197Y-106461144D01*
X160505354Y-106500500D01*
X160505355Y-106500500D01*
X160508507Y-106501170D01*
X160569989Y-106534362D01*
X160603766Y-106595525D01*
X160606048Y-106609498D01*
X160614325Y-106688255D01*
X160672818Y-106868277D01*
X160672821Y-106868284D01*
X160767467Y-107032216D01*
X160836125Y-107108468D01*
X160894129Y-107172888D01*
X161047265Y-107284148D01*
X161047270Y-107284151D01*
X161220192Y-107361142D01*
X161220197Y-107361144D01*
X161405354Y-107400500D01*
X161405355Y-107400500D01*
X161594644Y-107400500D01*
X161594646Y-107400500D01*
X161779803Y-107361144D01*
X161952730Y-107284151D01*
X162105871Y-107172888D01*
X162105870Y-107172888D01*
X162111129Y-107169068D01*
X162112330Y-107170721D01*
X162166617Y-107144646D01*
X162235955Y-107153245D01*
X162289637Y-107197967D01*
X162294029Y-107205018D01*
X162367465Y-107332214D01*
X162457057Y-107431716D01*
X162494129Y-107472888D01*
X162575107Y-107531722D01*
X162581271Y-107536200D01*
X162623937Y-107591529D01*
X162629916Y-107661143D01*
X162626318Y-107674832D01*
X162614328Y-107711736D01*
X162614327Y-107711740D01*
X162614326Y-107711744D01*
X162594540Y-107900000D01*
X162614326Y-108088256D01*
X162614327Y-108088259D01*
X162672818Y-108268277D01*
X162672821Y-108268284D01*
X162767467Y-108432216D01*
X162852911Y-108527111D01*
X162894129Y-108572888D01*
X163047265Y-108684148D01*
X163047270Y-108684151D01*
X163220192Y-108761142D01*
X163220197Y-108761144D01*
X163405354Y-108800500D01*
X163405355Y-108800500D01*
X163594644Y-108800500D01*
X163594646Y-108800500D01*
X163779803Y-108761144D01*
X163952730Y-108684151D01*
X164105871Y-108572888D01*
X164232533Y-108432216D01*
X164327179Y-108268284D01*
X164385674Y-108088256D01*
X164405460Y-107900000D01*
X164394950Y-107800000D01*
X164994540Y-107800000D01*
X165014326Y-107988256D01*
X165014327Y-107988259D01*
X165072818Y-108168277D01*
X165072821Y-108168284D01*
X165167467Y-108332216D01*
X165173446Y-108338856D01*
X165294129Y-108472888D01*
X165447265Y-108584148D01*
X165447270Y-108584151D01*
X165620192Y-108661142D01*
X165620197Y-108661144D01*
X165805354Y-108700500D01*
X165805355Y-108700500D01*
X165994644Y-108700500D01*
X165994646Y-108700500D01*
X166179803Y-108661144D01*
X166352730Y-108584151D01*
X166505871Y-108472888D01*
X166632533Y-108332216D01*
X166727179Y-108168284D01*
X166785674Y-107988256D01*
X166805460Y-107800000D01*
X166785674Y-107611744D01*
X166727179Y-107431716D01*
X166632533Y-107267784D01*
X166505871Y-107127112D01*
X166490369Y-107115849D01*
X166352734Y-107015851D01*
X166352729Y-107015848D01*
X166179807Y-106938857D01*
X166179802Y-106938855D01*
X166034001Y-106907865D01*
X165994646Y-106899500D01*
X165805354Y-106899500D01*
X165772897Y-106906398D01*
X165620197Y-106938855D01*
X165620192Y-106938857D01*
X165447270Y-107015848D01*
X165447265Y-107015851D01*
X165294129Y-107127111D01*
X165167466Y-107267785D01*
X165072821Y-107431715D01*
X165072818Y-107431722D01*
X165020894Y-107591529D01*
X165014326Y-107611744D01*
X164994540Y-107800000D01*
X164394950Y-107800000D01*
X164385674Y-107711744D01*
X164327179Y-107531716D01*
X164232533Y-107367784D01*
X164105871Y-107227112D01*
X164031238Y-107172888D01*
X164018727Y-107163798D01*
X163976062Y-107108468D01*
X163970083Y-107038854D01*
X163973679Y-107025171D01*
X163985674Y-106988256D01*
X163987771Y-106968300D01*
X164014353Y-106903689D01*
X164071650Y-106863703D01*
X164073631Y-106863162D01*
X164073628Y-106863150D01*
X164079799Y-106861144D01*
X164079803Y-106861144D01*
X164079806Y-106861142D01*
X164079808Y-106861142D01*
X164138058Y-106835206D01*
X164252730Y-106784151D01*
X164405871Y-106672888D01*
X164532533Y-106532216D01*
X164627179Y-106368284D01*
X164685674Y-106188256D01*
X164705460Y-106000000D01*
X164685674Y-105811744D01*
X164627179Y-105631716D01*
X164532533Y-105467784D01*
X164405871Y-105327112D01*
X164401095Y-105323642D01*
X164252734Y-105215851D01*
X164252729Y-105215848D01*
X164079807Y-105138857D01*
X164079802Y-105138855D01*
X163934001Y-105107865D01*
X163894646Y-105099500D01*
X163705354Y-105099500D01*
X163672897Y-105106398D01*
X163520197Y-105138855D01*
X163520192Y-105138857D01*
X163347270Y-105215848D01*
X163347265Y-105215851D01*
X163194129Y-105327111D01*
X163067466Y-105467785D01*
X162972821Y-105631715D01*
X162972818Y-105631722D01*
X162914327Y-105811739D01*
X162914325Y-105811750D01*
X162912228Y-105831700D01*
X162885643Y-105896314D01*
X162828345Y-105936298D01*
X162826372Y-105936836D01*
X162826376Y-105936848D01*
X162820194Y-105938856D01*
X162647270Y-106015848D01*
X162647265Y-106015851D01*
X162488871Y-106130932D01*
X162487677Y-106129288D01*
X162433309Y-106155365D01*
X162363976Y-106146725D01*
X162310320Y-106101971D01*
X162305988Y-106095013D01*
X162232533Y-105967784D01*
X162105871Y-105827112D01*
X162084719Y-105811744D01*
X161952734Y-105715851D01*
X161952729Y-105715848D01*
X161779807Y-105638857D01*
X161779802Y-105638855D01*
X161591491Y-105598829D01*
X161530009Y-105565637D01*
X161496233Y-105504474D01*
X161493951Y-105490499D01*
X161485674Y-105411745D01*
X161485672Y-105411740D01*
X161427179Y-105231716D01*
X161332533Y-105067784D01*
X161205871Y-104927112D01*
X161205870Y-104927111D01*
X161052734Y-104815851D01*
X161052729Y-104815848D01*
X160879807Y-104738857D01*
X160879802Y-104738855D01*
X160734001Y-104707865D01*
X160694646Y-104699500D01*
X160505354Y-104699500D01*
X160472897Y-104706398D01*
X160320197Y-104738855D01*
X160320192Y-104738857D01*
X160147270Y-104815848D01*
X160147265Y-104815851D01*
X159994129Y-104927111D01*
X159867466Y-105067785D01*
X159772821Y-105231715D01*
X159772818Y-105231722D01*
X159714648Y-105410752D01*
X159714326Y-105411744D01*
X159694540Y-105600000D01*
X154783120Y-105600000D01*
X154835674Y-105438256D01*
X154855460Y-105250000D01*
X154835674Y-105061744D01*
X154777179Y-104881716D01*
X154682533Y-104717784D01*
X154555871Y-104577112D01*
X154555870Y-104577111D01*
X154402734Y-104465851D01*
X154402729Y-104465848D01*
X154229807Y-104388857D01*
X154229802Y-104388855D01*
X154084001Y-104357865D01*
X154044646Y-104349500D01*
X153855354Y-104349500D01*
X153822897Y-104356398D01*
X153670197Y-104388855D01*
X153670192Y-104388857D01*
X153497270Y-104465848D01*
X153497265Y-104465851D01*
X153344129Y-104577111D01*
X153217466Y-104717785D01*
X153122821Y-104881715D01*
X153122818Y-104881722D01*
X153064327Y-105061740D01*
X153064326Y-105061744D01*
X153044540Y-105250000D01*
X151200205Y-105250000D01*
X151205460Y-105200000D01*
X151185674Y-105011744D01*
X151127179Y-104831716D01*
X151032533Y-104667784D01*
X150905871Y-104527112D01*
X150844578Y-104482580D01*
X150752734Y-104415851D01*
X150752729Y-104415848D01*
X150579807Y-104338857D01*
X150579802Y-104338855D01*
X150434001Y-104307865D01*
X150394646Y-104299500D01*
X150205354Y-104299500D01*
X150172897Y-104306398D01*
X150020197Y-104338855D01*
X150020192Y-104338857D01*
X149847270Y-104415848D01*
X149847265Y-104415851D01*
X149694129Y-104527111D01*
X149567466Y-104667785D01*
X149472821Y-104831715D01*
X149472818Y-104831722D01*
X149418142Y-105000000D01*
X149414326Y-105011744D01*
X149394540Y-105200000D01*
X146791940Y-105200000D01*
X146880871Y-105135388D01*
X147007533Y-104994716D01*
X147102179Y-104830784D01*
X147160674Y-104650756D01*
X147180460Y-104462500D01*
X147160674Y-104274244D01*
X147102179Y-104094216D01*
X147007533Y-103930284D01*
X146880871Y-103789612D01*
X146880870Y-103789611D01*
X146727734Y-103678351D01*
X146727729Y-103678348D01*
X146554807Y-103601357D01*
X146554802Y-103601355D01*
X146409001Y-103570365D01*
X146369646Y-103562000D01*
X146180354Y-103562000D01*
X146149778Y-103568498D01*
X146080112Y-103563181D01*
X146024379Y-103521043D01*
X146000275Y-103455463D01*
X146000000Y-103447208D01*
X146000000Y-102900000D01*
X152994540Y-102900000D01*
X153014326Y-103088256D01*
X153014327Y-103088259D01*
X153072818Y-103268277D01*
X153072821Y-103268284D01*
X153167467Y-103432216D01*
X153283553Y-103561142D01*
X153294129Y-103572888D01*
X153447265Y-103684148D01*
X153447270Y-103684151D01*
X153620192Y-103761142D01*
X153620197Y-103761144D01*
X153805354Y-103800500D01*
X153805355Y-103800500D01*
X153994644Y-103800500D01*
X153994646Y-103800500D01*
X154179803Y-103761144D01*
X154352730Y-103684151D01*
X154495936Y-103580105D01*
X154561740Y-103556627D01*
X154629794Y-103572452D01*
X154641708Y-103580110D01*
X154647266Y-103584149D01*
X154647270Y-103584151D01*
X154820192Y-103661142D01*
X154820197Y-103661144D01*
X155005354Y-103700500D01*
X155005355Y-103700500D01*
X155194644Y-103700500D01*
X155194646Y-103700500D01*
X155379803Y-103661144D01*
X155552730Y-103584151D01*
X155705871Y-103472888D01*
X155832533Y-103332216D01*
X155927179Y-103168284D01*
X155985674Y-102988256D01*
X156005460Y-102800000D01*
X155994950Y-102700000D01*
X159794540Y-102700000D01*
X159814326Y-102888256D01*
X159814327Y-102888259D01*
X159872818Y-103068277D01*
X159872821Y-103068284D01*
X159967467Y-103232216D01*
X160073758Y-103350264D01*
X160094129Y-103372888D01*
X160247265Y-103484148D01*
X160247270Y-103484151D01*
X160420192Y-103561142D01*
X160420197Y-103561144D01*
X160605354Y-103600500D01*
X160605355Y-103600500D01*
X160794644Y-103600500D01*
X160794646Y-103600500D01*
X160979803Y-103561144D01*
X161152730Y-103484151D01*
X161277116Y-103393778D01*
X161342921Y-103370300D01*
X161410975Y-103386125D01*
X161422872Y-103393771D01*
X161531768Y-103472888D01*
X161547270Y-103484151D01*
X161720192Y-103561142D01*
X161720197Y-103561144D01*
X161905354Y-103600500D01*
X161905355Y-103600500D01*
X162094644Y-103600500D01*
X162094646Y-103600500D01*
X162279803Y-103561144D01*
X162452730Y-103484151D01*
X162605871Y-103372888D01*
X162732533Y-103232216D01*
X162827179Y-103068284D01*
X162885674Y-102888256D01*
X162894950Y-102800000D01*
X164694540Y-102800000D01*
X164714326Y-102988256D01*
X164714327Y-102988259D01*
X164772818Y-103168277D01*
X164772821Y-103168284D01*
X164867467Y-103332216D01*
X164994129Y-103472888D01*
X165147265Y-103584148D01*
X165147270Y-103584151D01*
X165320192Y-103661142D01*
X165320197Y-103661144D01*
X165505354Y-103700500D01*
X165505355Y-103700500D01*
X165694644Y-103700500D01*
X165694646Y-103700500D01*
X165879803Y-103661144D01*
X166052730Y-103584151D01*
X166205871Y-103472888D01*
X166332533Y-103332216D01*
X166427179Y-103168284D01*
X166485674Y-102988256D01*
X166505460Y-102800000D01*
X166485674Y-102611744D01*
X166427179Y-102431716D01*
X166332533Y-102267784D01*
X166205871Y-102127112D01*
X166205870Y-102127111D01*
X166052734Y-102015851D01*
X166052729Y-102015848D01*
X165879807Y-101938857D01*
X165879802Y-101938855D01*
X165734001Y-101907865D01*
X165694646Y-101899500D01*
X165505354Y-101899500D01*
X165472897Y-101906398D01*
X165320197Y-101938855D01*
X165320192Y-101938857D01*
X165147270Y-102015848D01*
X165147265Y-102015851D01*
X164994129Y-102127111D01*
X164867466Y-102267785D01*
X164772821Y-102431715D01*
X164772818Y-102431722D01*
X164740166Y-102532216D01*
X164714326Y-102611744D01*
X164694540Y-102800000D01*
X162894950Y-102800000D01*
X162905460Y-102700000D01*
X162885674Y-102511744D01*
X162827179Y-102331716D01*
X162732533Y-102167784D01*
X162605871Y-102027112D01*
X162590369Y-102015849D01*
X162452734Y-101915851D01*
X162452729Y-101915848D01*
X162279807Y-101838857D01*
X162279802Y-101838855D01*
X162134001Y-101807865D01*
X162094646Y-101799500D01*
X161905354Y-101799500D01*
X161872897Y-101806398D01*
X161720197Y-101838855D01*
X161720192Y-101838857D01*
X161547271Y-101915848D01*
X161422885Y-102006219D01*
X161357078Y-102029698D01*
X161289024Y-102013872D01*
X161277115Y-102006219D01*
X161184398Y-101938857D01*
X161152730Y-101915849D01*
X161152728Y-101915848D01*
X161152729Y-101915848D01*
X160979807Y-101838857D01*
X160979802Y-101838855D01*
X160834001Y-101807865D01*
X160794646Y-101799500D01*
X160605354Y-101799500D01*
X160572897Y-101806398D01*
X160420197Y-101838855D01*
X160420192Y-101838857D01*
X160247270Y-101915848D01*
X160247265Y-101915851D01*
X160094129Y-102027111D01*
X159967466Y-102167785D01*
X159872821Y-102331715D01*
X159872818Y-102331722D01*
X159830767Y-102461144D01*
X159814326Y-102511744D01*
X159794540Y-102700000D01*
X155994950Y-102700000D01*
X155985674Y-102611744D01*
X155927179Y-102431716D01*
X155832533Y-102267784D01*
X155705871Y-102127112D01*
X155705870Y-102127111D01*
X155552734Y-102015851D01*
X155552729Y-102015848D01*
X155379807Y-101938857D01*
X155379802Y-101938855D01*
X155293775Y-101920570D01*
X155232293Y-101887378D01*
X155198517Y-101826215D01*
X155196238Y-101812262D01*
X155185674Y-101711744D01*
X155127179Y-101531716D01*
X155032533Y-101367784D01*
X155006485Y-101338855D01*
X154955387Y-101282104D01*
X154925157Y-101219112D01*
X154929606Y-101160814D01*
X154959833Y-101067785D01*
X154985674Y-100988256D01*
X155005460Y-100800000D01*
X154985674Y-100611744D01*
X154927179Y-100431716D01*
X154832533Y-100267784D01*
X154705871Y-100127112D01*
X154705870Y-100127111D01*
X154552734Y-100015851D01*
X154552729Y-100015848D01*
X154379807Y-99938857D01*
X154379802Y-99938855D01*
X154234001Y-99907865D01*
X154194646Y-99899500D01*
X154005354Y-99899500D01*
X153972897Y-99906398D01*
X153820197Y-99938855D01*
X153820192Y-99938857D01*
X153647270Y-100015848D01*
X153647265Y-100015851D01*
X153494129Y-100127111D01*
X153367466Y-100267785D01*
X153272821Y-100431715D01*
X153272818Y-100431722D01*
X153214327Y-100611740D01*
X153214326Y-100611744D01*
X153194540Y-100800000D01*
X153214326Y-100988256D01*
X153214327Y-100988259D01*
X153272818Y-101168277D01*
X153272821Y-101168284D01*
X153367467Y-101332216D01*
X153373446Y-101338856D01*
X153444613Y-101417895D01*
X153474843Y-101480886D01*
X153470394Y-101539185D01*
X153428610Y-101667784D01*
X153414326Y-101711744D01*
X153400966Y-101838856D01*
X153394593Y-101899500D01*
X153394540Y-101900000D01*
X153411874Y-102064930D01*
X153399306Y-102133658D01*
X153361440Y-102178208D01*
X153294127Y-102227113D01*
X153167466Y-102367785D01*
X153072821Y-102531715D01*
X153072818Y-102531722D01*
X153040166Y-102632216D01*
X153014326Y-102711744D01*
X152994540Y-102900000D01*
X146000000Y-102900000D01*
X146000000Y-101600000D01*
X147894540Y-101600000D01*
X147914326Y-101788256D01*
X147914327Y-101788259D01*
X147972818Y-101968277D01*
X147972821Y-101968284D01*
X148067467Y-102132216D01*
X148152912Y-102227112D01*
X148194129Y-102272888D01*
X148347265Y-102384148D01*
X148347270Y-102384151D01*
X148520192Y-102461142D01*
X148520197Y-102461144D01*
X148705354Y-102500500D01*
X148705355Y-102500500D01*
X148894644Y-102500500D01*
X148894646Y-102500500D01*
X149079803Y-102461144D01*
X149252730Y-102384151D01*
X149405871Y-102272888D01*
X149532533Y-102132216D01*
X149627179Y-101968284D01*
X149685674Y-101788256D01*
X149704009Y-101613802D01*
X149730592Y-101549191D01*
X149787889Y-101509206D01*
X149813446Y-101503547D01*
X149979137Y-101484878D01*
X149979141Y-101484877D01*
X150149305Y-101425334D01*
X150149306Y-101425334D01*
X150163106Y-101416661D01*
X150163106Y-101416660D01*
X150436892Y-101416660D01*
X150436892Y-101416661D01*
X150450692Y-101425333D01*
X150450691Y-101425333D01*
X150620861Y-101484878D01*
X150799997Y-101505062D01*
X150800003Y-101505062D01*
X150979138Y-101484878D01*
X150979141Y-101484877D01*
X151149305Y-101425334D01*
X151149306Y-101425334D01*
X151163106Y-101416661D01*
X151163106Y-101416660D01*
X150800001Y-101053553D01*
X150800000Y-101053553D01*
X150436892Y-101416660D01*
X150163106Y-101416660D01*
X149800000Y-101053553D01*
X149421583Y-100675136D01*
X149675000Y-100675136D01*
X149675000Y-100724864D01*
X149694030Y-100770807D01*
X149729193Y-100805970D01*
X149775136Y-100825000D01*
X149824864Y-100825000D01*
X149870807Y-100805970D01*
X149905970Y-100770807D01*
X149925000Y-100724864D01*
X149925000Y-100699999D01*
X150153553Y-100699999D01*
X150300000Y-100846446D01*
X150446446Y-100700001D01*
X150446446Y-100700000D01*
X150421582Y-100675136D01*
X150675000Y-100675136D01*
X150675000Y-100724864D01*
X150694030Y-100770807D01*
X150729193Y-100805970D01*
X150775136Y-100825000D01*
X150824864Y-100825000D01*
X150870807Y-100805970D01*
X150905970Y-100770807D01*
X150925000Y-100724864D01*
X150925000Y-100700000D01*
X151153553Y-100700000D01*
X151516660Y-101063106D01*
X151516661Y-101063106D01*
X151525334Y-101049306D01*
X151525334Y-101049305D01*
X151584877Y-100879141D01*
X151584878Y-100879138D01*
X151605062Y-100700002D01*
X151605062Y-100699997D01*
X151584878Y-100520861D01*
X151525333Y-100350692D01*
X151516661Y-100336892D01*
X151516660Y-100336892D01*
X151153553Y-100700000D01*
X150925000Y-100700000D01*
X150925000Y-100675136D01*
X150905970Y-100629193D01*
X150870807Y-100594030D01*
X150824864Y-100575000D01*
X150775136Y-100575000D01*
X150729193Y-100594030D01*
X150694030Y-100629193D01*
X150675000Y-100675136D01*
X150421582Y-100675136D01*
X150300000Y-100553553D01*
X150153553Y-100699999D01*
X149925000Y-100699999D01*
X149925000Y-100675136D01*
X149905970Y-100629193D01*
X149870807Y-100594030D01*
X149824864Y-100575000D01*
X149775136Y-100575000D01*
X149729193Y-100594030D01*
X149694030Y-100629193D01*
X149675000Y-100675136D01*
X149421583Y-100675136D01*
X149083338Y-100336891D01*
X149083337Y-100336891D01*
X149074667Y-100350691D01*
X149074662Y-100350701D01*
X149015122Y-100520858D01*
X149015121Y-100520861D01*
X149007401Y-100589384D01*
X148980334Y-100653798D01*
X148922739Y-100693353D01*
X148884181Y-100699500D01*
X148705354Y-100699500D01*
X148672897Y-100706398D01*
X148520197Y-100738855D01*
X148520192Y-100738857D01*
X148347270Y-100815848D01*
X148347265Y-100815851D01*
X148194129Y-100927111D01*
X148067466Y-101067785D01*
X147972821Y-101231715D01*
X147972818Y-101231722D01*
X147914327Y-101411740D01*
X147914326Y-101411744D01*
X147894540Y-101600000D01*
X146000000Y-101600000D01*
X146000000Y-99983337D01*
X149436891Y-99983337D01*
X149436891Y-99983338D01*
X149800000Y-100346446D01*
X149800001Y-100346446D01*
X150163107Y-99983338D01*
X150163105Y-99983337D01*
X150436891Y-99983337D01*
X150436891Y-99983338D01*
X150800000Y-100346446D01*
X150800001Y-100346446D01*
X151163107Y-99983338D01*
X151149304Y-99974665D01*
X150979138Y-99915121D01*
X150800003Y-99894938D01*
X150799997Y-99894938D01*
X150620861Y-99915121D01*
X150620858Y-99915122D01*
X150450701Y-99974662D01*
X150450691Y-99974667D01*
X150436891Y-99983337D01*
X150163105Y-99983337D01*
X150149304Y-99974665D01*
X149979138Y-99915121D01*
X149800003Y-99894938D01*
X149799997Y-99894938D01*
X149620861Y-99915121D01*
X149620858Y-99915122D01*
X149450701Y-99974662D01*
X149450691Y-99974667D01*
X149436891Y-99983337D01*
X146000000Y-99983337D01*
X146000000Y-99477791D01*
X146019685Y-99410752D01*
X146072489Y-99364997D01*
X146141647Y-99355053D01*
X146149754Y-99356495D01*
X146180354Y-99363000D01*
X146180356Y-99363000D01*
X146369644Y-99363000D01*
X146369646Y-99363000D01*
X146554803Y-99323644D01*
X146727730Y-99246651D01*
X146880871Y-99135388D01*
X147007533Y-98994716D01*
X147102179Y-98830784D01*
X147160674Y-98650756D01*
X147180460Y-98462500D01*
X147160674Y-98274244D01*
X147102179Y-98094216D01*
X147007533Y-97930284D01*
X146880871Y-97789612D01*
X146880870Y-97789611D01*
X146727734Y-97678351D01*
X146727729Y-97678348D01*
X146554807Y-97601357D01*
X146554802Y-97601355D01*
X146409001Y-97570365D01*
X146369646Y-97562000D01*
X146180354Y-97562000D01*
X146149778Y-97568498D01*
X146080112Y-97563181D01*
X146024379Y-97521043D01*
X146000275Y-97455463D01*
X146000000Y-97447208D01*
X146000000Y-95582500D01*
X153094540Y-95582500D01*
X153114326Y-95770756D01*
X153114327Y-95770759D01*
X153172818Y-95950777D01*
X153172821Y-95950784D01*
X153267467Y-96114716D01*
X153333683Y-96188256D01*
X153394129Y-96255388D01*
X153547265Y-96366648D01*
X153547270Y-96366651D01*
X153720192Y-96443642D01*
X153720197Y-96443644D01*
X153905354Y-96483000D01*
X153905355Y-96483000D01*
X154094644Y-96483000D01*
X154094646Y-96483000D01*
X154279803Y-96443644D01*
X154452730Y-96366651D01*
X154605871Y-96255388D01*
X154732533Y-96114716D01*
X154827179Y-95950784D01*
X154885674Y-95770756D01*
X154894355Y-95688154D01*
X154920938Y-95623544D01*
X154978235Y-95583558D01*
X154991892Y-95579829D01*
X155079803Y-95561144D01*
X155079806Y-95561142D01*
X155079808Y-95561142D01*
X155145885Y-95531722D01*
X155252730Y-95484151D01*
X155405871Y-95372888D01*
X155532533Y-95232216D01*
X155627179Y-95068284D01*
X155685674Y-94888256D01*
X155696236Y-94787755D01*
X155722820Y-94723142D01*
X155780118Y-94683157D01*
X155793750Y-94679434D01*
X155879803Y-94661144D01*
X155879807Y-94661142D01*
X155879808Y-94661142D01*
X155963229Y-94624000D01*
X156052730Y-94584151D01*
X156205871Y-94472888D01*
X156332533Y-94332216D01*
X156427179Y-94168284D01*
X156485674Y-93988256D01*
X156485674Y-93988248D01*
X156487024Y-93981903D01*
X156488691Y-93982257D01*
X156512062Y-93925437D01*
X156569355Y-93885447D01*
X156583022Y-93881714D01*
X156679803Y-93861144D01*
X156679806Y-93861142D01*
X156679808Y-93861142D01*
X156738058Y-93835206D01*
X156852730Y-93784151D01*
X157005871Y-93672888D01*
X157132533Y-93532216D01*
X157227179Y-93368284D01*
X157285674Y-93188256D01*
X157305460Y-93000000D01*
X157285674Y-92811744D01*
X157227179Y-92631716D01*
X157132533Y-92467784D01*
X157005871Y-92327112D01*
X156954441Y-92289746D01*
X156911777Y-92234417D01*
X156905798Y-92164803D01*
X156938404Y-92103009D01*
X156999243Y-92068651D01*
X157053106Y-92068139D01*
X157205354Y-92100500D01*
X157205361Y-92100500D01*
X157208566Y-92100837D01*
X157210303Y-92101551D01*
X157211711Y-92101851D01*
X157211656Y-92102108D01*
X157273182Y-92127418D01*
X157313169Y-92184714D01*
X157313541Y-92185840D01*
X157372818Y-92368277D01*
X157372821Y-92368284D01*
X157467467Y-92532216D01*
X157557063Y-92631722D01*
X157594129Y-92672888D01*
X157747265Y-92784148D01*
X157747270Y-92784151D01*
X157920192Y-92861142D01*
X157920197Y-92861144D01*
X158105354Y-92900500D01*
X158105355Y-92900500D01*
X158294644Y-92900500D01*
X158294646Y-92900500D01*
X158479803Y-92861144D01*
X158652730Y-92784151D01*
X158805871Y-92672888D01*
X158932533Y-92532216D01*
X159027179Y-92368284D01*
X159085674Y-92188256D01*
X159085674Y-92188248D01*
X159087024Y-92181903D01*
X159088691Y-92182257D01*
X159112062Y-92125437D01*
X159169355Y-92085447D01*
X159183022Y-92081714D01*
X159279803Y-92061144D01*
X159279806Y-92061142D01*
X159279808Y-92061142D01*
X159338085Y-92035195D01*
X159452730Y-91984151D01*
X159572975Y-91896788D01*
X162777259Y-91896788D01*
X162797045Y-92085044D01*
X162797046Y-92085047D01*
X162855537Y-92265065D01*
X162855540Y-92265072D01*
X162950186Y-92429004D01*
X163031836Y-92519685D01*
X163076848Y-92569676D01*
X163229984Y-92680936D01*
X163229989Y-92680939D01*
X163402911Y-92757930D01*
X163402916Y-92757932D01*
X163588073Y-92797288D01*
X163588074Y-92797288D01*
X163777363Y-92797288D01*
X163777365Y-92797288D01*
X163962522Y-92757932D01*
X164135449Y-92680939D01*
X164288590Y-92569676D01*
X164415252Y-92429004D01*
X164509898Y-92265072D01*
X164568393Y-92085044D01*
X164588179Y-91896788D01*
X164568393Y-91708532D01*
X164509898Y-91528504D01*
X164415252Y-91364572D01*
X164288590Y-91223900D01*
X164271859Y-91211744D01*
X164135453Y-91112639D01*
X164135448Y-91112636D01*
X163962526Y-91035645D01*
X163962521Y-91035643D01*
X163816720Y-91004653D01*
X163777365Y-90996288D01*
X163588073Y-90996288D01*
X163555616Y-91003186D01*
X163402916Y-91035643D01*
X163402911Y-91035645D01*
X163229989Y-91112636D01*
X163229984Y-91112639D01*
X163076848Y-91223899D01*
X162950185Y-91364573D01*
X162855540Y-91528503D01*
X162855537Y-91528510D01*
X162806852Y-91678348D01*
X162797045Y-91708532D01*
X162777259Y-91896788D01*
X159572975Y-91896788D01*
X159605871Y-91872888D01*
X159732533Y-91732216D01*
X159827179Y-91568284D01*
X159885674Y-91388256D01*
X159905460Y-91200000D01*
X159885674Y-91011744D01*
X159827179Y-90831716D01*
X159732533Y-90667784D01*
X159605871Y-90527112D01*
X159605870Y-90527111D01*
X159452734Y-90415851D01*
X159452729Y-90415848D01*
X159279807Y-90338857D01*
X159279802Y-90338855D01*
X159134001Y-90307865D01*
X159094646Y-90299500D01*
X158905354Y-90299500D01*
X158872897Y-90306398D01*
X158720197Y-90338855D01*
X158720192Y-90338857D01*
X158547270Y-90415848D01*
X158547265Y-90415851D01*
X158394129Y-90527111D01*
X158267467Y-90667783D01*
X158257387Y-90685243D01*
X158206819Y-90733458D01*
X158138212Y-90746680D01*
X158073347Y-90720712D01*
X158042613Y-90685243D01*
X158035480Y-90672888D01*
X158032533Y-90667784D01*
X157905871Y-90527112D01*
X157905870Y-90527111D01*
X157752734Y-90415851D01*
X157752729Y-90415848D01*
X157579807Y-90338857D01*
X157579802Y-90338855D01*
X157434001Y-90307865D01*
X157394646Y-90299500D01*
X157205354Y-90299500D01*
X157172897Y-90306398D01*
X157020197Y-90338855D01*
X157020192Y-90338857D01*
X156847270Y-90415848D01*
X156847265Y-90415851D01*
X156694129Y-90527111D01*
X156567466Y-90667785D01*
X156472821Y-90831715D01*
X156472818Y-90831722D01*
X156421244Y-90990452D01*
X156414326Y-91011744D01*
X156394540Y-91200000D01*
X156414326Y-91388256D01*
X156414327Y-91388259D01*
X156472818Y-91568277D01*
X156472821Y-91568284D01*
X156567467Y-91732216D01*
X156661784Y-91836965D01*
X156694129Y-91872888D01*
X156745556Y-91910252D01*
X156788222Y-91965582D01*
X156794201Y-92035195D01*
X156761595Y-92096990D01*
X156700757Y-92131347D01*
X156646890Y-92131860D01*
X156552231Y-92111740D01*
X156494646Y-92099500D01*
X156305354Y-92099500D01*
X156272897Y-92106398D01*
X156120197Y-92138855D01*
X156120192Y-92138857D01*
X155947270Y-92215848D01*
X155947265Y-92215851D01*
X155794129Y-92327111D01*
X155667466Y-92467785D01*
X155572821Y-92631715D01*
X155572818Y-92631722D01*
X155514327Y-92811739D01*
X155512976Y-92818098D01*
X155511312Y-92817744D01*
X155487919Y-92874583D01*
X155430616Y-92914560D01*
X155416975Y-92918284D01*
X155320196Y-92938856D01*
X155320192Y-92938857D01*
X155147270Y-93015848D01*
X155147265Y-93015851D01*
X154994129Y-93127111D01*
X154867466Y-93267785D01*
X154772821Y-93431715D01*
X154772818Y-93431722D01*
X154740166Y-93532216D01*
X154714326Y-93611744D01*
X154704327Y-93706881D01*
X154703764Y-93712242D01*
X154677179Y-93776856D01*
X154619882Y-93816841D01*
X154606224Y-93820570D01*
X154520197Y-93838855D01*
X154520192Y-93838857D01*
X154347270Y-93915848D01*
X154347265Y-93915851D01*
X154194129Y-94027111D01*
X154067466Y-94167785D01*
X153972821Y-94331715D01*
X153972818Y-94331722D01*
X153914327Y-94511739D01*
X153914326Y-94511741D01*
X153905644Y-94594343D01*
X153879058Y-94658958D01*
X153821760Y-94698941D01*
X153808105Y-94702670D01*
X153720196Y-94721356D01*
X153720192Y-94721357D01*
X153547270Y-94798348D01*
X153547265Y-94798351D01*
X153394129Y-94909611D01*
X153267466Y-95050285D01*
X153172821Y-95214215D01*
X153172818Y-95214222D01*
X153121265Y-95372888D01*
X153114326Y-95394244D01*
X153094540Y-95582500D01*
X146000000Y-95582500D01*
X146000000Y-93443726D01*
X146019685Y-93376687D01*
X146072489Y-93330932D01*
X146131357Y-93321323D01*
X146131357Y-93320500D01*
X146136404Y-93320500D01*
X146136974Y-93320407D01*
X146137854Y-93320499D01*
X146137856Y-93320500D01*
X146137858Y-93320500D01*
X146327146Y-93320500D01*
X146327148Y-93320500D01*
X146512305Y-93281144D01*
X146685232Y-93204151D01*
X146838373Y-93092888D01*
X146965035Y-92952216D01*
X147059681Y-92788284D01*
X147118176Y-92608256D01*
X147137962Y-92420000D01*
X147118176Y-92231744D01*
X147059681Y-92051716D01*
X146965035Y-91887784D01*
X146838373Y-91747112D01*
X146838372Y-91747111D01*
X146685236Y-91635851D01*
X146685231Y-91635848D01*
X146512309Y-91558857D01*
X146512304Y-91558855D01*
X146366503Y-91527865D01*
X146327148Y-91519500D01*
X146137856Y-91519500D01*
X146105399Y-91526398D01*
X145952699Y-91558855D01*
X145878903Y-91591712D01*
X145809653Y-91600996D01*
X145746377Y-91571368D01*
X145709164Y-91512233D01*
X145705148Y-91465465D01*
X145705460Y-91462500D01*
X145685674Y-91274244D01*
X145627179Y-91094216D01*
X145549658Y-90959946D01*
X145533186Y-90892048D01*
X145549659Y-90835949D01*
X145577179Y-90788284D01*
X145635674Y-90608256D01*
X145655460Y-90420000D01*
X145635674Y-90231744D01*
X145577179Y-90051716D01*
X145482533Y-89887784D01*
X145355871Y-89747112D01*
X145300816Y-89707112D01*
X145202734Y-89635851D01*
X145202729Y-89635848D01*
X145029807Y-89558857D01*
X145029802Y-89558855D01*
X144884001Y-89527865D01*
X144844646Y-89519500D01*
X144655354Y-89519500D01*
X144622897Y-89526398D01*
X144470197Y-89558855D01*
X144470192Y-89558857D01*
X144297270Y-89635848D01*
X144297265Y-89635851D01*
X144144129Y-89747111D01*
X144017466Y-89887785D01*
X143922821Y-90051715D01*
X143922818Y-90051722D01*
X143864327Y-90231740D01*
X143864326Y-90231744D01*
X143844540Y-90420000D01*
X143864326Y-90608256D01*
X143864327Y-90608259D01*
X143922818Y-90788277D01*
X143922820Y-90788281D01*
X143922821Y-90788284D01*
X143968327Y-90867103D01*
X144000340Y-90922552D01*
X144016812Y-90990452D01*
X144000340Y-91046550D01*
X143972820Y-91094216D01*
X143922317Y-91249649D01*
X143914326Y-91274244D01*
X143894540Y-91462500D01*
X143914326Y-91650756D01*
X143914327Y-91650759D01*
X143974829Y-91836965D01*
X143972147Y-91837836D01*
X143979776Y-91894847D01*
X143950131Y-91958116D01*
X143890986Y-91995313D01*
X143857217Y-92000000D01*
X137042783Y-92000000D01*
X136975744Y-91980315D01*
X136929989Y-91927511D01*
X136920045Y-91858353D01*
X136926122Y-91837274D01*
X136925171Y-91836965D01*
X136946822Y-91770329D01*
X136985674Y-91650756D01*
X137005460Y-91462500D01*
X136985674Y-91274244D01*
X136927179Y-91094216D01*
X136849658Y-90959946D01*
X136833186Y-90892048D01*
X136849659Y-90835949D01*
X136877179Y-90788284D01*
X136935674Y-90608256D01*
X136955460Y-90420000D01*
X136935674Y-90231744D01*
X136877179Y-90051716D01*
X136782533Y-89887784D01*
X136655871Y-89747112D01*
X136600816Y-89707112D01*
X136502734Y-89635851D01*
X136502729Y-89635848D01*
X136329807Y-89558857D01*
X136329802Y-89558855D01*
X136184001Y-89527865D01*
X136144646Y-89519500D01*
X135955354Y-89519500D01*
X135922897Y-89526398D01*
X135770197Y-89558855D01*
X135770192Y-89558857D01*
X135597270Y-89635848D01*
X135597265Y-89635851D01*
X135444129Y-89747111D01*
X135317466Y-89887785D01*
X135222821Y-90051715D01*
X135222818Y-90051722D01*
X135164327Y-90231740D01*
X135164326Y-90231744D01*
X135144540Y-90420000D01*
X135164326Y-90608256D01*
X135164327Y-90608259D01*
X135222818Y-90788277D01*
X135222820Y-90788281D01*
X135222821Y-90788284D01*
X135268327Y-90867103D01*
X135300340Y-90922552D01*
X135316812Y-90990452D01*
X135300340Y-91046550D01*
X135272820Y-91094216D01*
X135222317Y-91249649D01*
X135214326Y-91274244D01*
X135194540Y-91462500D01*
X135214326Y-91650756D01*
X135214327Y-91650759D01*
X135274829Y-91836965D01*
X135272147Y-91837836D01*
X135279776Y-91894847D01*
X135250131Y-91958116D01*
X135190986Y-91995313D01*
X135157217Y-92000000D01*
X129000000Y-92000000D01*
X129000000Y-92500000D01*
X144876000Y-92500000D01*
X144943039Y-92519685D01*
X144988794Y-92572489D01*
X145000000Y-92624000D01*
X145000000Y-94138000D01*
X144980315Y-94205039D01*
X144927511Y-94250794D01*
X144876000Y-94262000D01*
X144805354Y-94262000D01*
X144772897Y-94268898D01*
X144620197Y-94301355D01*
X144620192Y-94301357D01*
X144447270Y-94378348D01*
X144447265Y-94378351D01*
X144294129Y-94489611D01*
X144167466Y-94630285D01*
X144072821Y-94794215D01*
X144072818Y-94794222D01*
X144014327Y-94974240D01*
X144014326Y-94974244D01*
X143994540Y-95162500D01*
X144014326Y-95350756D01*
X144014327Y-95350759D01*
X144072818Y-95530777D01*
X144072821Y-95530784D01*
X144131097Y-95631722D01*
X144141939Y-95650500D01*
X144158412Y-95718400D01*
X144141939Y-95774500D01*
X144072821Y-95894215D01*
X144072818Y-95894222D01*
X144014327Y-96074240D01*
X144014326Y-96074244D01*
X143994540Y-96262500D01*
X144014326Y-96450756D01*
X144014327Y-96450759D01*
X144072818Y-96630777D01*
X144072821Y-96630784D01*
X144141939Y-96750500D01*
X144158412Y-96818400D01*
X144141939Y-96874500D01*
X144072821Y-96994215D01*
X144072818Y-96994222D01*
X144027395Y-97134022D01*
X144014326Y-97174244D01*
X143994540Y-97362500D01*
X144014326Y-97550756D01*
X144014327Y-97550759D01*
X144072818Y-97730777D01*
X144072821Y-97730784D01*
X144167467Y-97894716D01*
X144199493Y-97930284D01*
X144294129Y-98035388D01*
X144447265Y-98146648D01*
X144447270Y-98146651D01*
X144620192Y-98223642D01*
X144620197Y-98223644D01*
X144805354Y-98263000D01*
X144805355Y-98263000D01*
X144876000Y-98263000D01*
X144943039Y-98282685D01*
X144988794Y-98335489D01*
X145000000Y-98387000D01*
X145000000Y-103384082D01*
X144980315Y-103451121D01*
X144927511Y-103496876D01*
X144867414Y-103507784D01*
X144858860Y-103507190D01*
X144250000Y-104116051D01*
X144250000Y-104109839D01*
X144222741Y-104008106D01*
X144170080Y-103916894D01*
X144095606Y-103842420D01*
X144004394Y-103789759D01*
X143902661Y-103762500D01*
X143896448Y-103762500D01*
X144503327Y-103155619D01*
X144387178Y-103083702D01*
X144387177Y-103083701D01*
X144179804Y-103003365D01*
X143961193Y-102962500D01*
X143738807Y-102962500D01*
X143520195Y-103003365D01*
X143312824Y-103083700D01*
X143312823Y-103083701D01*
X143196671Y-103155619D01*
X143803553Y-103762500D01*
X143797339Y-103762500D01*
X143695606Y-103789759D01*
X143604394Y-103842420D01*
X143529920Y-103916894D01*
X143477259Y-104008106D01*
X143450000Y-104109839D01*
X143450000Y-104116053D01*
X142841138Y-103507191D01*
X142841137Y-103507191D01*
X142825368Y-103528074D01*
X142726239Y-103727151D01*
X142726237Y-103727155D01*
X142699525Y-103821040D01*
X142662246Y-103880133D01*
X142598936Y-103909690D01*
X142529697Y-103900328D01*
X142476510Y-103855018D01*
X142460994Y-103821041D01*
X142434229Y-103726972D01*
X142434224Y-103726961D01*
X142335061Y-103527816D01*
X142335056Y-103527808D01*
X142200979Y-103350261D01*
X142036562Y-103200376D01*
X142036560Y-103200374D01*
X141847404Y-103083254D01*
X141847398Y-103083252D01*
X141639940Y-103002882D01*
X141421243Y-102962000D01*
X141198757Y-102962000D01*
X140980060Y-103002882D01*
X140848864Y-103053707D01*
X140772601Y-103083252D01*
X140772595Y-103083254D01*
X140583439Y-103200374D01*
X140583437Y-103200376D01*
X140419020Y-103350261D01*
X140284943Y-103527808D01*
X140284938Y-103527816D01*
X140185775Y-103726961D01*
X140185769Y-103726976D01*
X140124885Y-103940962D01*
X140124884Y-103940964D01*
X140104357Y-104162499D01*
X140104357Y-104162500D01*
X140124884Y-104384035D01*
X140124885Y-104384037D01*
X140185769Y-104598023D01*
X140185775Y-104598038D01*
X140284938Y-104797183D01*
X140284943Y-104797191D01*
X140419020Y-104974738D01*
X140583437Y-105124623D01*
X140583439Y-105124625D01*
X140772595Y-105241745D01*
X140772596Y-105241745D01*
X140772599Y-105241747D01*
X140980060Y-105322118D01*
X141198757Y-105363000D01*
X141198759Y-105363000D01*
X141421240Y-105363000D01*
X141421243Y-105363000D01*
X141500140Y-105348251D01*
X141569652Y-105355282D01*
X141624331Y-105398779D01*
X141646814Y-105464933D01*
X141630311Y-105532139D01*
X141572820Y-105631718D01*
X141572818Y-105631722D01*
X141514327Y-105811740D01*
X141514326Y-105811744D01*
X141494540Y-106000000D01*
X141514326Y-106188256D01*
X141514327Y-106188259D01*
X141572818Y-106368277D01*
X141572821Y-106368284D01*
X141667467Y-106532216D01*
X141794129Y-106672888D01*
X141947265Y-106784148D01*
X141947270Y-106784151D01*
X142120192Y-106861142D01*
X142120197Y-106861144D01*
X142305354Y-106900500D01*
X142305355Y-106900500D01*
X142494644Y-106900500D01*
X142494646Y-106900500D01*
X142679803Y-106861144D01*
X142852730Y-106784151D01*
X143005871Y-106672888D01*
X143132533Y-106532216D01*
X143227179Y-106368284D01*
X143285674Y-106188256D01*
X143305460Y-106000000D01*
X143285674Y-105811744D01*
X143227179Y-105631716D01*
X143132533Y-105467784D01*
X143032333Y-105356501D01*
X143026226Y-105349718D01*
X143017713Y-105331981D01*
X143008614Y-105329037D01*
X143005592Y-105326909D01*
X142852734Y-105215851D01*
X142852729Y-105215848D01*
X142679807Y-105138857D01*
X142679802Y-105138855D01*
X142534001Y-105107865D01*
X142494646Y-105099500D01*
X142355789Y-105099500D01*
X142288750Y-105079815D01*
X142242995Y-105027011D01*
X142233051Y-104957853D01*
X142256835Y-104900773D01*
X142309688Y-104830784D01*
X142335058Y-104797189D01*
X142434229Y-104598028D01*
X142460995Y-104503955D01*
X142498272Y-104444867D01*
X142561581Y-104415309D01*
X142630821Y-104424671D01*
X142684007Y-104469980D01*
X142699525Y-104503960D01*
X142726236Y-104597842D01*
X142726239Y-104597848D01*
X142825369Y-104796928D01*
X142841137Y-104817808D01*
X142841138Y-104817808D01*
X143450000Y-104208946D01*
X143450000Y-104215161D01*
X143477259Y-104316894D01*
X143529920Y-104408106D01*
X143604394Y-104482580D01*
X143695606Y-104535241D01*
X143797339Y-104562500D01*
X143803553Y-104562500D01*
X143196672Y-105169379D01*
X143312818Y-105241296D01*
X143312822Y-105241298D01*
X143520195Y-105321634D01*
X143738807Y-105362500D01*
X143961193Y-105362500D01*
X144179809Y-105321633D01*
X144387168Y-105241301D01*
X144387181Y-105241295D01*
X144503326Y-105169379D01*
X143896448Y-104562500D01*
X143902661Y-104562500D01*
X144004394Y-104535241D01*
X144095606Y-104482580D01*
X144170080Y-104408106D01*
X144222741Y-104316894D01*
X144250000Y-104215161D01*
X144250000Y-104208947D01*
X144858860Y-104817807D01*
X144867414Y-104817214D01*
X144935655Y-104832209D01*
X144984957Y-104881718D01*
X145000000Y-104940916D01*
X145000000Y-110376000D01*
X144980315Y-110443039D01*
X144927511Y-110488794D01*
X144876000Y-110500000D01*
X144865415Y-110500000D01*
X144814979Y-110489279D01*
X144729807Y-110451357D01*
X144729802Y-110451355D01*
X144552079Y-110413580D01*
X144544646Y-110412000D01*
X144355354Y-110412000D01*
X144347921Y-110413580D01*
X144170197Y-110451355D01*
X144170192Y-110451357D01*
X144085021Y-110489279D01*
X144034585Y-110500000D01*
X141208172Y-110500000D01*
X141141133Y-110480315D01*
X141095378Y-110427511D01*
X141085434Y-110358353D01*
X141100784Y-110314001D01*
X141102087Y-110311744D01*
X141127179Y-110268284D01*
X141185674Y-110088256D01*
X141205460Y-109900000D01*
X141185674Y-109711744D01*
X141128719Y-109536455D01*
X141127181Y-109531722D01*
X141127180Y-109531721D01*
X141127179Y-109531716D01*
X141032533Y-109367784D01*
X140905871Y-109227112D01*
X140905870Y-109227111D01*
X140752734Y-109115851D01*
X140752729Y-109115848D01*
X140579807Y-109038857D01*
X140579802Y-109038855D01*
X140434001Y-109007865D01*
X140394646Y-108999500D01*
X140205354Y-108999500D01*
X140172897Y-109006398D01*
X140020197Y-109038855D01*
X140020192Y-109038857D01*
X139847270Y-109115848D01*
X139847265Y-109115851D01*
X139694129Y-109227111D01*
X139567466Y-109367785D01*
X139472821Y-109531715D01*
X139472818Y-109531722D01*
X139422203Y-109687500D01*
X139414326Y-109711744D01*
X139394540Y-109900000D01*
X139414326Y-110088256D01*
X139414327Y-110088259D01*
X139472818Y-110268277D01*
X139472819Y-110268279D01*
X139472821Y-110268284D01*
X139474432Y-110271076D01*
X139474873Y-110272893D01*
X139475462Y-110274214D01*
X139475220Y-110274321D01*
X139490906Y-110338972D01*
X139468055Y-110404999D01*
X139413135Y-110448191D01*
X139343582Y-110454835D01*
X139331389Y-110451693D01*
X139267008Y-110438008D01*
X139144646Y-110412000D01*
X138955354Y-110412000D01*
X138947921Y-110413580D01*
X138770197Y-110451355D01*
X138770192Y-110451357D01*
X138685021Y-110489279D01*
X138634585Y-110500000D01*
X133465415Y-110500000D01*
X133414979Y-110489279D01*
X133329807Y-110451357D01*
X133329802Y-110451355D01*
X133152079Y-110413580D01*
X133144646Y-110412000D01*
X132955354Y-110412000D01*
X132947921Y-110413580D01*
X132770197Y-110451355D01*
X132770192Y-110451357D01*
X132685021Y-110489279D01*
X132634585Y-110500000D01*
X132108172Y-110500000D01*
X132041133Y-110480315D01*
X131995378Y-110427511D01*
X131985434Y-110358353D01*
X132000784Y-110314001D01*
X132002087Y-110311744D01*
X132027179Y-110268284D01*
X132085674Y-110088256D01*
X132105460Y-109900000D01*
X132085674Y-109711744D01*
X132028719Y-109536455D01*
X132027181Y-109531722D01*
X132027180Y-109531721D01*
X132027179Y-109531716D01*
X131932533Y-109367784D01*
X131805871Y-109227112D01*
X131805870Y-109227111D01*
X131652734Y-109115851D01*
X131652729Y-109115848D01*
X131479807Y-109038857D01*
X131479802Y-109038855D01*
X131334001Y-109007865D01*
X131294646Y-108999500D01*
X131105354Y-108999500D01*
X131072897Y-109006398D01*
X130920197Y-109038855D01*
X130920192Y-109038857D01*
X130747270Y-109115848D01*
X130747265Y-109115851D01*
X130594129Y-109227111D01*
X130467466Y-109367785D01*
X130372821Y-109531715D01*
X130372818Y-109531722D01*
X130322203Y-109687500D01*
X130314326Y-109711744D01*
X130294540Y-109900000D01*
X130314326Y-110088256D01*
X130314327Y-110088259D01*
X130372818Y-110268277D01*
X130372820Y-110268281D01*
X130372821Y-110268284D01*
X130397913Y-110311744D01*
X130399216Y-110314001D01*
X130415688Y-110381901D01*
X130392835Y-110447928D01*
X130337913Y-110491118D01*
X130291828Y-110500000D01*
X127381190Y-110500000D01*
X127336129Y-110490422D01*
X127335986Y-110490865D01*
X127331779Y-110489498D01*
X127330758Y-110489281D01*
X127329803Y-110488856D01*
X127329801Y-110488855D01*
X127154963Y-110451693D01*
X127144646Y-110449500D01*
X126955354Y-110449500D01*
X126945037Y-110451693D01*
X126770198Y-110488855D01*
X126770197Y-110488855D01*
X126769431Y-110489196D01*
X126769241Y-110489281D01*
X126768220Y-110489498D01*
X126764014Y-110490865D01*
X126763870Y-110490422D01*
X126718810Y-110500000D01*
X123008172Y-110500000D01*
X122941133Y-110480315D01*
X122895378Y-110427511D01*
X122885434Y-110358353D01*
X122900784Y-110314001D01*
X122902087Y-110311744D01*
X122927179Y-110268284D01*
X122985674Y-110088256D01*
X123005460Y-109900000D01*
X122985674Y-109711744D01*
X122928719Y-109536455D01*
X122927181Y-109531722D01*
X122927180Y-109531721D01*
X122927179Y-109531716D01*
X122832533Y-109367784D01*
X122705871Y-109227112D01*
X122705870Y-109227111D01*
X122552734Y-109115851D01*
X122552729Y-109115848D01*
X122379807Y-109038857D01*
X122379802Y-109038855D01*
X122234001Y-109007865D01*
X122194646Y-108999500D01*
X122005354Y-108999500D01*
X121972897Y-109006398D01*
X121820197Y-109038855D01*
X121820192Y-109038857D01*
X121647270Y-109115848D01*
X121647265Y-109115851D01*
X121494129Y-109227111D01*
X121367466Y-109367785D01*
X121272821Y-109531715D01*
X121272818Y-109531722D01*
X121222203Y-109687500D01*
X121214326Y-109711744D01*
X121194540Y-109900000D01*
X121214326Y-110088256D01*
X121214327Y-110088259D01*
X121266777Y-110249682D01*
X121268772Y-110319523D01*
X121232692Y-110379356D01*
X121169991Y-110410184D01*
X121148846Y-110412000D01*
X121144646Y-110412000D01*
X120955354Y-110412000D01*
X120947921Y-110413580D01*
X120770197Y-110451355D01*
X120770192Y-110451357D01*
X120685021Y-110489279D01*
X120634585Y-110500000D01*
X115465415Y-110500000D01*
X115414979Y-110489279D01*
X115329807Y-110451357D01*
X115329802Y-110451355D01*
X115152079Y-110413580D01*
X115144646Y-110412000D01*
X114955354Y-110412000D01*
X114947921Y-110413580D01*
X114770197Y-110451355D01*
X114770192Y-110451357D01*
X114685021Y-110489279D01*
X114634585Y-110500000D01*
X112617110Y-110500000D01*
X112550071Y-110480315D01*
X112504316Y-110427511D01*
X112493790Y-110388964D01*
X112485674Y-110311744D01*
X112427179Y-110131716D01*
X112332533Y-109967784D01*
X112205871Y-109827112D01*
X112187904Y-109814058D01*
X112052734Y-109715851D01*
X112052729Y-109715848D01*
X111879807Y-109638857D01*
X111879802Y-109638855D01*
X111734001Y-109607865D01*
X111694646Y-109599500D01*
X111505354Y-109599500D01*
X111472897Y-109606398D01*
X111320197Y-109638855D01*
X111320192Y-109638857D01*
X111147270Y-109715848D01*
X111147265Y-109715851D01*
X110994129Y-109827111D01*
X110867466Y-109967785D01*
X110772821Y-110131715D01*
X110772818Y-110131722D01*
X110719832Y-110294797D01*
X110714326Y-110311744D01*
X110706210Y-110388963D01*
X110679627Y-110453576D01*
X110622329Y-110493561D01*
X110582890Y-110500000D01*
X110065415Y-110500000D01*
X110014979Y-110489279D01*
X109929807Y-110451357D01*
X109929802Y-110451355D01*
X109752079Y-110413580D01*
X109744646Y-110412000D01*
X109555354Y-110412000D01*
X109547921Y-110413580D01*
X109370197Y-110451355D01*
X109370192Y-110451357D01*
X109285021Y-110489279D01*
X109234585Y-110500000D01*
X108583672Y-110500000D01*
X108516633Y-110480315D01*
X108470878Y-110427511D01*
X108460934Y-110358353D01*
X108489959Y-110294797D01*
X108491456Y-110293101D01*
X108557533Y-110219716D01*
X108652179Y-110055784D01*
X108710674Y-109875756D01*
X108730460Y-109687500D01*
X108710674Y-109499244D01*
X108652179Y-109319216D01*
X108557533Y-109155284D01*
X108430871Y-109014612D01*
X108426918Y-109011740D01*
X108277734Y-108903351D01*
X108277729Y-108903348D01*
X108104807Y-108826357D01*
X108104802Y-108826355D01*
X107959001Y-108795365D01*
X107919646Y-108787000D01*
X107730354Y-108787000D01*
X107699778Y-108793499D01*
X107545197Y-108826355D01*
X107545192Y-108826357D01*
X107372270Y-108903348D01*
X107372265Y-108903351D01*
X107219129Y-109014611D01*
X107219128Y-109014612D01*
X107191975Y-109044769D01*
X107132488Y-109081417D01*
X107062631Y-109080086D01*
X107004583Y-109041199D01*
X106981895Y-109000114D01*
X106927181Y-108831721D01*
X106927178Y-108831715D01*
X106924084Y-108826356D01*
X106832533Y-108667784D01*
X106705871Y-108527112D01*
X106705870Y-108527111D01*
X106552734Y-108415851D01*
X106552729Y-108415848D01*
X106379807Y-108338857D01*
X106379802Y-108338855D01*
X106234001Y-108307865D01*
X106194646Y-108299500D01*
X106005354Y-108299500D01*
X105972897Y-108306398D01*
X105820197Y-108338855D01*
X105820192Y-108338857D01*
X105647270Y-108415848D01*
X105647265Y-108415851D01*
X105494129Y-108527111D01*
X105367466Y-108667785D01*
X105272821Y-108831715D01*
X105272818Y-108831722D01*
X105214327Y-109011740D01*
X105214326Y-109011744D01*
X105194540Y-109200000D01*
X105214326Y-109388256D01*
X105214327Y-109388259D01*
X105272818Y-109568277D01*
X105272821Y-109568284D01*
X105367467Y-109732216D01*
X105470186Y-109846297D01*
X105494129Y-109872888D01*
X105647265Y-109984148D01*
X105647270Y-109984151D01*
X105820192Y-110061142D01*
X105820197Y-110061144D01*
X106005354Y-110100500D01*
X106005355Y-110100500D01*
X106194644Y-110100500D01*
X106194646Y-110100500D01*
X106379803Y-110061144D01*
X106552730Y-109984151D01*
X106705871Y-109872888D01*
X106733024Y-109842730D01*
X106792507Y-109806083D01*
X106862364Y-109807412D01*
X106920413Y-109846297D01*
X106943104Y-109887385D01*
X106997818Y-110055777D01*
X106997821Y-110055784D01*
X107092464Y-110219712D01*
X107092465Y-110219714D01*
X107092467Y-110219716D01*
X107158479Y-110293030D01*
X107188708Y-110356019D01*
X107180083Y-110425354D01*
X107135342Y-110479020D01*
X107068689Y-110499978D01*
X107066328Y-110500000D01*
X106500000Y-110500000D01*
X106500000Y-113376000D01*
X106480315Y-113443039D01*
X106427511Y-113488794D01*
X106376000Y-113500000D01*
X104051362Y-113500000D01*
X103984323Y-113480315D01*
X103963681Y-113463681D01*
X101536319Y-111036319D01*
X101502834Y-110974996D01*
X101500000Y-110948638D01*
X101500000Y-104462500D01*
X106919540Y-104462500D01*
X106939326Y-104650756D01*
X106939327Y-104650759D01*
X106997818Y-104830777D01*
X106997821Y-104830784D01*
X107092467Y-104994716D01*
X107169091Y-105079815D01*
X107219129Y-105135388D01*
X107372265Y-105246648D01*
X107372270Y-105246651D01*
X107545192Y-105323642D01*
X107545197Y-105323644D01*
X107730354Y-105363000D01*
X107730355Y-105363000D01*
X107919644Y-105363000D01*
X107919646Y-105363000D01*
X108104803Y-105323644D01*
X108277730Y-105246651D01*
X108430871Y-105135388D01*
X108557533Y-104994716D01*
X108652179Y-104830784D01*
X108710674Y-104650756D01*
X108730460Y-104462500D01*
X108710674Y-104274244D01*
X108674366Y-104162499D01*
X112854357Y-104162499D01*
X112854357Y-104162500D01*
X112874884Y-104384035D01*
X112874885Y-104384037D01*
X112935769Y-104598023D01*
X112935775Y-104598038D01*
X113034938Y-104797183D01*
X113034943Y-104797191D01*
X113169020Y-104974738D01*
X113333437Y-105124623D01*
X113333439Y-105124625D01*
X113522595Y-105241745D01*
X113522596Y-105241745D01*
X113522599Y-105241747D01*
X113730060Y-105322118D01*
X113948757Y-105363000D01*
X113948759Y-105363000D01*
X114171240Y-105363000D01*
X114171243Y-105363000D01*
X114306191Y-105337773D01*
X114375702Y-105344804D01*
X114430381Y-105388301D01*
X114452864Y-105454455D01*
X114436361Y-105521661D01*
X114372820Y-105631718D01*
X114372818Y-105631722D01*
X114314327Y-105811740D01*
X114314326Y-105811744D01*
X114294540Y-106000000D01*
X114314326Y-106188256D01*
X114314327Y-106188259D01*
X114372818Y-106368277D01*
X114372821Y-106368284D01*
X114467467Y-106532216D01*
X114594129Y-106672888D01*
X114747265Y-106784148D01*
X114747270Y-106784151D01*
X114920192Y-106861142D01*
X114920197Y-106861144D01*
X115105354Y-106900500D01*
X115105355Y-106900500D01*
X115294644Y-106900500D01*
X115294646Y-106900500D01*
X115479803Y-106861144D01*
X115652730Y-106784151D01*
X115805871Y-106672888D01*
X115932533Y-106532216D01*
X116027179Y-106368284D01*
X116085674Y-106188256D01*
X116105460Y-106000000D01*
X116085674Y-105811744D01*
X116027179Y-105631716D01*
X115953716Y-105504474D01*
X115932535Y-105467787D01*
X115932534Y-105467786D01*
X115932533Y-105467784D01*
X115889222Y-105419683D01*
X115858994Y-105356694D01*
X115866195Y-105298798D01*
X115820488Y-105310874D01*
X115754012Y-105289366D01*
X115750990Y-105287238D01*
X115652734Y-105215851D01*
X115652729Y-105215848D01*
X115479807Y-105138857D01*
X115479802Y-105138855D01*
X115334001Y-105107865D01*
X115294646Y-105099500D01*
X115105789Y-105099500D01*
X115038750Y-105079815D01*
X114992995Y-105027011D01*
X114983051Y-104957853D01*
X115006835Y-104900773D01*
X115059688Y-104830784D01*
X115085058Y-104797189D01*
X115184229Y-104598028D01*
X115210995Y-104503955D01*
X115248272Y-104444867D01*
X115311581Y-104415309D01*
X115380821Y-104424671D01*
X115434007Y-104469980D01*
X115449525Y-104503960D01*
X115476236Y-104597842D01*
X115476239Y-104597848D01*
X115575369Y-104796928D01*
X115591137Y-104817808D01*
X115591138Y-104817808D01*
X116200000Y-104208946D01*
X116200000Y-104215161D01*
X116227259Y-104316894D01*
X116279920Y-104408106D01*
X116354394Y-104482580D01*
X116445606Y-104535241D01*
X116547339Y-104562500D01*
X116553553Y-104562500D01*
X115946671Y-105169380D01*
X115947049Y-105172632D01*
X115937941Y-105225649D01*
X115979013Y-105212735D01*
X116046415Y-105231140D01*
X116046652Y-105231286D01*
X116062821Y-105241297D01*
X116062822Y-105241298D01*
X116270195Y-105321634D01*
X116488807Y-105362500D01*
X116711193Y-105362500D01*
X116929809Y-105321633D01*
X117137168Y-105241301D01*
X117137181Y-105241295D01*
X117253326Y-105169379D01*
X116646448Y-104562500D01*
X116652661Y-104562500D01*
X116754394Y-104535241D01*
X116845606Y-104482580D01*
X116920080Y-104408106D01*
X116972741Y-104316894D01*
X117000000Y-104215161D01*
X117000000Y-104208947D01*
X117608861Y-104817808D01*
X117624631Y-104796925D01*
X117624633Y-104796922D01*
X117723759Y-104597850D01*
X117784621Y-104383939D01*
X117805141Y-104162500D01*
X117805141Y-104162499D01*
X121904357Y-104162499D01*
X121904357Y-104162500D01*
X121924884Y-104384035D01*
X121924885Y-104384037D01*
X121985769Y-104598023D01*
X121985775Y-104598038D01*
X122084938Y-104797183D01*
X122084943Y-104797191D01*
X122219020Y-104974738D01*
X122383437Y-105124623D01*
X122383439Y-105124625D01*
X122572595Y-105241745D01*
X122572596Y-105241745D01*
X122572599Y-105241747D01*
X122780060Y-105322118D01*
X122998757Y-105363000D01*
X122998759Y-105363000D01*
X123221240Y-105363000D01*
X123221243Y-105363000D01*
X123300140Y-105348251D01*
X123369652Y-105355282D01*
X123424331Y-105398779D01*
X123446814Y-105464933D01*
X123430311Y-105532139D01*
X123372820Y-105631718D01*
X123372818Y-105631722D01*
X123314327Y-105811740D01*
X123314326Y-105811744D01*
X123294540Y-106000000D01*
X123314326Y-106188256D01*
X123314327Y-106188259D01*
X123372818Y-106368277D01*
X123372821Y-106368284D01*
X123467467Y-106532216D01*
X123594129Y-106672888D01*
X123747265Y-106784148D01*
X123747270Y-106784151D01*
X123920192Y-106861142D01*
X123920197Y-106861144D01*
X124105354Y-106900500D01*
X124105355Y-106900500D01*
X124294644Y-106900500D01*
X124294646Y-106900500D01*
X124479803Y-106861144D01*
X124652730Y-106784151D01*
X124805871Y-106672888D01*
X124932533Y-106532216D01*
X125027179Y-106368284D01*
X125085674Y-106188256D01*
X125105460Y-106000000D01*
X125085674Y-105811744D01*
X125027179Y-105631716D01*
X124932533Y-105467784D01*
X124832333Y-105356501D01*
X124826226Y-105349718D01*
X124817713Y-105331981D01*
X124808614Y-105329037D01*
X124805592Y-105326909D01*
X124652734Y-105215851D01*
X124652729Y-105215848D01*
X124479807Y-105138857D01*
X124479802Y-105138855D01*
X124334001Y-105107865D01*
X124294646Y-105099500D01*
X124155789Y-105099500D01*
X124088750Y-105079815D01*
X124042995Y-105027011D01*
X124033051Y-104957853D01*
X124056835Y-104900773D01*
X124109688Y-104830784D01*
X124135058Y-104797189D01*
X124234229Y-104598028D01*
X124260995Y-104503955D01*
X124298272Y-104444867D01*
X124361581Y-104415309D01*
X124430821Y-104424671D01*
X124484007Y-104469980D01*
X124499525Y-104503960D01*
X124526236Y-104597842D01*
X124526239Y-104597848D01*
X124625369Y-104796928D01*
X124641137Y-104817808D01*
X124641138Y-104817808D01*
X125250000Y-104208946D01*
X125250000Y-104215161D01*
X125277259Y-104316894D01*
X125329920Y-104408106D01*
X125404394Y-104482580D01*
X125495606Y-104535241D01*
X125597339Y-104562500D01*
X125603553Y-104562500D01*
X124996672Y-105169379D01*
X125112818Y-105241296D01*
X125112822Y-105241298D01*
X125320195Y-105321634D01*
X125538807Y-105362500D01*
X125761193Y-105362500D01*
X125979809Y-105321633D01*
X126187168Y-105241301D01*
X126187181Y-105241295D01*
X126303326Y-105169379D01*
X125696448Y-104562500D01*
X125702661Y-104562500D01*
X125804394Y-104535241D01*
X125895606Y-104482580D01*
X125970080Y-104408106D01*
X126022741Y-104316894D01*
X126050000Y-104215161D01*
X126050000Y-104208947D01*
X126658861Y-104817808D01*
X126674631Y-104796925D01*
X126674633Y-104796922D01*
X126773759Y-104597850D01*
X126834621Y-104383939D01*
X126855141Y-104162500D01*
X126855141Y-104162499D01*
X131004357Y-104162499D01*
X131004357Y-104162500D01*
X131024884Y-104384035D01*
X131024885Y-104384037D01*
X131085769Y-104598023D01*
X131085775Y-104598038D01*
X131184938Y-104797183D01*
X131184943Y-104797191D01*
X131319020Y-104974738D01*
X131483437Y-105124623D01*
X131483439Y-105124625D01*
X131672595Y-105241745D01*
X131672596Y-105241745D01*
X131672599Y-105241747D01*
X131880060Y-105322118D01*
X132098757Y-105363000D01*
X132098759Y-105363000D01*
X132321240Y-105363000D01*
X132321243Y-105363000D01*
X132400140Y-105348251D01*
X132469652Y-105355282D01*
X132524331Y-105398779D01*
X132546814Y-105464933D01*
X132530311Y-105532139D01*
X132472820Y-105631718D01*
X132472818Y-105631722D01*
X132414327Y-105811740D01*
X132414326Y-105811744D01*
X132394540Y-106000000D01*
X132414326Y-106188256D01*
X132414327Y-106188259D01*
X132472818Y-106368277D01*
X132472821Y-106368284D01*
X132567467Y-106532216D01*
X132694129Y-106672888D01*
X132847265Y-106784148D01*
X132847270Y-106784151D01*
X133020192Y-106861142D01*
X133020197Y-106861144D01*
X133205354Y-106900500D01*
X133205355Y-106900500D01*
X133394644Y-106900500D01*
X133394646Y-106900500D01*
X133579803Y-106861144D01*
X133752730Y-106784151D01*
X133905871Y-106672888D01*
X134032533Y-106532216D01*
X134127179Y-106368284D01*
X134185674Y-106188256D01*
X134205460Y-106000000D01*
X134185674Y-105811744D01*
X134127179Y-105631716D01*
X134032533Y-105467784D01*
X133932333Y-105356501D01*
X133926226Y-105349718D01*
X133917713Y-105331981D01*
X133908614Y-105329037D01*
X133905592Y-105326909D01*
X133752734Y-105215851D01*
X133752729Y-105215848D01*
X133579807Y-105138857D01*
X133579802Y-105138855D01*
X133434001Y-105107865D01*
X133394646Y-105099500D01*
X133255789Y-105099500D01*
X133188750Y-105079815D01*
X133142995Y-105027011D01*
X133133051Y-104957853D01*
X133156835Y-104900773D01*
X133209688Y-104830784D01*
X133235058Y-104797189D01*
X133334229Y-104598028D01*
X133360995Y-104503955D01*
X133398272Y-104444867D01*
X133461581Y-104415309D01*
X133530821Y-104424671D01*
X133584007Y-104469980D01*
X133599525Y-104503960D01*
X133626236Y-104597842D01*
X133626239Y-104597848D01*
X133725369Y-104796928D01*
X133741137Y-104817808D01*
X133741138Y-104817808D01*
X134350000Y-104208946D01*
X134350000Y-104215161D01*
X134377259Y-104316894D01*
X134429920Y-104408106D01*
X134504394Y-104482580D01*
X134595606Y-104535241D01*
X134697339Y-104562500D01*
X134703553Y-104562500D01*
X134096672Y-105169379D01*
X134212818Y-105241296D01*
X134212822Y-105241298D01*
X134420195Y-105321634D01*
X134638807Y-105362500D01*
X134861193Y-105362500D01*
X135079809Y-105321633D01*
X135287168Y-105241301D01*
X135287181Y-105241295D01*
X135403326Y-105169379D01*
X134796448Y-104562500D01*
X134802661Y-104562500D01*
X134904394Y-104535241D01*
X134995606Y-104482580D01*
X135070080Y-104408106D01*
X135122741Y-104316894D01*
X135150000Y-104215161D01*
X135150000Y-104208947D01*
X135758861Y-104817808D01*
X135774631Y-104796925D01*
X135774633Y-104796922D01*
X135873759Y-104597850D01*
X135934621Y-104383939D01*
X135955141Y-104162500D01*
X135955141Y-104162499D01*
X135934621Y-103941060D01*
X135873759Y-103727149D01*
X135774635Y-103528080D01*
X135774630Y-103528072D01*
X135758860Y-103507190D01*
X135150000Y-104116051D01*
X135150000Y-104109839D01*
X135122741Y-104008106D01*
X135070080Y-103916894D01*
X134995606Y-103842420D01*
X134904394Y-103789759D01*
X134802661Y-103762500D01*
X134796448Y-103762500D01*
X135403327Y-103155619D01*
X135287178Y-103083702D01*
X135287177Y-103083701D01*
X135079804Y-103003365D01*
X134861193Y-102962500D01*
X134638807Y-102962500D01*
X134420195Y-103003365D01*
X134212824Y-103083700D01*
X134212823Y-103083701D01*
X134096671Y-103155619D01*
X134703553Y-103762500D01*
X134697339Y-103762500D01*
X134595606Y-103789759D01*
X134504394Y-103842420D01*
X134429920Y-103916894D01*
X134377259Y-104008106D01*
X134350000Y-104109839D01*
X134350000Y-104116053D01*
X133741138Y-103507191D01*
X133741137Y-103507191D01*
X133725368Y-103528074D01*
X133626239Y-103727151D01*
X133626237Y-103727155D01*
X133599525Y-103821040D01*
X133562246Y-103880133D01*
X133498936Y-103909690D01*
X133429697Y-103900328D01*
X133376510Y-103855018D01*
X133360994Y-103821041D01*
X133334229Y-103726972D01*
X133334224Y-103726961D01*
X133235061Y-103527816D01*
X133235056Y-103527808D01*
X133100979Y-103350261D01*
X132936562Y-103200376D01*
X132936560Y-103200374D01*
X132747404Y-103083254D01*
X132747398Y-103083252D01*
X132539940Y-103002882D01*
X132321243Y-102962000D01*
X132098757Y-102962000D01*
X131880060Y-103002882D01*
X131748864Y-103053707D01*
X131672601Y-103083252D01*
X131672595Y-103083254D01*
X131483439Y-103200374D01*
X131483437Y-103200376D01*
X131319020Y-103350261D01*
X131184943Y-103527808D01*
X131184938Y-103527816D01*
X131085775Y-103726961D01*
X131085769Y-103726976D01*
X131024885Y-103940962D01*
X131024884Y-103940964D01*
X131004357Y-104162499D01*
X126855141Y-104162499D01*
X126834621Y-103941060D01*
X126773759Y-103727149D01*
X126674635Y-103528080D01*
X126674630Y-103528072D01*
X126658860Y-103507190D01*
X126050000Y-104116051D01*
X126050000Y-104109839D01*
X126022741Y-104008106D01*
X125970080Y-103916894D01*
X125895606Y-103842420D01*
X125804394Y-103789759D01*
X125702661Y-103762500D01*
X125696448Y-103762500D01*
X126303327Y-103155619D01*
X126187178Y-103083702D01*
X126187177Y-103083701D01*
X125979804Y-103003365D01*
X125761193Y-102962500D01*
X125538807Y-102962500D01*
X125320195Y-103003365D01*
X125112824Y-103083700D01*
X125112823Y-103083701D01*
X124996671Y-103155619D01*
X125603553Y-103762500D01*
X125597339Y-103762500D01*
X125495606Y-103789759D01*
X125404394Y-103842420D01*
X125329920Y-103916894D01*
X125277259Y-104008106D01*
X125250000Y-104109839D01*
X125250000Y-104116053D01*
X124641138Y-103507191D01*
X124641137Y-103507191D01*
X124625368Y-103528074D01*
X124526239Y-103727151D01*
X124526237Y-103727155D01*
X124499525Y-103821040D01*
X124462246Y-103880133D01*
X124398936Y-103909690D01*
X124329697Y-103900328D01*
X124276510Y-103855018D01*
X124260994Y-103821041D01*
X124234229Y-103726972D01*
X124234224Y-103726961D01*
X124135061Y-103527816D01*
X124135056Y-103527808D01*
X124000979Y-103350261D01*
X123836562Y-103200376D01*
X123836560Y-103200374D01*
X123647404Y-103083254D01*
X123647398Y-103083252D01*
X123439940Y-103002882D01*
X123221243Y-102962000D01*
X122998757Y-102962000D01*
X122780060Y-103002882D01*
X122648864Y-103053707D01*
X122572601Y-103083252D01*
X122572595Y-103083254D01*
X122383439Y-103200374D01*
X122383437Y-103200376D01*
X122219020Y-103350261D01*
X122084943Y-103527808D01*
X122084938Y-103527816D01*
X121985775Y-103726961D01*
X121985769Y-103726976D01*
X121924885Y-103940962D01*
X121924884Y-103940964D01*
X121904357Y-104162499D01*
X117805141Y-104162499D01*
X117784621Y-103941060D01*
X117723759Y-103727149D01*
X117624635Y-103528080D01*
X117624630Y-103528072D01*
X117608860Y-103507190D01*
X117000000Y-104116051D01*
X117000000Y-104109839D01*
X116972741Y-104008106D01*
X116920080Y-103916894D01*
X116845606Y-103842420D01*
X116754394Y-103789759D01*
X116652661Y-103762500D01*
X116646448Y-103762500D01*
X117253327Y-103155619D01*
X117137178Y-103083702D01*
X117137177Y-103083701D01*
X116929804Y-103003365D01*
X116711193Y-102962500D01*
X116488807Y-102962500D01*
X116270195Y-103003365D01*
X116062824Y-103083700D01*
X116062823Y-103083701D01*
X115946671Y-103155619D01*
X116553553Y-103762500D01*
X116547339Y-103762500D01*
X116445606Y-103789759D01*
X116354394Y-103842420D01*
X116279920Y-103916894D01*
X116227259Y-104008106D01*
X116200000Y-104109839D01*
X116200000Y-104116053D01*
X115591138Y-103507191D01*
X115591137Y-103507191D01*
X115575368Y-103528074D01*
X115476239Y-103727151D01*
X115476237Y-103727155D01*
X115449525Y-103821040D01*
X115412246Y-103880133D01*
X115348936Y-103909690D01*
X115279697Y-103900328D01*
X115226510Y-103855018D01*
X115210994Y-103821041D01*
X115184229Y-103726972D01*
X115184224Y-103726961D01*
X115085061Y-103527816D01*
X115085056Y-103527808D01*
X114950979Y-103350261D01*
X114786562Y-103200376D01*
X114786560Y-103200374D01*
X114597404Y-103083254D01*
X114597398Y-103083252D01*
X114389940Y-103002882D01*
X114171243Y-102962000D01*
X113948757Y-102962000D01*
X113730060Y-103002882D01*
X113598864Y-103053707D01*
X113522601Y-103083252D01*
X113522595Y-103083254D01*
X113333439Y-103200374D01*
X113333437Y-103200376D01*
X113169020Y-103350261D01*
X113034943Y-103527808D01*
X113034938Y-103527816D01*
X112935775Y-103726961D01*
X112935769Y-103726976D01*
X112874885Y-103940962D01*
X112874884Y-103940964D01*
X112854357Y-104162499D01*
X108674366Y-104162499D01*
X108652179Y-104094216D01*
X108557533Y-103930284D01*
X108430871Y-103789612D01*
X108430870Y-103789611D01*
X108277734Y-103678351D01*
X108277729Y-103678348D01*
X108104807Y-103601357D01*
X108104802Y-103601355D01*
X107959001Y-103570365D01*
X107919646Y-103562000D01*
X107730354Y-103562000D01*
X107699778Y-103568499D01*
X107545197Y-103601355D01*
X107545192Y-103601357D01*
X107372270Y-103678348D01*
X107372265Y-103678351D01*
X107219129Y-103789611D01*
X107092466Y-103930285D01*
X106997821Y-104094215D01*
X106997818Y-104094222D01*
X106958523Y-104215161D01*
X106939326Y-104274244D01*
X106919540Y-104462500D01*
X101500000Y-104462500D01*
X101500000Y-102200000D01*
X102494540Y-102200000D01*
X102514326Y-102388256D01*
X102514327Y-102388259D01*
X102572818Y-102568277D01*
X102572821Y-102568284D01*
X102667467Y-102732216D01*
X102783553Y-102861142D01*
X102794129Y-102872888D01*
X102947265Y-102984148D01*
X102947270Y-102984151D01*
X103120192Y-103061142D01*
X103120197Y-103061144D01*
X103305354Y-103100500D01*
X103305355Y-103100500D01*
X103494644Y-103100500D01*
X103494646Y-103100500D01*
X103679803Y-103061144D01*
X103852730Y-102984151D01*
X104005871Y-102872888D01*
X104132533Y-102732216D01*
X104227179Y-102568284D01*
X104285674Y-102388256D01*
X104305460Y-102200000D01*
X104294950Y-102100000D01*
X109094540Y-102100000D01*
X109114326Y-102288256D01*
X109114327Y-102288259D01*
X109172818Y-102468277D01*
X109172821Y-102468284D01*
X109267467Y-102632216D01*
X109339071Y-102711740D01*
X109394129Y-102772888D01*
X109547265Y-102884148D01*
X109547270Y-102884151D01*
X109720192Y-102961142D01*
X109720197Y-102961144D01*
X109905354Y-103000500D01*
X109905355Y-103000500D01*
X110094644Y-103000500D01*
X110094646Y-103000500D01*
X110279803Y-102961144D01*
X110452730Y-102884151D01*
X110605871Y-102772888D01*
X110732533Y-102632216D01*
X110827179Y-102468284D01*
X110885674Y-102288256D01*
X110905460Y-102100000D01*
X111494540Y-102100000D01*
X111514326Y-102288256D01*
X111514327Y-102288259D01*
X111572818Y-102468277D01*
X111572821Y-102468284D01*
X111667467Y-102632216D01*
X111739071Y-102711740D01*
X111794129Y-102772888D01*
X111947265Y-102884148D01*
X111947270Y-102884151D01*
X112120192Y-102961142D01*
X112120197Y-102961144D01*
X112305354Y-103000500D01*
X112305355Y-103000500D01*
X112494644Y-103000500D01*
X112494646Y-103000500D01*
X112679803Y-102961144D01*
X112852730Y-102884151D01*
X113005871Y-102772888D01*
X113132533Y-102632216D01*
X113227179Y-102468284D01*
X113285674Y-102288256D01*
X113305460Y-102100000D01*
X117294540Y-102100000D01*
X117314326Y-102288256D01*
X117314327Y-102288259D01*
X117372818Y-102468277D01*
X117372821Y-102468284D01*
X117467467Y-102632216D01*
X117539071Y-102711740D01*
X117594129Y-102772888D01*
X117747265Y-102884148D01*
X117747270Y-102884151D01*
X117920192Y-102961142D01*
X117920197Y-102961144D01*
X118105354Y-103000500D01*
X118105355Y-103000500D01*
X118294644Y-103000500D01*
X118294646Y-103000500D01*
X118479803Y-102961144D01*
X118652730Y-102884151D01*
X118805871Y-102772888D01*
X118932533Y-102632216D01*
X119027179Y-102468284D01*
X119085674Y-102288256D01*
X119105460Y-102100000D01*
X120694540Y-102100000D01*
X120714326Y-102288256D01*
X120714327Y-102288259D01*
X120772818Y-102468277D01*
X120772821Y-102468284D01*
X120867467Y-102632216D01*
X120939071Y-102711740D01*
X120994129Y-102772888D01*
X121147265Y-102884148D01*
X121147270Y-102884151D01*
X121320192Y-102961142D01*
X121320197Y-102961144D01*
X121505354Y-103000500D01*
X121505355Y-103000500D01*
X121694644Y-103000500D01*
X121694646Y-103000500D01*
X121879803Y-102961144D01*
X122052730Y-102884151D01*
X122205871Y-102772888D01*
X122332533Y-102632216D01*
X122427179Y-102468284D01*
X122485674Y-102288256D01*
X122505460Y-102100000D01*
X126394540Y-102100000D01*
X126414326Y-102288256D01*
X126414327Y-102288259D01*
X126472818Y-102468277D01*
X126472821Y-102468284D01*
X126567467Y-102632216D01*
X126639071Y-102711740D01*
X126694129Y-102772888D01*
X126847265Y-102884148D01*
X126847270Y-102884151D01*
X127020192Y-102961142D01*
X127020197Y-102961144D01*
X127205354Y-103000500D01*
X127205355Y-103000500D01*
X127394644Y-103000500D01*
X127394646Y-103000500D01*
X127579803Y-102961144D01*
X127752730Y-102884151D01*
X127905871Y-102772888D01*
X128032533Y-102632216D01*
X128127179Y-102468284D01*
X128185674Y-102288256D01*
X128205460Y-102100000D01*
X129694540Y-102100000D01*
X129714326Y-102288256D01*
X129714327Y-102288259D01*
X129772818Y-102468277D01*
X129772821Y-102468284D01*
X129867467Y-102632216D01*
X129939071Y-102711740D01*
X129994129Y-102772888D01*
X130147265Y-102884148D01*
X130147270Y-102884151D01*
X130320192Y-102961142D01*
X130320197Y-102961144D01*
X130505354Y-103000500D01*
X130505355Y-103000500D01*
X130694644Y-103000500D01*
X130694646Y-103000500D01*
X130879803Y-102961144D01*
X131052730Y-102884151D01*
X131205871Y-102772888D01*
X131332533Y-102632216D01*
X131427179Y-102468284D01*
X131485674Y-102288256D01*
X131505460Y-102100000D01*
X135494540Y-102100000D01*
X135514326Y-102288256D01*
X135514327Y-102288259D01*
X135572818Y-102468277D01*
X135572821Y-102468284D01*
X135667467Y-102632216D01*
X135739071Y-102711740D01*
X135794129Y-102772888D01*
X135947265Y-102884148D01*
X135947270Y-102884151D01*
X136120192Y-102961142D01*
X136120197Y-102961144D01*
X136305354Y-103000500D01*
X136305355Y-103000500D01*
X136494644Y-103000500D01*
X136494646Y-103000500D01*
X136679803Y-102961144D01*
X136852730Y-102884151D01*
X137005871Y-102772888D01*
X137132533Y-102632216D01*
X137227179Y-102468284D01*
X137285674Y-102288256D01*
X137305460Y-102100000D01*
X137294950Y-102000000D01*
X138894540Y-102000000D01*
X138914326Y-102188256D01*
X138914327Y-102188259D01*
X138972818Y-102368277D01*
X138972821Y-102368284D01*
X139067467Y-102532216D01*
X139099937Y-102568277D01*
X139194129Y-102672888D01*
X139347265Y-102784148D01*
X139347270Y-102784151D01*
X139520192Y-102861142D01*
X139520197Y-102861144D01*
X139705354Y-102900500D01*
X139705355Y-102900500D01*
X139894644Y-102900500D01*
X139894646Y-102900500D01*
X140079803Y-102861144D01*
X140252730Y-102784151D01*
X140405871Y-102672888D01*
X140532533Y-102532216D01*
X140627179Y-102368284D01*
X140685674Y-102188256D01*
X140705460Y-102000000D01*
X140685674Y-101811744D01*
X140627179Y-101631716D01*
X140532533Y-101467784D01*
X140405871Y-101327112D01*
X140390369Y-101315849D01*
X140252734Y-101215851D01*
X140252729Y-101215848D01*
X140079807Y-101138857D01*
X140079802Y-101138855D01*
X139934001Y-101107865D01*
X139894646Y-101099500D01*
X139705354Y-101099500D01*
X139672897Y-101106398D01*
X139520197Y-101138855D01*
X139520192Y-101138857D01*
X139347270Y-101215848D01*
X139347265Y-101215851D01*
X139194129Y-101327111D01*
X139067466Y-101467785D01*
X138972821Y-101631715D01*
X138972818Y-101631722D01*
X138918304Y-101799500D01*
X138914326Y-101811744D01*
X138894540Y-102000000D01*
X137294950Y-102000000D01*
X137285674Y-101911744D01*
X137227179Y-101731716D01*
X137132533Y-101567784D01*
X137005871Y-101427112D01*
X137003424Y-101425334D01*
X136852734Y-101315851D01*
X136852729Y-101315848D01*
X136679807Y-101238857D01*
X136679802Y-101238855D01*
X136534001Y-101207865D01*
X136494646Y-101199500D01*
X136305354Y-101199500D01*
X136272897Y-101206398D01*
X136120197Y-101238855D01*
X136120192Y-101238857D01*
X135947270Y-101315848D01*
X135947265Y-101315851D01*
X135794129Y-101427111D01*
X135667466Y-101567785D01*
X135572821Y-101731715D01*
X135572818Y-101731722D01*
X135522243Y-101887378D01*
X135514326Y-101911744D01*
X135494540Y-102100000D01*
X131505460Y-102100000D01*
X131485674Y-101911744D01*
X131427179Y-101731716D01*
X131332533Y-101567784D01*
X131205871Y-101427112D01*
X131203424Y-101425334D01*
X131052734Y-101315851D01*
X131052729Y-101315848D01*
X130879807Y-101238857D01*
X130879802Y-101238855D01*
X130734001Y-101207865D01*
X130694646Y-101199500D01*
X130505354Y-101199500D01*
X130472897Y-101206398D01*
X130320197Y-101238855D01*
X130320192Y-101238857D01*
X130147270Y-101315848D01*
X130147265Y-101315851D01*
X129994129Y-101427111D01*
X129867466Y-101567785D01*
X129772821Y-101731715D01*
X129772818Y-101731722D01*
X129722243Y-101887378D01*
X129714326Y-101911744D01*
X129694540Y-102100000D01*
X128205460Y-102100000D01*
X128185674Y-101911744D01*
X128127179Y-101731716D01*
X128032533Y-101567784D01*
X127905871Y-101427112D01*
X127903424Y-101425334D01*
X127752734Y-101315851D01*
X127752729Y-101315848D01*
X127579807Y-101238857D01*
X127579802Y-101238855D01*
X127434001Y-101207865D01*
X127394646Y-101199500D01*
X127205354Y-101199500D01*
X127172897Y-101206398D01*
X127020197Y-101238855D01*
X127020192Y-101238857D01*
X126847270Y-101315848D01*
X126847265Y-101315851D01*
X126694129Y-101427111D01*
X126567466Y-101567785D01*
X126472821Y-101731715D01*
X126472818Y-101731722D01*
X126422243Y-101887378D01*
X126414326Y-101911744D01*
X126394540Y-102100000D01*
X122505460Y-102100000D01*
X122485674Y-101911744D01*
X122427179Y-101731716D01*
X122332533Y-101567784D01*
X122205871Y-101427112D01*
X122203424Y-101425334D01*
X122052734Y-101315851D01*
X122052729Y-101315848D01*
X121879807Y-101238857D01*
X121879802Y-101238855D01*
X121734001Y-101207865D01*
X121694646Y-101199500D01*
X121505354Y-101199500D01*
X121472897Y-101206398D01*
X121320197Y-101238855D01*
X121320192Y-101238857D01*
X121147270Y-101315848D01*
X121147265Y-101315851D01*
X120994129Y-101427111D01*
X120867466Y-101567785D01*
X120772821Y-101731715D01*
X120772818Y-101731722D01*
X120722243Y-101887378D01*
X120714326Y-101911744D01*
X120694540Y-102100000D01*
X119105460Y-102100000D01*
X119085674Y-101911744D01*
X119027179Y-101731716D01*
X118932533Y-101567784D01*
X118805871Y-101427112D01*
X118803424Y-101425334D01*
X118652734Y-101315851D01*
X118652729Y-101315848D01*
X118479807Y-101238857D01*
X118479802Y-101238855D01*
X118334001Y-101207865D01*
X118294646Y-101199500D01*
X118105354Y-101199500D01*
X118072897Y-101206398D01*
X117920197Y-101238855D01*
X117920192Y-101238857D01*
X117747270Y-101315848D01*
X117747265Y-101315851D01*
X117594129Y-101427111D01*
X117467466Y-101567785D01*
X117372821Y-101731715D01*
X117372818Y-101731722D01*
X117322243Y-101887378D01*
X117314326Y-101911744D01*
X117294540Y-102100000D01*
X113305460Y-102100000D01*
X113285674Y-101911744D01*
X113227179Y-101731716D01*
X113132533Y-101567784D01*
X113005871Y-101427112D01*
X113003424Y-101425334D01*
X112852734Y-101315851D01*
X112852729Y-101315848D01*
X112679807Y-101238857D01*
X112679802Y-101238855D01*
X112534001Y-101207865D01*
X112494646Y-101199500D01*
X112305354Y-101199500D01*
X112272897Y-101206398D01*
X112120197Y-101238855D01*
X112120192Y-101238857D01*
X111947270Y-101315848D01*
X111947265Y-101315851D01*
X111794129Y-101427111D01*
X111667466Y-101567785D01*
X111572821Y-101731715D01*
X111572818Y-101731722D01*
X111522243Y-101887378D01*
X111514326Y-101911744D01*
X111494540Y-102100000D01*
X110905460Y-102100000D01*
X110885674Y-101911744D01*
X110827179Y-101731716D01*
X110732533Y-101567784D01*
X110605871Y-101427112D01*
X110603424Y-101425334D01*
X110452734Y-101315851D01*
X110452729Y-101315848D01*
X110279807Y-101238857D01*
X110279802Y-101238855D01*
X110134001Y-101207865D01*
X110094646Y-101199500D01*
X109905354Y-101199500D01*
X109872897Y-101206398D01*
X109720197Y-101238855D01*
X109720192Y-101238857D01*
X109547270Y-101315848D01*
X109547265Y-101315851D01*
X109394129Y-101427111D01*
X109267466Y-101567785D01*
X109172821Y-101731715D01*
X109172818Y-101731722D01*
X109122243Y-101887378D01*
X109114326Y-101911744D01*
X109094540Y-102100000D01*
X104294950Y-102100000D01*
X104285674Y-102011744D01*
X104227179Y-101831716D01*
X104132533Y-101667784D01*
X104005871Y-101527112D01*
X104005870Y-101527111D01*
X103852734Y-101415851D01*
X103852729Y-101415848D01*
X103679807Y-101338857D01*
X103679802Y-101338855D01*
X103534001Y-101307865D01*
X103494646Y-101299500D01*
X103305354Y-101299500D01*
X103272897Y-101306398D01*
X103120197Y-101338855D01*
X103120192Y-101338857D01*
X102947270Y-101415848D01*
X102947265Y-101415851D01*
X102794129Y-101527111D01*
X102667466Y-101667785D01*
X102572821Y-101831715D01*
X102572818Y-101831722D01*
X102528449Y-101968277D01*
X102514326Y-102011744D01*
X102494540Y-102200000D01*
X101500000Y-102200000D01*
X101500000Y-98462500D01*
X106919540Y-98462500D01*
X106939326Y-98650756D01*
X106939327Y-98650759D01*
X106997818Y-98830777D01*
X106997821Y-98830784D01*
X107092467Y-98994716D01*
X107171076Y-99082020D01*
X107219129Y-99135388D01*
X107372265Y-99246648D01*
X107372270Y-99246651D01*
X107545192Y-99323642D01*
X107545197Y-99323644D01*
X107730354Y-99363000D01*
X107730355Y-99363000D01*
X107919644Y-99363000D01*
X107919646Y-99363000D01*
X108104803Y-99323644D01*
X108277730Y-99246651D01*
X108430871Y-99135388D01*
X108557533Y-98994716D01*
X108652179Y-98830784D01*
X108710674Y-98650756D01*
X108730460Y-98462500D01*
X108710674Y-98274244D01*
X108652179Y-98094216D01*
X108557533Y-97930284D01*
X108430871Y-97789612D01*
X108430870Y-97789611D01*
X108277734Y-97678351D01*
X108277729Y-97678348D01*
X108104807Y-97601357D01*
X108104802Y-97601355D01*
X107959001Y-97570365D01*
X107919646Y-97562000D01*
X107730354Y-97562000D01*
X107699778Y-97568499D01*
X107545197Y-97601355D01*
X107545192Y-97601357D01*
X107372270Y-97678348D01*
X107372265Y-97678351D01*
X107219129Y-97789611D01*
X107092466Y-97930285D01*
X106997821Y-98094215D01*
X106997818Y-98094222D01*
X106955767Y-98223644D01*
X106939326Y-98274244D01*
X106919540Y-98462500D01*
X101500000Y-98462500D01*
X101500000Y-95900000D01*
X110244540Y-95900000D01*
X110264326Y-96088256D01*
X110264327Y-96088259D01*
X110322818Y-96268277D01*
X110322821Y-96268284D01*
X110417467Y-96432216D01*
X110507506Y-96532214D01*
X110544129Y-96572888D01*
X110697265Y-96684148D01*
X110697270Y-96684151D01*
X110870192Y-96761142D01*
X110870197Y-96761144D01*
X111055354Y-96800500D01*
X111055355Y-96800500D01*
X111244644Y-96800500D01*
X111244646Y-96800500D01*
X111429803Y-96761144D01*
X111602730Y-96684151D01*
X111755871Y-96572888D01*
X111882533Y-96432216D01*
X111977179Y-96268284D01*
X112035674Y-96088256D01*
X112055460Y-95900000D01*
X112035674Y-95711744D01*
X111977179Y-95531716D01*
X111882533Y-95367784D01*
X111755871Y-95227112D01*
X111740369Y-95215849D01*
X111666941Y-95162500D01*
X117105790Y-95162500D01*
X117125576Y-95350756D01*
X117125577Y-95350759D01*
X117184068Y-95530777D01*
X117184071Y-95530784D01*
X117242347Y-95631722D01*
X117253189Y-95650500D01*
X117269662Y-95718400D01*
X117253189Y-95774500D01*
X117184071Y-95894215D01*
X117184068Y-95894222D01*
X117125577Y-96074240D01*
X117125576Y-96074244D01*
X117105790Y-96262500D01*
X117125576Y-96450756D01*
X117125577Y-96450759D01*
X117184068Y-96630777D01*
X117184071Y-96630784D01*
X117253189Y-96750500D01*
X117269662Y-96818400D01*
X117253189Y-96874500D01*
X117184071Y-96994215D01*
X117184068Y-96994222D01*
X117138645Y-97134022D01*
X117125576Y-97174244D01*
X117105790Y-97362500D01*
X117125576Y-97550756D01*
X117125577Y-97550759D01*
X117184068Y-97730777D01*
X117184071Y-97730784D01*
X117278717Y-97894716D01*
X117310743Y-97930284D01*
X117405379Y-98035388D01*
X117558515Y-98146648D01*
X117558520Y-98146651D01*
X117731442Y-98223642D01*
X117731447Y-98223644D01*
X117916604Y-98263000D01*
X117916605Y-98263000D01*
X118105894Y-98263000D01*
X118105896Y-98263000D01*
X118291053Y-98223644D01*
X118463980Y-98146651D01*
X118617121Y-98035388D01*
X118743783Y-97894716D01*
X118838429Y-97730784D01*
X118896924Y-97550756D01*
X118916710Y-97362500D01*
X118896924Y-97174244D01*
X118838429Y-96994216D01*
X118769310Y-96874499D01*
X118752838Y-96806600D01*
X118769311Y-96750500D01*
X118774422Y-96741648D01*
X118838429Y-96630784D01*
X118896924Y-96450756D01*
X118916710Y-96262500D01*
X118896924Y-96074244D01*
X118872801Y-96000000D01*
X120094540Y-96000000D01*
X120114326Y-96188256D01*
X120114327Y-96188259D01*
X120172818Y-96368277D01*
X120172821Y-96368284D01*
X120267467Y-96532216D01*
X120365563Y-96641162D01*
X120394129Y-96672888D01*
X120547265Y-96784148D01*
X120547270Y-96784151D01*
X120720192Y-96861142D01*
X120720197Y-96861144D01*
X120905354Y-96900500D01*
X120905355Y-96900500D01*
X121094644Y-96900500D01*
X121094646Y-96900500D01*
X121279803Y-96861144D01*
X121452730Y-96784151D01*
X121605871Y-96672888D01*
X121732533Y-96532216D01*
X121827179Y-96368284D01*
X121885674Y-96188256D01*
X121905460Y-96000000D01*
X121885674Y-95811744D01*
X121827179Y-95631716D01*
X121732533Y-95467784D01*
X121605871Y-95327112D01*
X121547375Y-95284612D01*
X121452734Y-95215851D01*
X121452729Y-95215848D01*
X121332909Y-95162500D01*
X126184540Y-95162500D01*
X126204326Y-95350756D01*
X126204327Y-95350759D01*
X126262818Y-95530777D01*
X126262821Y-95530784D01*
X126321097Y-95631722D01*
X126331939Y-95650500D01*
X126348412Y-95718400D01*
X126331939Y-95774500D01*
X126262821Y-95894215D01*
X126262818Y-95894222D01*
X126204327Y-96074240D01*
X126204326Y-96074244D01*
X126184540Y-96262500D01*
X126204326Y-96450756D01*
X126204327Y-96450759D01*
X126262818Y-96630777D01*
X126262821Y-96630784D01*
X126331939Y-96750500D01*
X126348412Y-96818400D01*
X126331939Y-96874500D01*
X126262821Y-96994215D01*
X126262818Y-96994222D01*
X126217395Y-97134022D01*
X126204326Y-97174244D01*
X126184540Y-97362500D01*
X126204326Y-97550756D01*
X126204327Y-97550759D01*
X126262818Y-97730777D01*
X126262821Y-97730784D01*
X126357467Y-97894716D01*
X126389493Y-97930284D01*
X126484129Y-98035388D01*
X126637265Y-98146648D01*
X126637270Y-98146651D01*
X126810192Y-98223642D01*
X126810197Y-98223644D01*
X126995354Y-98263000D01*
X126995355Y-98263000D01*
X127184644Y-98263000D01*
X127184646Y-98263000D01*
X127369803Y-98223644D01*
X127542730Y-98146651D01*
X127695871Y-98035388D01*
X127822533Y-97894716D01*
X127917179Y-97730784D01*
X127975674Y-97550756D01*
X127995460Y-97362500D01*
X127975674Y-97174244D01*
X127917179Y-96994216D01*
X127848060Y-96874499D01*
X127831588Y-96806600D01*
X127848061Y-96750500D01*
X127853172Y-96741648D01*
X127917179Y-96630784D01*
X127975674Y-96450756D01*
X127995460Y-96262500D01*
X127975674Y-96074244D01*
X127937741Y-95957500D01*
X128878880Y-95957500D01*
X128898666Y-96145756D01*
X128898667Y-96145759D01*
X128957158Y-96325777D01*
X128957161Y-96325784D01*
X129051807Y-96489716D01*
X129126696Y-96572888D01*
X129178469Y-96630388D01*
X129331605Y-96741648D01*
X129331610Y-96741651D01*
X129504532Y-96818642D01*
X129504537Y-96818644D01*
X129689694Y-96858000D01*
X129689695Y-96858000D01*
X129878984Y-96858000D01*
X129878986Y-96858000D01*
X130064143Y-96818644D01*
X130237070Y-96741651D01*
X130390211Y-96630388D01*
X130516873Y-96489716D01*
X130611519Y-96325784D01*
X130670014Y-96145756D01*
X130689800Y-95957500D01*
X130670014Y-95769244D01*
X130611519Y-95589216D01*
X130516873Y-95425284D01*
X130390211Y-95284612D01*
X130390210Y-95284611D01*
X130237074Y-95173351D01*
X130237069Y-95173348D01*
X130212704Y-95162500D01*
X135294540Y-95162500D01*
X135314326Y-95350756D01*
X135314327Y-95350759D01*
X135372818Y-95530777D01*
X135372821Y-95530784D01*
X135431097Y-95631722D01*
X135441939Y-95650500D01*
X135458412Y-95718400D01*
X135441939Y-95774500D01*
X135372821Y-95894215D01*
X135372818Y-95894222D01*
X135314327Y-96074240D01*
X135314326Y-96074244D01*
X135294540Y-96262500D01*
X135314326Y-96450756D01*
X135314327Y-96450759D01*
X135372818Y-96630777D01*
X135372821Y-96630784D01*
X135441939Y-96750500D01*
X135458412Y-96818400D01*
X135441939Y-96874500D01*
X135372821Y-96994215D01*
X135372818Y-96994222D01*
X135327395Y-97134022D01*
X135314326Y-97174244D01*
X135294540Y-97362500D01*
X135314326Y-97550756D01*
X135314327Y-97550759D01*
X135372818Y-97730777D01*
X135372821Y-97730784D01*
X135467467Y-97894716D01*
X135499493Y-97930284D01*
X135594129Y-98035388D01*
X135747265Y-98146648D01*
X135747270Y-98146651D01*
X135920192Y-98223642D01*
X135920197Y-98223644D01*
X136105354Y-98263000D01*
X136105355Y-98263000D01*
X136294644Y-98263000D01*
X136294646Y-98263000D01*
X136479803Y-98223644D01*
X136652730Y-98146651D01*
X136805871Y-98035388D01*
X136932533Y-97894716D01*
X137027179Y-97730784D01*
X137085674Y-97550756D01*
X137105460Y-97362500D01*
X137085674Y-97174244D01*
X137027179Y-96994216D01*
X136958060Y-96874499D01*
X136941588Y-96806600D01*
X136958061Y-96750500D01*
X136963172Y-96741648D01*
X137027179Y-96630784D01*
X137085674Y-96450756D01*
X137104369Y-96272878D01*
X137533139Y-96272878D01*
X137552925Y-96461134D01*
X137552926Y-96461137D01*
X137611417Y-96641155D01*
X137611420Y-96641162D01*
X137706066Y-96805094D01*
X137753703Y-96858000D01*
X137832728Y-96945766D01*
X137985864Y-97057026D01*
X137985869Y-97057029D01*
X138158791Y-97134020D01*
X138158796Y-97134022D01*
X138343953Y-97173378D01*
X138343954Y-97173378D01*
X138533243Y-97173378D01*
X138533245Y-97173378D01*
X138718402Y-97134022D01*
X138891329Y-97057029D01*
X139044470Y-96945766D01*
X139171132Y-96805094D01*
X139265778Y-96641162D01*
X139324273Y-96461134D01*
X139344059Y-96272878D01*
X139324273Y-96084622D01*
X139265778Y-95904594D01*
X139171132Y-95740662D01*
X139044470Y-95599990D01*
X139042502Y-95598560D01*
X138891333Y-95488729D01*
X138891328Y-95488726D01*
X138718406Y-95411735D01*
X138718401Y-95411733D01*
X138572600Y-95380743D01*
X138533245Y-95372378D01*
X138343953Y-95372378D01*
X138311496Y-95379276D01*
X138158796Y-95411733D01*
X138158791Y-95411735D01*
X137985869Y-95488726D01*
X137985864Y-95488729D01*
X137832728Y-95599989D01*
X137706065Y-95740663D01*
X137611420Y-95904593D01*
X137611417Y-95904600D01*
X137556298Y-96074240D01*
X137552925Y-96084622D01*
X137533139Y-96272878D01*
X137104369Y-96272878D01*
X137105460Y-96262500D01*
X137085674Y-96074244D01*
X137027179Y-95894216D01*
X136958060Y-95774499D01*
X136941588Y-95706600D01*
X136958061Y-95650500D01*
X137027179Y-95530784D01*
X137085674Y-95350756D01*
X137105460Y-95162500D01*
X137085674Y-94974244D01*
X137027179Y-94794216D01*
X136932533Y-94630284D01*
X136805871Y-94489612D01*
X136805870Y-94489611D01*
X136652734Y-94378351D01*
X136652729Y-94378348D01*
X136479807Y-94301357D01*
X136479802Y-94301355D01*
X136334001Y-94270365D01*
X136294646Y-94262000D01*
X136105354Y-94262000D01*
X136072897Y-94268898D01*
X135920197Y-94301355D01*
X135920192Y-94301357D01*
X135747270Y-94378348D01*
X135747265Y-94378351D01*
X135594129Y-94489611D01*
X135467466Y-94630285D01*
X135372821Y-94794215D01*
X135372818Y-94794222D01*
X135314327Y-94974240D01*
X135314326Y-94974244D01*
X135294540Y-95162500D01*
X130212704Y-95162500D01*
X130064147Y-95096357D01*
X130064142Y-95096355D01*
X129918341Y-95065365D01*
X129878986Y-95057000D01*
X129689694Y-95057000D01*
X129657237Y-95063898D01*
X129504537Y-95096355D01*
X129504532Y-95096357D01*
X129331610Y-95173348D01*
X129331605Y-95173351D01*
X129178469Y-95284611D01*
X129051806Y-95425285D01*
X128957161Y-95589215D01*
X128957158Y-95589222D01*
X128898667Y-95769240D01*
X128898666Y-95769244D01*
X128878880Y-95957500D01*
X127937741Y-95957500D01*
X127917179Y-95894216D01*
X127848060Y-95774499D01*
X127831588Y-95706600D01*
X127848061Y-95650500D01*
X127917179Y-95530784D01*
X127975674Y-95350756D01*
X127995460Y-95162500D01*
X127975674Y-94974244D01*
X127917179Y-94794216D01*
X127822533Y-94630284D01*
X127695871Y-94489612D01*
X127695870Y-94489611D01*
X127542734Y-94378351D01*
X127542729Y-94378348D01*
X127369807Y-94301357D01*
X127369802Y-94301355D01*
X127224001Y-94270365D01*
X127184646Y-94262000D01*
X126995354Y-94262000D01*
X126962897Y-94268898D01*
X126810197Y-94301355D01*
X126810192Y-94301357D01*
X126637270Y-94378348D01*
X126637265Y-94378351D01*
X126484129Y-94489611D01*
X126357466Y-94630285D01*
X126262821Y-94794215D01*
X126262818Y-94794222D01*
X126204327Y-94974240D01*
X126204326Y-94974244D01*
X126184540Y-95162500D01*
X121332909Y-95162500D01*
X121279807Y-95138857D01*
X121279802Y-95138855D01*
X121134001Y-95107865D01*
X121094646Y-95099500D01*
X120905354Y-95099500D01*
X120872897Y-95106398D01*
X120720197Y-95138855D01*
X120720192Y-95138857D01*
X120547270Y-95215848D01*
X120547265Y-95215851D01*
X120394129Y-95327111D01*
X120267466Y-95467785D01*
X120172821Y-95631715D01*
X120172818Y-95631722D01*
X120114327Y-95811740D01*
X120114326Y-95811744D01*
X120094540Y-96000000D01*
X118872801Y-96000000D01*
X118838429Y-95894216D01*
X118769310Y-95774499D01*
X118752838Y-95706600D01*
X118769311Y-95650500D01*
X118838429Y-95530784D01*
X118896924Y-95350756D01*
X118916710Y-95162500D01*
X118896924Y-94974244D01*
X118838429Y-94794216D01*
X118743783Y-94630284D01*
X118617121Y-94489612D01*
X118617120Y-94489611D01*
X118463984Y-94378351D01*
X118463979Y-94378348D01*
X118291057Y-94301357D01*
X118291052Y-94301355D01*
X118145251Y-94270365D01*
X118105896Y-94262000D01*
X117916604Y-94262000D01*
X117884147Y-94268898D01*
X117731447Y-94301355D01*
X117731442Y-94301357D01*
X117558520Y-94378348D01*
X117558515Y-94378351D01*
X117405379Y-94489611D01*
X117278716Y-94630285D01*
X117184071Y-94794215D01*
X117184068Y-94794222D01*
X117125577Y-94974240D01*
X117125576Y-94974244D01*
X117105790Y-95162500D01*
X111666941Y-95162500D01*
X111602734Y-95115851D01*
X111602729Y-95115848D01*
X111429807Y-95038857D01*
X111429802Y-95038855D01*
X111284001Y-95007865D01*
X111244646Y-94999500D01*
X111055354Y-94999500D01*
X111022897Y-95006398D01*
X110870197Y-95038855D01*
X110870192Y-95038857D01*
X110697270Y-95115848D01*
X110697265Y-95115851D01*
X110544129Y-95227111D01*
X110417466Y-95367785D01*
X110322821Y-95531715D01*
X110322818Y-95531722D01*
X110265997Y-95706600D01*
X110264326Y-95711744D01*
X110244540Y-95900000D01*
X101500000Y-95900000D01*
X101500000Y-94624000D01*
X101519685Y-94556961D01*
X101572489Y-94511206D01*
X101624000Y-94500000D01*
X106500000Y-94500000D01*
X106500000Y-92624000D01*
X106519685Y-92556961D01*
X106572489Y-92511206D01*
X106624000Y-92500000D01*
X106811831Y-92500000D01*
X106878870Y-92519685D01*
X106924625Y-92572489D01*
X106935151Y-92611035D01*
X106939326Y-92650756D01*
X106939327Y-92650759D01*
X106997818Y-92830777D01*
X106997821Y-92830784D01*
X107092467Y-92994716D01*
X107172992Y-93084148D01*
X107219129Y-93135388D01*
X107372265Y-93246648D01*
X107372270Y-93246651D01*
X107545192Y-93323642D01*
X107545197Y-93323644D01*
X107730354Y-93363000D01*
X107730355Y-93363000D01*
X107919644Y-93363000D01*
X107919646Y-93363000D01*
X108104803Y-93323644D01*
X108277730Y-93246651D01*
X108430871Y-93135388D01*
X108557533Y-92994716D01*
X108652179Y-92830784D01*
X108710674Y-92650756D01*
X108714848Y-92611036D01*
X108741433Y-92546423D01*
X108798731Y-92506439D01*
X108838169Y-92500000D01*
X109394099Y-92500000D01*
X109403632Y-92500500D01*
X109405354Y-92500500D01*
X109596368Y-92500500D01*
X109605901Y-92500000D01*
X125000000Y-92500000D01*
X125000000Y-92000000D01*
X118854033Y-92000000D01*
X118786994Y-91980315D01*
X118741239Y-91927511D01*
X118731295Y-91858353D01*
X118737372Y-91837274D01*
X118736421Y-91836965D01*
X118758072Y-91770329D01*
X118796924Y-91650756D01*
X118816710Y-91462500D01*
X126084540Y-91462500D01*
X126104326Y-91650756D01*
X126104327Y-91650759D01*
X126162818Y-91830777D01*
X126162821Y-91830784D01*
X126257467Y-91994716D01*
X126362836Y-92111740D01*
X126384129Y-92135388D01*
X126537265Y-92246648D01*
X126537270Y-92246651D01*
X126710192Y-92323642D01*
X126710197Y-92323644D01*
X126895354Y-92363000D01*
X126895355Y-92363000D01*
X127084644Y-92363000D01*
X127084646Y-92363000D01*
X127269803Y-92323644D01*
X127442730Y-92246651D01*
X127595871Y-92135388D01*
X127722533Y-91994716D01*
X127817179Y-91830784D01*
X127875674Y-91650756D01*
X127895460Y-91462500D01*
X127875674Y-91274244D01*
X127817179Y-91094216D01*
X127758111Y-90991907D01*
X127741639Y-90924010D01*
X127758110Y-90867913D01*
X127827179Y-90748284D01*
X127885674Y-90568256D01*
X127905460Y-90380000D01*
X127885674Y-90191744D01*
X127827179Y-90011716D01*
X127732533Y-89847784D01*
X127605871Y-89707112D01*
X127596085Y-89700002D01*
X127452734Y-89595851D01*
X127452729Y-89595848D01*
X127279807Y-89518857D01*
X127279802Y-89518855D01*
X127116513Y-89484148D01*
X127094646Y-89479500D01*
X126905354Y-89479500D01*
X126883487Y-89484148D01*
X126720197Y-89518855D01*
X126720192Y-89518857D01*
X126547270Y-89595848D01*
X126547265Y-89595851D01*
X126394129Y-89707111D01*
X126267466Y-89847785D01*
X126172821Y-90011715D01*
X126172818Y-90011722D01*
X126123667Y-90162994D01*
X126114326Y-90191744D01*
X126094540Y-90380000D01*
X126114326Y-90568256D01*
X126114327Y-90568259D01*
X126172818Y-90748277D01*
X126172821Y-90748284D01*
X126231887Y-90850590D01*
X126248360Y-90918488D01*
X126231888Y-90974587D01*
X126210438Y-91011740D01*
X126162825Y-91094210D01*
X126162820Y-91094218D01*
X126162818Y-91094222D01*
X126112317Y-91249649D01*
X126104326Y-91274244D01*
X126084540Y-91462500D01*
X118816710Y-91462500D01*
X118796924Y-91274244D01*
X118738429Y-91094216D01*
X118669361Y-90974587D01*
X118660438Y-90959131D01*
X118643965Y-90891230D01*
X118660436Y-90835135D01*
X118727179Y-90719534D01*
X118785674Y-90539506D01*
X118805460Y-90351250D01*
X118785674Y-90162994D01*
X118727179Y-89982966D01*
X118632533Y-89819034D01*
X118505871Y-89678362D01*
X118505870Y-89678361D01*
X118352734Y-89567101D01*
X118352729Y-89567098D01*
X118179807Y-89490107D01*
X118179802Y-89490105D01*
X118034001Y-89459115D01*
X117994646Y-89450750D01*
X117805354Y-89450750D01*
X117772897Y-89457648D01*
X117620197Y-89490105D01*
X117620192Y-89490107D01*
X117447270Y-89567098D01*
X117447265Y-89567101D01*
X117294129Y-89678361D01*
X117167466Y-89819035D01*
X117072821Y-89982965D01*
X117072818Y-89982972D01*
X117014327Y-90162990D01*
X117014326Y-90162994D01*
X116994540Y-90351250D01*
X117014326Y-90539506D01*
X117014327Y-90539509D01*
X117072818Y-90719527D01*
X117072820Y-90719531D01*
X117072821Y-90719534D01*
X117112510Y-90788277D01*
X117150812Y-90854619D01*
X117167284Y-90922519D01*
X117150811Y-90978617D01*
X117084073Y-91094210D01*
X117084068Y-91094222D01*
X117033567Y-91249649D01*
X117025576Y-91274244D01*
X117005790Y-91462500D01*
X117025576Y-91650756D01*
X117025577Y-91650759D01*
X117086079Y-91836965D01*
X117083397Y-91837836D01*
X117091026Y-91894847D01*
X117061381Y-91958116D01*
X117002236Y-91995313D01*
X116968467Y-92000000D01*
X110487546Y-92000000D01*
X110420507Y-91980315D01*
X110374752Y-91927511D01*
X110364808Y-91858353D01*
X110369615Y-91837683D01*
X110385233Y-91789612D01*
X110385674Y-91788256D01*
X110405460Y-91600000D01*
X110385674Y-91411744D01*
X110327179Y-91231716D01*
X110232533Y-91067784D01*
X110105871Y-90927112D01*
X110105446Y-90926803D01*
X109952734Y-90815851D01*
X109952729Y-90815848D01*
X109779807Y-90738857D01*
X109779802Y-90738855D01*
X109630444Y-90707109D01*
X109594646Y-90699500D01*
X109405354Y-90699500D01*
X109372897Y-90706398D01*
X109220197Y-90738855D01*
X109220192Y-90738857D01*
X109047270Y-90815848D01*
X109047265Y-90815851D01*
X108894129Y-90927111D01*
X108767466Y-91067785D01*
X108672821Y-91231715D01*
X108672818Y-91231722D01*
X108614327Y-91411740D01*
X108614326Y-91411744D01*
X108598864Y-91558856D01*
X108594540Y-91600000D01*
X108600536Y-91657050D01*
X108587966Y-91725780D01*
X108540234Y-91776804D01*
X108472493Y-91793921D01*
X108406252Y-91771698D01*
X108404384Y-91770368D01*
X108277730Y-91678349D01*
X108277729Y-91678348D01*
X108104807Y-91601357D01*
X108104802Y-91601355D01*
X107949177Y-91568277D01*
X107919646Y-91562000D01*
X107730354Y-91562000D01*
X107700823Y-91568277D01*
X107545197Y-91601355D01*
X107545192Y-91601357D01*
X107372270Y-91678348D01*
X107372265Y-91678351D01*
X107219129Y-91789611D01*
X107092467Y-91930283D01*
X107088013Y-91937999D01*
X107037446Y-91986215D01*
X106980625Y-92000000D01*
X106000000Y-92000000D01*
X106000000Y-93876000D01*
X105980315Y-93943039D01*
X105927511Y-93988794D01*
X105876000Y-94000000D01*
X101000000Y-94000000D01*
X101000000Y-111000000D01*
X103463681Y-113463681D01*
X103497166Y-113525004D01*
X103500000Y-113551362D01*
X103500000Y-114522687D01*
X103480315Y-114589726D01*
X103427511Y-114635481D01*
X103358353Y-114645425D01*
X103294797Y-114616400D01*
X103265515Y-114578982D01*
X103208689Y-114467456D01*
X102997468Y-114142206D01*
X102788904Y-113884649D01*
X102788903Y-113884648D01*
X101294251Y-115379300D01*
X101220412Y-115277670D01*
X101042330Y-115099588D01*
X100940698Y-115025748D01*
X102435350Y-113531096D01*
X102435350Y-113531095D01*
X102177793Y-113322531D01*
X101852543Y-113111310D01*
X101506994Y-112935244D01*
X101144936Y-112796262D01*
X100770330Y-112695887D01*
X100770323Y-112695886D01*
X100387287Y-112635219D01*
X100000001Y-112614922D01*
X99999999Y-112614922D01*
X99612712Y-112635219D01*
X99229676Y-112695886D01*
X99229669Y-112695887D01*
X98855063Y-112796262D01*
X98493005Y-112935244D01*
X98147456Y-113111310D01*
X97822206Y-113322531D01*
X97564648Y-113531095D01*
X97564648Y-113531096D01*
X99059301Y-115025748D01*
X98957670Y-115099588D01*
X98779588Y-115277670D01*
X98705748Y-115379300D01*
X97211096Y-113884648D01*
X97211095Y-113884648D01*
X97002531Y-114142206D01*
X96791310Y-114467456D01*
X96615244Y-114813005D01*
X96476262Y-115175063D01*
X96375887Y-115549669D01*
X96375886Y-115549676D01*
X96315219Y-115932712D01*
X96294922Y-116319999D01*
X96294922Y-116320000D01*
X96315219Y-116707287D01*
X96375886Y-117090323D01*
X96375887Y-117090330D01*
X96476262Y-117464936D01*
X96615244Y-117826994D01*
X96791310Y-118172543D01*
X97002531Y-118497793D01*
X97211095Y-118755350D01*
X97211096Y-118755350D01*
X98705748Y-117260698D01*
X98779588Y-117362330D01*
X98957670Y-117540412D01*
X99059300Y-117614251D01*
X97564648Y-119108903D01*
X97564649Y-119108904D01*
X97822206Y-119317468D01*
X98147456Y-119528689D01*
X98493005Y-119704755D01*
X98855063Y-119843737D01*
X99229669Y-119944112D01*
X99229676Y-119944113D01*
X99612712Y-120004780D01*
X99999999Y-120025078D01*
X100000001Y-120025078D01*
X100387287Y-120004780D01*
X100770323Y-119944113D01*
X100770330Y-119944112D01*
X101144936Y-119843737D01*
X101506994Y-119704755D01*
X101852543Y-119528689D01*
X102177783Y-119317476D01*
X102177785Y-119317475D01*
X102435349Y-119108902D01*
X100940698Y-117614251D01*
X101042330Y-117540412D01*
X101220412Y-117362330D01*
X101294251Y-117260698D01*
X102788902Y-118755349D01*
X102997475Y-118497785D01*
X102997476Y-118497783D01*
X103208689Y-118172543D01*
X103265515Y-118061017D01*
X103313489Y-118010221D01*
X103381310Y-117993426D01*
X103447445Y-118015963D01*
X103490897Y-118070678D01*
X103500000Y-118117312D01*
X103500000Y-121196000D01*
X103480315Y-121263039D01*
X103427511Y-121308794D01*
X103376000Y-121320000D01*
X100000710Y-121320000D01*
X99999359Y-121319993D01*
X99994454Y-121319939D01*
X99786527Y-121317671D01*
X99777073Y-121317206D01*
X99352450Y-121280056D01*
X99341725Y-121278644D01*
X98922623Y-121204746D01*
X98912061Y-121202405D01*
X98500980Y-121092256D01*
X98490664Y-121089003D01*
X98090759Y-120943450D01*
X98080764Y-120939310D01*
X97695062Y-120759454D01*
X97685467Y-120754459D01*
X97316916Y-120541676D01*
X97307792Y-120535864D01*
X96959179Y-120291762D01*
X96950597Y-120285177D01*
X96624579Y-120011616D01*
X96616604Y-120004307D01*
X96315692Y-119703395D01*
X96308383Y-119695420D01*
X96034822Y-119369402D01*
X96028237Y-119360820D01*
X95997887Y-119317476D01*
X95784132Y-119012203D01*
X95778323Y-119003083D01*
X95635294Y-118755350D01*
X95565538Y-118634528D01*
X95560545Y-118624937D01*
X95484693Y-118462271D01*
X95380683Y-118239221D01*
X95376555Y-118229255D01*
X95230992Y-117829322D01*
X95227747Y-117819033D01*
X95117590Y-117407921D01*
X95115256Y-117397393D01*
X95041354Y-116978270D01*
X95039943Y-116967549D01*
X95034223Y-116902166D01*
X95002792Y-116542915D01*
X95002328Y-116533471D01*
X95001208Y-116430802D01*
X95000007Y-116320641D01*
X95000000Y-116319289D01*
X95000000Y-99299997D01*
X97944723Y-99299997D01*
X97944723Y-99300002D01*
X97963793Y-99517975D01*
X97963793Y-99517979D01*
X98020422Y-99729322D01*
X98020424Y-99729326D01*
X98020425Y-99729330D01*
X98066661Y-99828484D01*
X98112897Y-99927638D01*
X98120752Y-99938856D01*
X98238402Y-100106877D01*
X98393123Y-100261598D01*
X98572361Y-100387102D01*
X98770670Y-100479575D01*
X98982023Y-100536207D01*
X99164926Y-100552208D01*
X99199998Y-100555277D01*
X99200000Y-100555277D01*
X99200002Y-100555277D01*
X99228254Y-100552805D01*
X99417977Y-100536207D01*
X99629330Y-100479575D01*
X99827639Y-100387102D01*
X100006877Y-100261598D01*
X100161598Y-100106877D01*
X100287102Y-99927639D01*
X100379575Y-99729330D01*
X100436207Y-99517977D01*
X100452805Y-99328254D01*
X100455277Y-99300002D01*
X100455277Y-99299997D01*
X100450609Y-99246648D01*
X100436207Y-99082023D01*
X100379575Y-98870670D01*
X100287102Y-98672362D01*
X100287100Y-98672359D01*
X100287099Y-98672357D01*
X100161599Y-98493124D01*
X100130975Y-98462500D01*
X100006877Y-98338402D01*
X99827639Y-98212898D01*
X99827640Y-98212898D01*
X99827638Y-98212897D01*
X99728484Y-98166661D01*
X99629330Y-98120425D01*
X99629326Y-98120424D01*
X99629322Y-98120422D01*
X99417977Y-98063793D01*
X99200002Y-98044723D01*
X99199998Y-98044723D01*
X99054682Y-98057436D01*
X98982023Y-98063793D01*
X98982020Y-98063793D01*
X98770677Y-98120422D01*
X98770668Y-98120426D01*
X98572361Y-98212898D01*
X98572357Y-98212900D01*
X98393121Y-98338402D01*
X98238402Y-98493121D01*
X98112900Y-98672357D01*
X98112898Y-98672361D01*
X98020426Y-98870668D01*
X98020422Y-98870677D01*
X97963793Y-99082020D01*
X97963793Y-99082024D01*
X97944723Y-99299997D01*
X95000000Y-99299997D01*
X95000000Y-95999997D01*
X97944723Y-95999997D01*
X97944723Y-96000002D01*
X97963793Y-96217975D01*
X97963793Y-96217979D01*
X98020422Y-96429322D01*
X98020424Y-96429326D01*
X98020425Y-96429330D01*
X98066661Y-96528484D01*
X98112897Y-96627638D01*
X98112898Y-96627639D01*
X98238402Y-96806877D01*
X98393123Y-96961598D01*
X98572361Y-97087102D01*
X98770670Y-97179575D01*
X98982023Y-97236207D01*
X99164926Y-97252208D01*
X99199998Y-97255277D01*
X99200000Y-97255277D01*
X99200002Y-97255277D01*
X99228254Y-97252805D01*
X99417977Y-97236207D01*
X99629330Y-97179575D01*
X99827639Y-97087102D01*
X100006877Y-96961598D01*
X100161598Y-96806877D01*
X100287102Y-96627639D01*
X100379575Y-96429330D01*
X100436207Y-96217977D01*
X100455277Y-96000000D01*
X100436207Y-95782023D01*
X100379575Y-95570670D01*
X100287102Y-95372362D01*
X100287100Y-95372359D01*
X100287099Y-95372357D01*
X100161599Y-95193124D01*
X100084323Y-95115848D01*
X100006877Y-95038402D01*
X99827639Y-94912898D01*
X99827640Y-94912898D01*
X99827638Y-94912897D01*
X99728484Y-94866661D01*
X99629330Y-94820425D01*
X99629326Y-94820424D01*
X99629322Y-94820422D01*
X99417977Y-94763793D01*
X99200002Y-94744723D01*
X99199998Y-94744723D01*
X99054682Y-94757436D01*
X98982023Y-94763793D01*
X98982020Y-94763793D01*
X98770677Y-94820422D01*
X98770668Y-94820426D01*
X98572361Y-94912898D01*
X98572357Y-94912900D01*
X98393121Y-95038402D01*
X98238402Y-95193121D01*
X98112900Y-95372357D01*
X98112898Y-95372361D01*
X98020426Y-95570668D01*
X98020422Y-95570677D01*
X97963793Y-95782020D01*
X97963793Y-95782024D01*
X97944723Y-95999997D01*
X95000000Y-95999997D01*
X95000000Y-92899997D01*
X97944723Y-92899997D01*
X97944723Y-92900002D01*
X97948122Y-92938856D01*
X97960833Y-93084148D01*
X97963793Y-93117975D01*
X97963793Y-93117979D01*
X98020422Y-93329322D01*
X98020424Y-93329326D01*
X98020425Y-93329330D01*
X98038590Y-93368284D01*
X98112897Y-93527638D01*
X98112898Y-93527639D01*
X98238402Y-93706877D01*
X98393123Y-93861598D01*
X98572361Y-93987102D01*
X98770670Y-94079575D01*
X98982023Y-94136207D01*
X99164926Y-94152208D01*
X99199998Y-94155277D01*
X99200000Y-94155277D01*
X99200002Y-94155277D01*
X99228254Y-94152805D01*
X99417977Y-94136207D01*
X99629330Y-94079575D01*
X99827639Y-93987102D01*
X100006877Y-93861598D01*
X100161598Y-93706877D01*
X100287102Y-93527639D01*
X100379575Y-93329330D01*
X100436207Y-93117977D01*
X100455277Y-92900000D01*
X100436207Y-92682023D01*
X100379575Y-92470670D01*
X100287102Y-92272362D01*
X100287100Y-92272359D01*
X100287099Y-92272357D01*
X100161599Y-92093124D01*
X100103670Y-92035195D01*
X100006877Y-91938402D01*
X99863036Y-91837683D01*
X99827638Y-91812897D01*
X99686558Y-91747111D01*
X99629330Y-91720425D01*
X99629326Y-91720424D01*
X99629322Y-91720422D01*
X99417977Y-91663793D01*
X99200002Y-91644723D01*
X99199998Y-91644723D01*
X99059098Y-91657050D01*
X98982023Y-91663793D01*
X98982020Y-91663793D01*
X98770677Y-91720422D01*
X98770668Y-91720426D01*
X98572361Y-91812898D01*
X98572357Y-91812900D01*
X98393121Y-91938402D01*
X98238402Y-92093121D01*
X98112900Y-92272357D01*
X98112898Y-92272361D01*
X98020426Y-92470668D01*
X98020422Y-92470677D01*
X97963793Y-92682020D01*
X97963793Y-92682024D01*
X97944723Y-92899997D01*
X95000000Y-92899997D01*
X95000000Y-91400000D01*
X101207040Y-91400000D01*
X101226826Y-91588256D01*
X101226827Y-91588259D01*
X101285318Y-91768277D01*
X101285321Y-91768284D01*
X101379967Y-91932216D01*
X101472690Y-92035195D01*
X101506629Y-92072888D01*
X101659765Y-92184148D01*
X101659770Y-92184151D01*
X101832692Y-92261142D01*
X101832697Y-92261144D01*
X102017854Y-92300500D01*
X102017855Y-92300500D01*
X102207144Y-92300500D01*
X102207146Y-92300500D01*
X102392303Y-92261144D01*
X102565230Y-92184151D01*
X102718371Y-92072888D01*
X102845033Y-91932216D01*
X102939679Y-91768284D01*
X102998174Y-91588256D01*
X103017960Y-91400000D01*
X102998174Y-91211744D01*
X102939679Y-91031716D01*
X102845033Y-90867784D01*
X102718371Y-90727112D01*
X102718370Y-90727111D01*
X102565234Y-90615851D01*
X102565229Y-90615848D01*
X102392307Y-90538857D01*
X102392302Y-90538855D01*
X102241852Y-90506877D01*
X102207146Y-90499500D01*
X102017854Y-90499500D01*
X101985397Y-90506398D01*
X101832697Y-90538855D01*
X101832692Y-90538857D01*
X101659770Y-90615848D01*
X101659765Y-90615851D01*
X101506629Y-90727111D01*
X101379966Y-90867785D01*
X101285321Y-91031715D01*
X101285318Y-91031722D01*
X101259027Y-91112639D01*
X101226826Y-91211744D01*
X101207040Y-91400000D01*
X95000000Y-91400000D01*
X95000000Y-89699997D01*
X97944723Y-89699997D01*
X97944723Y-89700002D01*
X97963793Y-89917975D01*
X97963793Y-89917979D01*
X98020422Y-90129322D01*
X98020424Y-90129326D01*
X98020425Y-90129330D01*
X98041672Y-90174894D01*
X98112897Y-90327638D01*
X98120752Y-90338856D01*
X98238402Y-90506877D01*
X98393123Y-90661598D01*
X98572361Y-90787102D01*
X98770670Y-90879575D01*
X98982023Y-90936207D01*
X99164926Y-90952208D01*
X99199998Y-90955277D01*
X99200000Y-90955277D01*
X99200002Y-90955277D01*
X99234988Y-90952216D01*
X99417977Y-90936207D01*
X99629330Y-90879575D01*
X99827639Y-90787102D01*
X100006877Y-90661598D01*
X100161598Y-90506877D01*
X100287102Y-90327639D01*
X100379575Y-90129330D01*
X100436207Y-89917977D01*
X100455277Y-89700000D01*
X100436207Y-89482023D01*
X100379575Y-89270670D01*
X100287102Y-89072362D01*
X100287100Y-89072359D01*
X100287099Y-89072357D01*
X100161599Y-88893124D01*
X100101613Y-88833138D01*
X100006877Y-88738402D01*
X99827639Y-88612898D01*
X99827640Y-88612898D01*
X99827638Y-88612897D01*
X99693824Y-88550499D01*
X99629330Y-88520425D01*
X99629326Y-88520424D01*
X99629322Y-88520422D01*
X99417977Y-88463793D01*
X99200002Y-88444723D01*
X99199998Y-88444723D01*
X99054682Y-88457436D01*
X98982023Y-88463793D01*
X98982020Y-88463793D01*
X98770677Y-88520422D01*
X98770668Y-88520426D01*
X98572361Y-88612898D01*
X98572357Y-88612900D01*
X98393121Y-88738402D01*
X98238402Y-88893121D01*
X98112900Y-89072357D01*
X98112898Y-89072361D01*
X98020426Y-89270668D01*
X98020422Y-89270677D01*
X97963793Y-89482020D01*
X97963793Y-89482024D01*
X97944723Y-89699997D01*
X95000000Y-89699997D01*
X95000000Y-87543124D01*
X98510427Y-87543124D01*
X98572612Y-87586666D01*
X98770840Y-87679101D01*
X98770849Y-87679105D01*
X98982105Y-87735710D01*
X98982115Y-87735712D01*
X99199999Y-87754775D01*
X99200001Y-87754775D01*
X99417884Y-87735712D01*
X99417894Y-87735710D01*
X99629150Y-87679105D01*
X99629164Y-87679100D01*
X99827383Y-87586669D01*
X99827385Y-87586668D01*
X99889571Y-87543124D01*
X99200001Y-86853553D01*
X99200000Y-86853553D01*
X98510427Y-87543124D01*
X95000000Y-87543124D01*
X95000000Y-86499999D01*
X97945225Y-86499999D01*
X97945225Y-86500000D01*
X97964287Y-86717884D01*
X97964289Y-86717894D01*
X98020894Y-86929150D01*
X98020898Y-86929159D01*
X98113333Y-87127387D01*
X98156874Y-87189571D01*
X98846446Y-86500000D01*
X98800368Y-86453922D01*
X98850000Y-86453922D01*
X98850000Y-86546078D01*
X98873852Y-86635095D01*
X98919930Y-86714905D01*
X98985095Y-86780070D01*
X99064905Y-86826148D01*
X99153922Y-86850000D01*
X99246078Y-86850000D01*
X99335095Y-86826148D01*
X99414905Y-86780070D01*
X99480070Y-86714905D01*
X99526148Y-86635095D01*
X99550000Y-86546078D01*
X99550000Y-86499999D01*
X99553553Y-86499999D01*
X99553553Y-86500000D01*
X100243124Y-87189570D01*
X100286668Y-87127385D01*
X100286669Y-87127383D01*
X100379100Y-86929164D01*
X100379105Y-86929150D01*
X100435710Y-86717894D01*
X100435712Y-86717884D01*
X100454775Y-86500000D01*
X100454775Y-86499999D01*
X100435712Y-86282115D01*
X100435710Y-86282105D01*
X100379105Y-86070849D01*
X100379101Y-86070840D01*
X100286667Y-85872614D01*
X100286666Y-85872612D01*
X100243124Y-85810428D01*
X100243124Y-85810427D01*
X99553553Y-86499999D01*
X99550000Y-86499999D01*
X99550000Y-86453922D01*
X99526148Y-86364905D01*
X99480070Y-86285095D01*
X99414905Y-86219930D01*
X99335095Y-86173852D01*
X99246078Y-86150000D01*
X99153922Y-86150000D01*
X99064905Y-86173852D01*
X98985095Y-86219930D01*
X98919930Y-86285095D01*
X98873852Y-86364905D01*
X98850000Y-86453922D01*
X98800368Y-86453922D01*
X98156874Y-85810428D01*
X98113333Y-85872613D01*
X98020898Y-86070840D01*
X98020894Y-86070849D01*
X97964289Y-86282105D01*
X97964287Y-86282115D01*
X97945225Y-86499999D01*
X95000000Y-86499999D01*
X95000000Y-85456874D01*
X98510428Y-85456874D01*
X99200000Y-86146446D01*
X99200001Y-86146446D01*
X99733945Y-85612500D01*
X106919540Y-85612500D01*
X106939326Y-85800756D01*
X106939327Y-85800759D01*
X106997818Y-85980777D01*
X106997821Y-85980784D01*
X107092467Y-86144716D01*
X107219129Y-86285388D01*
X107273213Y-86324682D01*
X107315878Y-86380012D01*
X107321857Y-86449626D01*
X107289251Y-86511420D01*
X107273213Y-86525318D01*
X107219127Y-86564613D01*
X107092466Y-86705285D01*
X106997821Y-86869215D01*
X106997818Y-86869222D01*
X106939327Y-87049240D01*
X106939326Y-87049244D01*
X106919540Y-87237500D01*
X106939326Y-87425756D01*
X106939327Y-87425759D01*
X106997818Y-87605777D01*
X106997821Y-87605784D01*
X107092467Y-87769716D01*
X107166561Y-87852005D01*
X107219129Y-87910388D01*
X107372265Y-88021648D01*
X107372270Y-88021651D01*
X107545192Y-88098642D01*
X107545197Y-88098644D01*
X107730354Y-88138000D01*
X107730355Y-88138000D01*
X107919644Y-88138000D01*
X107919646Y-88138000D01*
X108104803Y-88098644D01*
X108277730Y-88021651D01*
X108430871Y-87910388D01*
X108557533Y-87769716D01*
X108652179Y-87605784D01*
X108710674Y-87425756D01*
X108730460Y-87237500D01*
X108710674Y-87049244D01*
X108652179Y-86869216D01*
X108557533Y-86705284D01*
X108430871Y-86564612D01*
X108376786Y-86525317D01*
X108334121Y-86469989D01*
X108328142Y-86400375D01*
X108360747Y-86338580D01*
X108376787Y-86324682D01*
X108430871Y-86285388D01*
X108557533Y-86144716D01*
X108617613Y-86040653D01*
X108668179Y-85992439D01*
X108736786Y-85979215D01*
X108801651Y-86005183D01*
X108832386Y-86040653D01*
X108892467Y-86144716D01*
X108970808Y-86231722D01*
X109019129Y-86285388D01*
X109172265Y-86396648D01*
X109172270Y-86396651D01*
X109345192Y-86473642D01*
X109345197Y-86473644D01*
X109530354Y-86513000D01*
X109530355Y-86513000D01*
X109719644Y-86513000D01*
X109719646Y-86513000D01*
X109904803Y-86473644D01*
X110077730Y-86396651D01*
X110230871Y-86285388D01*
X110357533Y-86144716D01*
X110452179Y-85980784D01*
X110510674Y-85800756D01*
X110530460Y-85612500D01*
X114144540Y-85612500D01*
X114164326Y-85800756D01*
X114164327Y-85800759D01*
X114222818Y-85980777D01*
X114222821Y-85980784D01*
X114317467Y-86144716D01*
X114395808Y-86231722D01*
X114444129Y-86285388D01*
X114597265Y-86396648D01*
X114597270Y-86396651D01*
X114770192Y-86473642D01*
X114770197Y-86473644D01*
X114955354Y-86513000D01*
X114955355Y-86513000D01*
X115144644Y-86513000D01*
X115144646Y-86513000D01*
X115329803Y-86473644D01*
X115502730Y-86396651D01*
X115655871Y-86285388D01*
X115782533Y-86144716D01*
X115877179Y-85980784D01*
X115935674Y-85800756D01*
X115955460Y-85612500D01*
X120144540Y-85612500D01*
X120164326Y-85800756D01*
X120164327Y-85800759D01*
X120222818Y-85980777D01*
X120222821Y-85980784D01*
X120317467Y-86144716D01*
X120395808Y-86231722D01*
X120444129Y-86285388D01*
X120597265Y-86396648D01*
X120597270Y-86396651D01*
X120770192Y-86473642D01*
X120770197Y-86473644D01*
X120955354Y-86513000D01*
X120955355Y-86513000D01*
X121144644Y-86513000D01*
X121144646Y-86513000D01*
X121329803Y-86473644D01*
X121502730Y-86396651D01*
X121655871Y-86285388D01*
X121782533Y-86144716D01*
X121877179Y-85980784D01*
X121935674Y-85800756D01*
X121955460Y-85612500D01*
X126144540Y-85612500D01*
X126164326Y-85800756D01*
X126164327Y-85800759D01*
X126222818Y-85980777D01*
X126222821Y-85980784D01*
X126317467Y-86144716D01*
X126395808Y-86231722D01*
X126444129Y-86285388D01*
X126597265Y-86396648D01*
X126597270Y-86396651D01*
X126770192Y-86473642D01*
X126770197Y-86473644D01*
X126955354Y-86513000D01*
X126955355Y-86513000D01*
X127144644Y-86513000D01*
X127144646Y-86513000D01*
X127329803Y-86473644D01*
X127502730Y-86396651D01*
X127655871Y-86285388D01*
X127782533Y-86144716D01*
X127877179Y-85980784D01*
X127935674Y-85800756D01*
X127955460Y-85612500D01*
X132144540Y-85612500D01*
X132164326Y-85800756D01*
X132164327Y-85800759D01*
X132222818Y-85980777D01*
X132222821Y-85980784D01*
X132317467Y-86144716D01*
X132395808Y-86231722D01*
X132444129Y-86285388D01*
X132597265Y-86396648D01*
X132597270Y-86396651D01*
X132770192Y-86473642D01*
X132770197Y-86473644D01*
X132955354Y-86513000D01*
X132955355Y-86513000D01*
X133144644Y-86513000D01*
X133144646Y-86513000D01*
X133329803Y-86473644D01*
X133502730Y-86396651D01*
X133655871Y-86285388D01*
X133782533Y-86144716D01*
X133877179Y-85980784D01*
X133935674Y-85800756D01*
X133955460Y-85612500D01*
X138144540Y-85612500D01*
X138164326Y-85800756D01*
X138164327Y-85800759D01*
X138222818Y-85980777D01*
X138222821Y-85980784D01*
X138317467Y-86144716D01*
X138395808Y-86231722D01*
X138444129Y-86285388D01*
X138597265Y-86396648D01*
X138597270Y-86396651D01*
X138770192Y-86473642D01*
X138770197Y-86473644D01*
X138955354Y-86513000D01*
X138955355Y-86513000D01*
X139144644Y-86513000D01*
X139144646Y-86513000D01*
X139329803Y-86473644D01*
X139502730Y-86396651D01*
X139655871Y-86285388D01*
X139782533Y-86144716D01*
X139877179Y-85980784D01*
X139935674Y-85800756D01*
X139955460Y-85612500D01*
X143544540Y-85612500D01*
X143564326Y-85800756D01*
X143564327Y-85800759D01*
X143622818Y-85980777D01*
X143622821Y-85980784D01*
X143717467Y-86144716D01*
X143795808Y-86231722D01*
X143844129Y-86285388D01*
X143997265Y-86396648D01*
X143997270Y-86396651D01*
X144170192Y-86473642D01*
X144170197Y-86473644D01*
X144355354Y-86513000D01*
X144355355Y-86513000D01*
X144544644Y-86513000D01*
X144544646Y-86513000D01*
X144729803Y-86473644D01*
X144902730Y-86396651D01*
X145055871Y-86285388D01*
X145182533Y-86144716D01*
X145255113Y-86019002D01*
X145305679Y-85970788D01*
X145374286Y-85957564D01*
X145439151Y-85983532D01*
X145469886Y-86019001D01*
X145542467Y-86144716D01*
X145669129Y-86285388D01*
X145723213Y-86324682D01*
X145765878Y-86380012D01*
X145771857Y-86449626D01*
X145739251Y-86511420D01*
X145723213Y-86525318D01*
X145669127Y-86564613D01*
X145542466Y-86705285D01*
X145447821Y-86869215D01*
X145447818Y-86869222D01*
X145389327Y-87049240D01*
X145389326Y-87049244D01*
X145369540Y-87237500D01*
X145389326Y-87425756D01*
X145389327Y-87425759D01*
X145447818Y-87605777D01*
X145447821Y-87605784D01*
X145542467Y-87769716D01*
X145616561Y-87852005D01*
X145669129Y-87910388D01*
X145822265Y-88021648D01*
X145822270Y-88021651D01*
X145995192Y-88098642D01*
X145995197Y-88098644D01*
X146180354Y-88138000D01*
X146180355Y-88138000D01*
X146369644Y-88138000D01*
X146369646Y-88138000D01*
X146554803Y-88098644D01*
X146727730Y-88021651D01*
X146880871Y-87910388D01*
X146968140Y-87813466D01*
X149219408Y-87813466D01*
X149239194Y-88001722D01*
X149239195Y-88001725D01*
X149297686Y-88181743D01*
X149297689Y-88181750D01*
X149392335Y-88345682D01*
X149457257Y-88417785D01*
X149518997Y-88486354D01*
X149672133Y-88597614D01*
X149672138Y-88597617D01*
X149845060Y-88674608D01*
X149845061Y-88674608D01*
X149845065Y-88674610D01*
X149959281Y-88698887D01*
X150020763Y-88732079D01*
X150054540Y-88793242D01*
X150056822Y-88833138D01*
X150044540Y-88950000D01*
X150064326Y-89138256D01*
X150064327Y-89138259D01*
X150122818Y-89318277D01*
X150122821Y-89318284D01*
X150152505Y-89369698D01*
X150168978Y-89437599D01*
X150152505Y-89493697D01*
X150072823Y-89631710D01*
X150072819Y-89631719D01*
X150032015Y-89757301D01*
X149992577Y-89814976D01*
X149939869Y-89840271D01*
X149913092Y-89845963D01*
X149913083Y-89845966D01*
X149740161Y-89922957D01*
X149740156Y-89922960D01*
X149587020Y-90034220D01*
X149460357Y-90174894D01*
X149365712Y-90338824D01*
X149365709Y-90338831D01*
X149339336Y-90420000D01*
X149307217Y-90518853D01*
X149287431Y-90707109D01*
X149307217Y-90895365D01*
X149307218Y-90895368D01*
X149365709Y-91075386D01*
X149365712Y-91075393D01*
X149460358Y-91239325D01*
X149587020Y-91379997D01*
X149622562Y-91405819D01*
X149665226Y-91461147D01*
X149671205Y-91530760D01*
X149638600Y-91592556D01*
X149622563Y-91606452D01*
X149594130Y-91627110D01*
X149594129Y-91627111D01*
X149467466Y-91767785D01*
X149372821Y-91931715D01*
X149372818Y-91931722D01*
X149317979Y-92100500D01*
X149314326Y-92111744D01*
X149294540Y-92300000D01*
X149314326Y-92488256D01*
X149314327Y-92488259D01*
X149372818Y-92668277D01*
X149372821Y-92668284D01*
X149467467Y-92832216D01*
X149563487Y-92938857D01*
X149594129Y-92972888D01*
X149747265Y-93084148D01*
X149747270Y-93084151D01*
X149920192Y-93161142D01*
X149920197Y-93161144D01*
X150105354Y-93200500D01*
X150105355Y-93200500D01*
X150294644Y-93200500D01*
X150294646Y-93200500D01*
X150479803Y-93161144D01*
X150652730Y-93084151D01*
X150805871Y-92972888D01*
X150932533Y-92832216D01*
X151027179Y-92668284D01*
X151085674Y-92488256D01*
X151095598Y-92393828D01*
X151122182Y-92329214D01*
X151168483Y-92293510D01*
X151215992Y-92272357D01*
X151328969Y-92222056D01*
X151482110Y-92110793D01*
X151608772Y-91970121D01*
X151703418Y-91806189D01*
X151761913Y-91626161D01*
X151781699Y-91437905D01*
X151761913Y-91249649D01*
X151703418Y-91069621D01*
X151608772Y-90905689D01*
X151527221Y-90815118D01*
X151496992Y-90752128D01*
X151505617Y-90682793D01*
X151527222Y-90649175D01*
X151557229Y-90615849D01*
X151632533Y-90532216D01*
X151727179Y-90368284D01*
X151785674Y-90188256D01*
X151805460Y-90000000D01*
X151785674Y-89811744D01*
X151727179Y-89631716D01*
X151697493Y-89580299D01*
X151681021Y-89512401D01*
X151697492Y-89456304D01*
X151777179Y-89318284D01*
X151835674Y-89138256D01*
X151855460Y-88950000D01*
X151835674Y-88761744D01*
X151815612Y-88700000D01*
X160494540Y-88700000D01*
X160514326Y-88888256D01*
X160514327Y-88888259D01*
X160572818Y-89068277D01*
X160572821Y-89068284D01*
X160667467Y-89232216D01*
X160791257Y-89369698D01*
X160794129Y-89372888D01*
X160947265Y-89484148D01*
X160947270Y-89484151D01*
X161120192Y-89561142D01*
X161120197Y-89561144D01*
X161305354Y-89600500D01*
X161305355Y-89600500D01*
X161494644Y-89600500D01*
X161494646Y-89600500D01*
X161679803Y-89561144D01*
X161852730Y-89484151D01*
X162005871Y-89372888D01*
X162132533Y-89232216D01*
X162227179Y-89068284D01*
X162285674Y-88888256D01*
X162305460Y-88700000D01*
X162285674Y-88511744D01*
X162227179Y-88331716D01*
X162160310Y-88215895D01*
X162143837Y-88147994D01*
X162166690Y-88081968D01*
X162194812Y-88053577D01*
X162266184Y-88001722D01*
X162305871Y-87972888D01*
X162432533Y-87832216D01*
X162527179Y-87668284D01*
X162585674Y-87488256D01*
X162605460Y-87300000D01*
X162585674Y-87111744D01*
X162527179Y-86931716D01*
X162432533Y-86767784D01*
X162305871Y-86627112D01*
X162302429Y-86624611D01*
X162268555Y-86600000D01*
X165394540Y-86600000D01*
X165414326Y-86788256D01*
X165414327Y-86788259D01*
X165472818Y-86968277D01*
X165472821Y-86968284D01*
X165567467Y-87132216D01*
X165694129Y-87272888D01*
X165847265Y-87384148D01*
X165847270Y-87384151D01*
X166020192Y-87461142D01*
X166020197Y-87461144D01*
X166205354Y-87500500D01*
X166205355Y-87500500D01*
X166394644Y-87500500D01*
X166394646Y-87500500D01*
X166579803Y-87461144D01*
X166752730Y-87384151D01*
X166905871Y-87272888D01*
X167032533Y-87132216D01*
X167127179Y-86968284D01*
X167185674Y-86788256D01*
X167205460Y-86600000D01*
X167185674Y-86411744D01*
X167150060Y-86302135D01*
X169749500Y-86302135D01*
X169749500Y-88097870D01*
X169749501Y-88097876D01*
X169755908Y-88157483D01*
X169806202Y-88292328D01*
X169806206Y-88292335D01*
X169892452Y-88407544D01*
X169892455Y-88407547D01*
X170007664Y-88493793D01*
X170007671Y-88493797D01*
X170142517Y-88544091D01*
X170142516Y-88544091D01*
X170149444Y-88544835D01*
X170202127Y-88550500D01*
X171997872Y-88550499D01*
X172057483Y-88544091D01*
X172192331Y-88493796D01*
X172307546Y-88407546D01*
X172393796Y-88292331D01*
X172444091Y-88157483D01*
X172450500Y-88097873D01*
X172450499Y-86302128D01*
X172444091Y-86242517D01*
X172440062Y-86231716D01*
X172393797Y-86107671D01*
X172393793Y-86107664D01*
X172307547Y-85992455D01*
X172307544Y-85992452D01*
X172192335Y-85906206D01*
X172192328Y-85906202D01*
X172057482Y-85855908D01*
X172057483Y-85855908D01*
X171997883Y-85849501D01*
X171997881Y-85849500D01*
X171997873Y-85849500D01*
X171997864Y-85849500D01*
X170202129Y-85849500D01*
X170202123Y-85849501D01*
X170142516Y-85855908D01*
X170007671Y-85906202D01*
X170007664Y-85906206D01*
X169892455Y-85992452D01*
X169892452Y-85992455D01*
X169806206Y-86107664D01*
X169806202Y-86107671D01*
X169755908Y-86242517D01*
X169749501Y-86302116D01*
X169749501Y-86302123D01*
X169749500Y-86302135D01*
X167150060Y-86302135D01*
X167127179Y-86231716D01*
X167032533Y-86067784D01*
X166905871Y-85927112D01*
X166905870Y-85927111D01*
X166752734Y-85815851D01*
X166752729Y-85815848D01*
X166579807Y-85738857D01*
X166579802Y-85738855D01*
X166434001Y-85707865D01*
X166394646Y-85699500D01*
X166205354Y-85699500D01*
X166172897Y-85706398D01*
X166020197Y-85738855D01*
X166020192Y-85738857D01*
X165847270Y-85815848D01*
X165847265Y-85815851D01*
X165694129Y-85927111D01*
X165567466Y-86067785D01*
X165472821Y-86231715D01*
X165472818Y-86231722D01*
X165418304Y-86399500D01*
X165414326Y-86411744D01*
X165394540Y-86600000D01*
X162268555Y-86600000D01*
X162152734Y-86515851D01*
X162152729Y-86515848D01*
X161979807Y-86438857D01*
X161979802Y-86438855D01*
X161834001Y-86407865D01*
X161794646Y-86399500D01*
X161605354Y-86399500D01*
X161572897Y-86406398D01*
X161420197Y-86438855D01*
X161420192Y-86438857D01*
X161247270Y-86515848D01*
X161247265Y-86515851D01*
X161094129Y-86627111D01*
X160967466Y-86767785D01*
X160872821Y-86931715D01*
X160872818Y-86931722D01*
X160815138Y-87109244D01*
X160814326Y-87111744D01*
X160794540Y-87300000D01*
X160814326Y-87488256D01*
X160814327Y-87488259D01*
X160872818Y-87668277D01*
X160872820Y-87668281D01*
X160872821Y-87668284D01*
X160922757Y-87754775D01*
X160939690Y-87784105D01*
X160956162Y-87852005D01*
X160933309Y-87918032D01*
X160905188Y-87946422D01*
X160794127Y-88027113D01*
X160667466Y-88167785D01*
X160572821Y-88331715D01*
X160572818Y-88331722D01*
X160520157Y-88493797D01*
X160514326Y-88511744D01*
X160494540Y-88700000D01*
X151815612Y-88700000D01*
X151777179Y-88581716D01*
X151682533Y-88417784D01*
X151555871Y-88277112D01*
X151555870Y-88277111D01*
X151402734Y-88165851D01*
X151402729Y-88165848D01*
X151229807Y-88088857D01*
X151229802Y-88088855D01*
X151115585Y-88064578D01*
X151054103Y-88031386D01*
X151020327Y-87970223D01*
X151018045Y-87930331D01*
X151030328Y-87813466D01*
X151010542Y-87625210D01*
X150952047Y-87445182D01*
X150866783Y-87297500D01*
X152694540Y-87297500D01*
X152714326Y-87485756D01*
X152714327Y-87485759D01*
X152772818Y-87665777D01*
X152772821Y-87665784D01*
X152867467Y-87829716D01*
X152958057Y-87930326D01*
X152994129Y-87970388D01*
X153147265Y-88081648D01*
X153147270Y-88081651D01*
X153320192Y-88158642D01*
X153320197Y-88158644D01*
X153505354Y-88198000D01*
X153505355Y-88198000D01*
X153694644Y-88198000D01*
X153694646Y-88198000D01*
X153879803Y-88158644D01*
X154052730Y-88081651D01*
X154205871Y-87970388D01*
X154332533Y-87829716D01*
X154427179Y-87665784D01*
X154485674Y-87485756D01*
X154505460Y-87297500D01*
X154485674Y-87109244D01*
X154427179Y-86929216D01*
X154332533Y-86765284D01*
X154205871Y-86624612D01*
X154205870Y-86624611D01*
X154052734Y-86513351D01*
X154052729Y-86513348D01*
X153879807Y-86436357D01*
X153879802Y-86436355D01*
X153710524Y-86400375D01*
X153694646Y-86397000D01*
X153505354Y-86397000D01*
X153489476Y-86400375D01*
X153320197Y-86436355D01*
X153320192Y-86436357D01*
X153147270Y-86513348D01*
X153147265Y-86513351D01*
X152994129Y-86624611D01*
X152867466Y-86765285D01*
X152772821Y-86929215D01*
X152772818Y-86929222D01*
X152733821Y-87049244D01*
X152714326Y-87109244D01*
X152694540Y-87297500D01*
X150866783Y-87297500D01*
X150857401Y-87281250D01*
X150730739Y-87140578D01*
X150719227Y-87132214D01*
X150577602Y-87029317D01*
X150577597Y-87029314D01*
X150404675Y-86952323D01*
X150404670Y-86952321D01*
X150258869Y-86921331D01*
X150219514Y-86912966D01*
X150030222Y-86912966D01*
X149997765Y-86919864D01*
X149845065Y-86952321D01*
X149845060Y-86952323D01*
X149672138Y-87029314D01*
X149672133Y-87029317D01*
X149518997Y-87140577D01*
X149392334Y-87281251D01*
X149297690Y-87445180D01*
X149297686Y-87445188D01*
X149245508Y-87605777D01*
X149239194Y-87625210D01*
X149219408Y-87813466D01*
X146968140Y-87813466D01*
X147007533Y-87769716D01*
X147102179Y-87605784D01*
X147160674Y-87425756D01*
X147180460Y-87237500D01*
X147160674Y-87049244D01*
X147102179Y-86869216D01*
X147007533Y-86705284D01*
X146880871Y-86564612D01*
X146826786Y-86525317D01*
X146784121Y-86469989D01*
X146778142Y-86400375D01*
X146810747Y-86338580D01*
X146826787Y-86324682D01*
X146880871Y-86285388D01*
X147007533Y-86144716D01*
X147102179Y-85980784D01*
X147160674Y-85800756D01*
X147180460Y-85612500D01*
X147160674Y-85424244D01*
X147106112Y-85256323D01*
X147102181Y-85244222D01*
X147102180Y-85244221D01*
X147102179Y-85244216D01*
X147007533Y-85080284D01*
X146880871Y-84939612D01*
X146826350Y-84900000D01*
X146727734Y-84828351D01*
X146727729Y-84828348D01*
X146554807Y-84751357D01*
X146554802Y-84751355D01*
X146386145Y-84715507D01*
X146369646Y-84712000D01*
X146343509Y-84712000D01*
X146276470Y-84692315D01*
X146230715Y-84639511D01*
X146220771Y-84570353D01*
X146236122Y-84526000D01*
X146251153Y-84499964D01*
X146327179Y-84368284D01*
X146385674Y-84188256D01*
X146405460Y-84000000D01*
X151594540Y-84000000D01*
X151614326Y-84188256D01*
X151614327Y-84188259D01*
X151672818Y-84368277D01*
X151672821Y-84368284D01*
X151767467Y-84532216D01*
X151801806Y-84570353D01*
X151894129Y-84672888D01*
X152047265Y-84784148D01*
X152047270Y-84784151D01*
X152220192Y-84861142D01*
X152220197Y-84861144D01*
X152405354Y-84900500D01*
X152405355Y-84900500D01*
X152594644Y-84900500D01*
X152594646Y-84900500D01*
X152596998Y-84900000D01*
X158394540Y-84900000D01*
X158414326Y-85088256D01*
X158414327Y-85088259D01*
X158472818Y-85268277D01*
X158472821Y-85268284D01*
X158567467Y-85432216D01*
X158683020Y-85560550D01*
X158694129Y-85572888D01*
X158847265Y-85684148D01*
X158847270Y-85684151D01*
X159020192Y-85761142D01*
X159020197Y-85761144D01*
X159205354Y-85800500D01*
X159205355Y-85800500D01*
X159394644Y-85800500D01*
X159394646Y-85800500D01*
X159579803Y-85761144D01*
X159752730Y-85684151D01*
X159905871Y-85572888D01*
X160032533Y-85432216D01*
X160127179Y-85268284D01*
X160185674Y-85088256D01*
X160205460Y-84900000D01*
X160185674Y-84711744D01*
X160129049Y-84537471D01*
X160127181Y-84531722D01*
X160127180Y-84531721D01*
X160127179Y-84531716D01*
X160032533Y-84367784D01*
X159905871Y-84227112D01*
X159905870Y-84227111D01*
X159752734Y-84115851D01*
X159752729Y-84115848D01*
X159579807Y-84038857D01*
X159579802Y-84038855D01*
X159434001Y-84007865D01*
X159394646Y-83999500D01*
X159205354Y-83999500D01*
X159172897Y-84006398D01*
X159020197Y-84038855D01*
X159020192Y-84038857D01*
X158847270Y-84115848D01*
X158847265Y-84115851D01*
X158694129Y-84227111D01*
X158567466Y-84367785D01*
X158472821Y-84531715D01*
X158472818Y-84531722D01*
X158426951Y-84672888D01*
X158414326Y-84711744D01*
X158394540Y-84900000D01*
X152596998Y-84900000D01*
X152779803Y-84861144D01*
X152952730Y-84784151D01*
X153105871Y-84672888D01*
X153232533Y-84532216D01*
X153327179Y-84368284D01*
X153385674Y-84188256D01*
X153405460Y-84000000D01*
X153385674Y-83811744D01*
X153327179Y-83631716D01*
X153232533Y-83467784D01*
X153105871Y-83327112D01*
X153041272Y-83280178D01*
X152952734Y-83215851D01*
X152952729Y-83215848D01*
X152779807Y-83138857D01*
X152779802Y-83138855D01*
X152634001Y-83107865D01*
X152594646Y-83099500D01*
X152405354Y-83099500D01*
X152372897Y-83106398D01*
X152220197Y-83138855D01*
X152220192Y-83138857D01*
X152047270Y-83215848D01*
X152047265Y-83215851D01*
X151894129Y-83327111D01*
X151767466Y-83467785D01*
X151672821Y-83631715D01*
X151672818Y-83631722D01*
X151632549Y-83755659D01*
X151614326Y-83811744D01*
X151594540Y-84000000D01*
X146405460Y-84000000D01*
X146385674Y-83811744D01*
X146327179Y-83631716D01*
X146232533Y-83467784D01*
X146105871Y-83327112D01*
X146041272Y-83280178D01*
X145952734Y-83215851D01*
X145952729Y-83215848D01*
X145779807Y-83138857D01*
X145779802Y-83138855D01*
X145634001Y-83107865D01*
X145594646Y-83099500D01*
X145405354Y-83099500D01*
X145372897Y-83106398D01*
X145220197Y-83138855D01*
X145220192Y-83138857D01*
X145047270Y-83215848D01*
X145047265Y-83215851D01*
X144894129Y-83327111D01*
X144767466Y-83467785D01*
X144672821Y-83631715D01*
X144672818Y-83631722D01*
X144632549Y-83755659D01*
X144614326Y-83811744D01*
X144594540Y-84000000D01*
X144614326Y-84188256D01*
X144614327Y-84188259D01*
X144672818Y-84368277D01*
X144672821Y-84368284D01*
X144767466Y-84532215D01*
X144771285Y-84537471D01*
X144769481Y-84538781D01*
X144795265Y-84592506D01*
X144786641Y-84661841D01*
X144741900Y-84715507D01*
X144675248Y-84736466D01*
X144647106Y-84733778D01*
X144544646Y-84712000D01*
X144355354Y-84712000D01*
X144338855Y-84715507D01*
X144170197Y-84751355D01*
X144170192Y-84751357D01*
X143997270Y-84828348D01*
X143997265Y-84828351D01*
X143844129Y-84939611D01*
X143717466Y-85080285D01*
X143622821Y-85244215D01*
X143622818Y-85244222D01*
X143597905Y-85320898D01*
X143564326Y-85424244D01*
X143544540Y-85612500D01*
X139955460Y-85612500D01*
X139935674Y-85424244D01*
X139881112Y-85256323D01*
X139877181Y-85244222D01*
X139877180Y-85244221D01*
X139877179Y-85244216D01*
X139782533Y-85080284D01*
X139655871Y-84939612D01*
X139601350Y-84900000D01*
X139502734Y-84828351D01*
X139502729Y-84828348D01*
X139329807Y-84751357D01*
X139329802Y-84751355D01*
X139161145Y-84715507D01*
X139144646Y-84712000D01*
X138955354Y-84712000D01*
X138938855Y-84715507D01*
X138770197Y-84751355D01*
X138770192Y-84751357D01*
X138597270Y-84828348D01*
X138597265Y-84828351D01*
X138444129Y-84939611D01*
X138317466Y-85080285D01*
X138222821Y-85244215D01*
X138222818Y-85244222D01*
X138197905Y-85320898D01*
X138164326Y-85424244D01*
X138144540Y-85612500D01*
X133955460Y-85612500D01*
X133935674Y-85424244D01*
X133881112Y-85256323D01*
X133877181Y-85244222D01*
X133877180Y-85244221D01*
X133877179Y-85244216D01*
X133782533Y-85080284D01*
X133655871Y-84939612D01*
X133601350Y-84900000D01*
X133502734Y-84828351D01*
X133502729Y-84828348D01*
X133329807Y-84751357D01*
X133329802Y-84751355D01*
X133161145Y-84715507D01*
X133144646Y-84712000D01*
X132955354Y-84712000D01*
X132938855Y-84715507D01*
X132770197Y-84751355D01*
X132770192Y-84751357D01*
X132597270Y-84828348D01*
X132597265Y-84828351D01*
X132444129Y-84939611D01*
X132317466Y-85080285D01*
X132222821Y-85244215D01*
X132222818Y-85244222D01*
X132197905Y-85320898D01*
X132164326Y-85424244D01*
X132144540Y-85612500D01*
X127955460Y-85612500D01*
X127935674Y-85424244D01*
X127881112Y-85256323D01*
X127877181Y-85244222D01*
X127877180Y-85244221D01*
X127877179Y-85244216D01*
X127782533Y-85080284D01*
X127655871Y-84939612D01*
X127601350Y-84900000D01*
X127502734Y-84828351D01*
X127502729Y-84828348D01*
X127329807Y-84751357D01*
X127329802Y-84751355D01*
X127161145Y-84715507D01*
X127144646Y-84712000D01*
X126955354Y-84712000D01*
X126938855Y-84715507D01*
X126770197Y-84751355D01*
X126770192Y-84751357D01*
X126597270Y-84828348D01*
X126597265Y-84828351D01*
X126444129Y-84939611D01*
X126317466Y-85080285D01*
X126222821Y-85244215D01*
X126222818Y-85244222D01*
X126197905Y-85320898D01*
X126164326Y-85424244D01*
X126144540Y-85612500D01*
X121955460Y-85612500D01*
X121935674Y-85424244D01*
X121881112Y-85256323D01*
X121877181Y-85244222D01*
X121877180Y-85244221D01*
X121877179Y-85244216D01*
X121782533Y-85080284D01*
X121655871Y-84939612D01*
X121601350Y-84900000D01*
X121502734Y-84828351D01*
X121502729Y-84828348D01*
X121329807Y-84751357D01*
X121329802Y-84751355D01*
X121161145Y-84715507D01*
X121144646Y-84712000D01*
X120955354Y-84712000D01*
X120938855Y-84715507D01*
X120770197Y-84751355D01*
X120770192Y-84751357D01*
X120597270Y-84828348D01*
X120597265Y-84828351D01*
X120444129Y-84939611D01*
X120317466Y-85080285D01*
X120222821Y-85244215D01*
X120222818Y-85244222D01*
X120197905Y-85320898D01*
X120164326Y-85424244D01*
X120144540Y-85612500D01*
X115955460Y-85612500D01*
X115935674Y-85424244D01*
X115881112Y-85256323D01*
X115877181Y-85244222D01*
X115877180Y-85244221D01*
X115877179Y-85244216D01*
X115782533Y-85080284D01*
X115655871Y-84939612D01*
X115601350Y-84900000D01*
X115502734Y-84828351D01*
X115502729Y-84828348D01*
X115329807Y-84751357D01*
X115329802Y-84751355D01*
X115161145Y-84715507D01*
X115144646Y-84712000D01*
X114955354Y-84712000D01*
X114938855Y-84715507D01*
X114770197Y-84751355D01*
X114770192Y-84751357D01*
X114597270Y-84828348D01*
X114597265Y-84828351D01*
X114444129Y-84939611D01*
X114317466Y-85080285D01*
X114222821Y-85244215D01*
X114222818Y-85244222D01*
X114197905Y-85320898D01*
X114164326Y-85424244D01*
X114144540Y-85612500D01*
X110530460Y-85612500D01*
X110510674Y-85424244D01*
X110456112Y-85256323D01*
X110452181Y-85244222D01*
X110452180Y-85244221D01*
X110452179Y-85244216D01*
X110357533Y-85080284D01*
X110230871Y-84939612D01*
X110176350Y-84900000D01*
X110077734Y-84828351D01*
X110077729Y-84828348D01*
X109904807Y-84751357D01*
X109904802Y-84751355D01*
X109736145Y-84715507D01*
X109719646Y-84712000D01*
X109530354Y-84712000D01*
X109513855Y-84715507D01*
X109345197Y-84751355D01*
X109345192Y-84751357D01*
X109172270Y-84828348D01*
X109172265Y-84828351D01*
X109019129Y-84939611D01*
X108892465Y-85080285D01*
X108832387Y-85184345D01*
X108781820Y-85232561D01*
X108713213Y-85245784D01*
X108648348Y-85219816D01*
X108617613Y-85184345D01*
X108557534Y-85080285D01*
X108430870Y-84939611D01*
X108277734Y-84828351D01*
X108277729Y-84828348D01*
X108104807Y-84751357D01*
X108104802Y-84751355D01*
X107936145Y-84715507D01*
X107919646Y-84712000D01*
X107730354Y-84712000D01*
X107713855Y-84715507D01*
X107545197Y-84751355D01*
X107545192Y-84751357D01*
X107372270Y-84828348D01*
X107372265Y-84828351D01*
X107219129Y-84939611D01*
X107092466Y-85080285D01*
X106997821Y-85244215D01*
X106997818Y-85244222D01*
X106972905Y-85320898D01*
X106939326Y-85424244D01*
X106919540Y-85612500D01*
X99733945Y-85612500D01*
X99889571Y-85456874D01*
X99827387Y-85413333D01*
X99629159Y-85320898D01*
X99629150Y-85320894D01*
X99417894Y-85264289D01*
X99417884Y-85264287D01*
X99200001Y-85245225D01*
X99199999Y-85245225D01*
X98982115Y-85264287D01*
X98982105Y-85264289D01*
X98770849Y-85320894D01*
X98770840Y-85320898D01*
X98572613Y-85413333D01*
X98510428Y-85456874D01*
X95000000Y-85456874D01*
X95000000Y-80000710D01*
X95000004Y-79999999D01*
X96294922Y-79999999D01*
X96294922Y-80000000D01*
X96315219Y-80387287D01*
X96375886Y-80770323D01*
X96375887Y-80770330D01*
X96476262Y-81144936D01*
X96615244Y-81506994D01*
X96791310Y-81852543D01*
X97002531Y-82177793D01*
X97211095Y-82435350D01*
X97211096Y-82435350D01*
X98705748Y-80940698D01*
X98779588Y-81042330D01*
X98957670Y-81220412D01*
X99059300Y-81294251D01*
X97564648Y-82788903D01*
X97564649Y-82788904D01*
X97822206Y-82997468D01*
X98147456Y-83208689D01*
X98493005Y-83384755D01*
X98855063Y-83523737D01*
X99229669Y-83624112D01*
X99229676Y-83624113D01*
X99612712Y-83684780D01*
X99999999Y-83705078D01*
X100000001Y-83705078D01*
X100387287Y-83684780D01*
X100770323Y-83624113D01*
X100770330Y-83624112D01*
X101144936Y-83523737D01*
X101506994Y-83384755D01*
X101852543Y-83208689D01*
X102177783Y-82997476D01*
X102177785Y-82997475D01*
X102435349Y-82788902D01*
X100940698Y-81294251D01*
X101042330Y-81220412D01*
X101220412Y-81042330D01*
X101294251Y-80940698D01*
X102788902Y-82435349D01*
X102997475Y-82177785D01*
X102997476Y-82177783D01*
X103208689Y-81852543D01*
X103384755Y-81506994D01*
X103386613Y-81502155D01*
X104070000Y-81502155D01*
X104070000Y-82150000D01*
X104986988Y-82150000D01*
X104954075Y-82207007D01*
X104920000Y-82334174D01*
X104920000Y-82465826D01*
X104954075Y-82592993D01*
X104986988Y-82650000D01*
X104070000Y-82650000D01*
X104070000Y-83297844D01*
X104076401Y-83357372D01*
X104076403Y-83357379D01*
X104126645Y-83492086D01*
X104126649Y-83492093D01*
X104212809Y-83607187D01*
X104212812Y-83607190D01*
X104327906Y-83693350D01*
X104327913Y-83693354D01*
X104462620Y-83743596D01*
X104462627Y-83743598D01*
X104522155Y-83749999D01*
X104522172Y-83750000D01*
X105170000Y-83750000D01*
X105170000Y-82833012D01*
X105227007Y-82865925D01*
X105354174Y-82900000D01*
X105485826Y-82900000D01*
X105612993Y-82865925D01*
X105670000Y-82833012D01*
X105670000Y-83750000D01*
X106317828Y-83750000D01*
X106317844Y-83749999D01*
X106377372Y-83743598D01*
X106377379Y-83743596D01*
X106512086Y-83693354D01*
X106512093Y-83693350D01*
X106627187Y-83607190D01*
X106627190Y-83607187D01*
X106713350Y-83492093D01*
X106713354Y-83492086D01*
X106762422Y-83360529D01*
X106804293Y-83304595D01*
X106869757Y-83280178D01*
X106938030Y-83295030D01*
X106966285Y-83316181D01*
X107088599Y-83438495D01*
X107165135Y-83492086D01*
X107282165Y-83574032D01*
X107282167Y-83574033D01*
X107282170Y-83574035D01*
X107496337Y-83673903D01*
X107724592Y-83735063D01*
X107895319Y-83750000D01*
X107959999Y-83755659D01*
X107960000Y-83755659D01*
X107960001Y-83755659D01*
X108024681Y-83750000D01*
X108195408Y-83735063D01*
X108423663Y-83673903D01*
X108637830Y-83574035D01*
X108831401Y-83438495D01*
X108998495Y-83271401D01*
X109112891Y-83108026D01*
X109128425Y-83085842D01*
X109183002Y-83042217D01*
X109252500Y-83035023D01*
X109314855Y-83066546D01*
X109331575Y-83085842D01*
X109461500Y-83271395D01*
X109461505Y-83271401D01*
X109628599Y-83438495D01*
X109705135Y-83492086D01*
X109822165Y-83574032D01*
X109822167Y-83574033D01*
X109822170Y-83574035D01*
X110036337Y-83673903D01*
X110264592Y-83735063D01*
X110435319Y-83750000D01*
X110499999Y-83755659D01*
X110500000Y-83755659D01*
X110500001Y-83755659D01*
X110564681Y-83750000D01*
X110735408Y-83735063D01*
X110963663Y-83673903D01*
X111177830Y-83574035D01*
X111371401Y-83438495D01*
X111538495Y-83271401D01*
X111674035Y-83077830D01*
X111773903Y-82863663D01*
X111835063Y-82635408D01*
X111855659Y-82400000D01*
X111835063Y-82164592D01*
X111773903Y-81936337D01*
X111674035Y-81722171D01*
X111668425Y-81714158D01*
X111658511Y-81700000D01*
X146194540Y-81700000D01*
X146214326Y-81888256D01*
X146214327Y-81888259D01*
X146272818Y-82068277D01*
X146272821Y-82068284D01*
X146367467Y-82232216D01*
X146459271Y-82334174D01*
X146494129Y-82372888D01*
X146647265Y-82484148D01*
X146647270Y-82484151D01*
X146820192Y-82561142D01*
X146820197Y-82561144D01*
X147005354Y-82600500D01*
X147005355Y-82600500D01*
X147194644Y-82600500D01*
X147194646Y-82600500D01*
X147379803Y-82561144D01*
X147552730Y-82484151D01*
X147705871Y-82372888D01*
X147832533Y-82232216D01*
X147927179Y-82068284D01*
X147985674Y-81888256D01*
X148005460Y-81700000D01*
X147985674Y-81511744D01*
X147927179Y-81331716D01*
X147908868Y-81300000D01*
X151594540Y-81300000D01*
X151614326Y-81488256D01*
X151614327Y-81488259D01*
X151672818Y-81668277D01*
X151672821Y-81668284D01*
X151767467Y-81832216D01*
X151861218Y-81936337D01*
X151894129Y-81972888D01*
X152047265Y-82084148D01*
X152047270Y-82084151D01*
X152220192Y-82161142D01*
X152220197Y-82161144D01*
X152405354Y-82200500D01*
X152405355Y-82200500D01*
X152594644Y-82200500D01*
X152594646Y-82200500D01*
X152779803Y-82161144D01*
X152952730Y-82084151D01*
X153105871Y-81972888D01*
X153232533Y-81832216D01*
X153327179Y-81668284D01*
X153385674Y-81488256D01*
X153405460Y-81300000D01*
X153385674Y-81111744D01*
X153327179Y-80931716D01*
X153232533Y-80767784D01*
X153105871Y-80627112D01*
X153105870Y-80627111D01*
X152952734Y-80515851D01*
X152952729Y-80515848D01*
X152779807Y-80438857D01*
X152779802Y-80438855D01*
X152634001Y-80407865D01*
X152594646Y-80399500D01*
X152405354Y-80399500D01*
X152372897Y-80406398D01*
X152220197Y-80438855D01*
X152220192Y-80438857D01*
X152047270Y-80515848D01*
X152047265Y-80515851D01*
X151894129Y-80627111D01*
X151767466Y-80767785D01*
X151672821Y-80931715D01*
X151672818Y-80931722D01*
X151615981Y-81106649D01*
X151614326Y-81111744D01*
X151594540Y-81300000D01*
X147908868Y-81300000D01*
X147832533Y-81167784D01*
X147705871Y-81027112D01*
X147705870Y-81027111D01*
X147552734Y-80915851D01*
X147552729Y-80915848D01*
X147379807Y-80838857D01*
X147379802Y-80838855D01*
X147234001Y-80807865D01*
X147194646Y-80799500D01*
X147005354Y-80799500D01*
X146972897Y-80806398D01*
X146820197Y-80838855D01*
X146820192Y-80838857D01*
X146647270Y-80915848D01*
X146647265Y-80915851D01*
X146494129Y-81027111D01*
X146367466Y-81167785D01*
X146272821Y-81331715D01*
X146272818Y-81331722D01*
X146215869Y-81506994D01*
X146214326Y-81511744D01*
X146194540Y-81700000D01*
X111658511Y-81700000D01*
X111538494Y-81528597D01*
X111371402Y-81361506D01*
X111371395Y-81361501D01*
X111177834Y-81225967D01*
X111177830Y-81225965D01*
X111106727Y-81192809D01*
X110963663Y-81126097D01*
X110963659Y-81126096D01*
X110963655Y-81126094D01*
X110735413Y-81064938D01*
X110735403Y-81064936D01*
X110500001Y-81044341D01*
X110499999Y-81044341D01*
X110264596Y-81064936D01*
X110264586Y-81064938D01*
X110036344Y-81126094D01*
X110036335Y-81126098D01*
X109822171Y-81225964D01*
X109822169Y-81225965D01*
X109628597Y-81361505D01*
X109461505Y-81528597D01*
X109331575Y-81714158D01*
X109276998Y-81757783D01*
X109207500Y-81764977D01*
X109145145Y-81733454D01*
X109128425Y-81714158D01*
X108998494Y-81528597D01*
X108831402Y-81361506D01*
X108831395Y-81361501D01*
X108637834Y-81225967D01*
X108637830Y-81225965D01*
X108566727Y-81192809D01*
X108423663Y-81126097D01*
X108423659Y-81126096D01*
X108423655Y-81126094D01*
X108195413Y-81064938D01*
X108195403Y-81064936D01*
X107960001Y-81044341D01*
X107959999Y-81044341D01*
X107724596Y-81064936D01*
X107724586Y-81064938D01*
X107496344Y-81126094D01*
X107496335Y-81126098D01*
X107282171Y-81225964D01*
X107282169Y-81225965D01*
X107088600Y-81361503D01*
X106966284Y-81483819D01*
X106904961Y-81517303D01*
X106835269Y-81512319D01*
X106779336Y-81470447D01*
X106762421Y-81439470D01*
X106713354Y-81307913D01*
X106713350Y-81307906D01*
X106627190Y-81192812D01*
X106627187Y-81192809D01*
X106512093Y-81106649D01*
X106512086Y-81106645D01*
X106377379Y-81056403D01*
X106377372Y-81056401D01*
X106317844Y-81050000D01*
X105670000Y-81050000D01*
X105670000Y-81966988D01*
X105612993Y-81934075D01*
X105485826Y-81900000D01*
X105354174Y-81900000D01*
X105227007Y-81934075D01*
X105170000Y-81966988D01*
X105170000Y-81050000D01*
X104522155Y-81050000D01*
X104462627Y-81056401D01*
X104462620Y-81056403D01*
X104327913Y-81106645D01*
X104327906Y-81106649D01*
X104212812Y-81192809D01*
X104212809Y-81192812D01*
X104126649Y-81307906D01*
X104126645Y-81307913D01*
X104076403Y-81442620D01*
X104076401Y-81442627D01*
X104070000Y-81502155D01*
X103386613Y-81502155D01*
X103523737Y-81144936D01*
X103624112Y-80770330D01*
X103624113Y-80770323D01*
X103684780Y-80387287D01*
X103705078Y-80000000D01*
X103705078Y-79999999D01*
X103684780Y-79612712D01*
X103624113Y-79229676D01*
X103624112Y-79229669D01*
X103523737Y-78855063D01*
X103384755Y-78493005D01*
X103208689Y-78147456D01*
X102997468Y-77822206D01*
X102788904Y-77564649D01*
X102788903Y-77564648D01*
X101294251Y-79059300D01*
X101220412Y-78957670D01*
X101042330Y-78779588D01*
X100940698Y-78705748D01*
X102435350Y-77211096D01*
X102435350Y-77211095D01*
X102421643Y-77199995D01*
X104153115Y-77199995D01*
X104153115Y-77200004D01*
X104172624Y-77460350D01*
X104172625Y-77460355D01*
X104230720Y-77714889D01*
X104230726Y-77714908D01*
X104326111Y-77957945D01*
X104326110Y-77957945D01*
X104378389Y-78048493D01*
X104456656Y-78184055D01*
X104558147Y-78311321D01*
X104619446Y-78388188D01*
X104674637Y-78439397D01*
X104810835Y-78565770D01*
X105026558Y-78712847D01*
X105026560Y-78712848D01*
X105026565Y-78712851D01*
X105151496Y-78773014D01*
X105261787Y-78826127D01*
X105261788Y-78826127D01*
X105261791Y-78826129D01*
X105511282Y-78903087D01*
X105511283Y-78903087D01*
X105511286Y-78903088D01*
X105769447Y-78941999D01*
X105769452Y-78941999D01*
X105769455Y-78942000D01*
X105769456Y-78942000D01*
X106030544Y-78942000D01*
X106030545Y-78942000D01*
X106030552Y-78941999D01*
X106288713Y-78903088D01*
X106288714Y-78903087D01*
X106288718Y-78903087D01*
X106538209Y-78826129D01*
X106724085Y-78736616D01*
X106773435Y-78712851D01*
X106773435Y-78712850D01*
X106773443Y-78712847D01*
X106989165Y-78565770D01*
X107180557Y-78388184D01*
X107294706Y-78245044D01*
X107351894Y-78204904D01*
X107421705Y-78202054D01*
X107456931Y-78216931D01*
X107484971Y-78234293D01*
X107484979Y-78234297D01*
X107484981Y-78234298D01*
X107683802Y-78311321D01*
X107893390Y-78350500D01*
X107893392Y-78350500D01*
X108106608Y-78350500D01*
X108106610Y-78350500D01*
X108316198Y-78311321D01*
X108515019Y-78234298D01*
X108696302Y-78122052D01*
X108853872Y-77978407D01*
X108901046Y-77915938D01*
X108957155Y-77874303D01*
X109026867Y-77869612D01*
X109088049Y-77903354D01*
X109098953Y-77915938D01*
X109146128Y-77978407D01*
X109303698Y-78122052D01*
X109484981Y-78234298D01*
X109683802Y-78311321D01*
X109893390Y-78350500D01*
X109893392Y-78350500D01*
X110106608Y-78350500D01*
X110106610Y-78350500D01*
X110316198Y-78311321D01*
X110515019Y-78234298D01*
X110696302Y-78122052D01*
X110853872Y-77978407D01*
X110901046Y-77915938D01*
X110957155Y-77874303D01*
X111026867Y-77869612D01*
X111088049Y-77903354D01*
X111098953Y-77915938D01*
X111146128Y-77978407D01*
X111303698Y-78122052D01*
X111484981Y-78234298D01*
X111683802Y-78311321D01*
X111893390Y-78350500D01*
X111893392Y-78350500D01*
X112106608Y-78350500D01*
X112106610Y-78350500D01*
X112316198Y-78311321D01*
X112515019Y-78234298D01*
X112543068Y-78216930D01*
X112610427Y-78198374D01*
X112677126Y-78219181D01*
X112705293Y-78245044D01*
X112819446Y-78388188D01*
X112874637Y-78439397D01*
X113010835Y-78565770D01*
X113226558Y-78712847D01*
X113226560Y-78712848D01*
X113226565Y-78712851D01*
X113351496Y-78773014D01*
X113461787Y-78826127D01*
X113461788Y-78826127D01*
X113461791Y-78826129D01*
X113711282Y-78903087D01*
X113711283Y-78903087D01*
X113711286Y-78903088D01*
X113969447Y-78941999D01*
X113969452Y-78941999D01*
X113969455Y-78942000D01*
X113969456Y-78942000D01*
X114230544Y-78942000D01*
X114230545Y-78942000D01*
X114230552Y-78941999D01*
X114488713Y-78903088D01*
X114488714Y-78903087D01*
X114488718Y-78903087D01*
X114738209Y-78826129D01*
X114924085Y-78736616D01*
X114973435Y-78712851D01*
X114973435Y-78712850D01*
X114973443Y-78712847D01*
X115189165Y-78565770D01*
X115364810Y-78402795D01*
X115380553Y-78388188D01*
X115380553Y-78388186D01*
X115380557Y-78388184D01*
X115543344Y-78184055D01*
X115673889Y-77957945D01*
X115769276Y-77714903D01*
X115818330Y-77499983D01*
X130724500Y-77499983D01*
X130724500Y-78300001D01*
X130724501Y-78300019D01*
X130735000Y-78402796D01*
X130735001Y-78402799D01*
X130772917Y-78517221D01*
X130790186Y-78569334D01*
X130882288Y-78718656D01*
X131006344Y-78842712D01*
X131070981Y-78882580D01*
X131117705Y-78934526D01*
X131128928Y-79003489D01*
X131101085Y-79067571D01*
X131093566Y-79075799D01*
X130985964Y-79183401D01*
X130884195Y-79323475D01*
X130805591Y-79477744D01*
X130752085Y-79642415D01*
X130750884Y-79649999D01*
X130750885Y-79650000D01*
X131819670Y-79650000D01*
X131799925Y-79669745D01*
X131750556Y-79755255D01*
X131725000Y-79850630D01*
X131725000Y-79949370D01*
X131750556Y-80044745D01*
X131799925Y-80130255D01*
X131819670Y-80150000D01*
X130750885Y-80150000D01*
X130752085Y-80157584D01*
X130805591Y-80322255D01*
X130884195Y-80476524D01*
X130985967Y-80616602D01*
X131108397Y-80739032D01*
X131248475Y-80840804D01*
X131402742Y-80919408D01*
X131567415Y-80972914D01*
X131738429Y-81000000D01*
X131850000Y-81000000D01*
X131850000Y-80180330D01*
X131869745Y-80200075D01*
X131955255Y-80249444D01*
X132050630Y-80275000D01*
X132149370Y-80275000D01*
X132244745Y-80249444D01*
X132330255Y-80200075D01*
X132350000Y-80180330D01*
X132350000Y-81000000D01*
X132461571Y-81000000D01*
X132632584Y-80972914D01*
X132797257Y-80919408D01*
X132951524Y-80840804D01*
X133091602Y-80739032D01*
X133214032Y-80616602D01*
X133315804Y-80476524D01*
X133394408Y-80322255D01*
X133447914Y-80157584D01*
X133449115Y-80150000D01*
X132380330Y-80150000D01*
X132400075Y-80130255D01*
X132449444Y-80044745D01*
X132475000Y-79949370D01*
X132475000Y-79850630D01*
X132449444Y-79755255D01*
X132400075Y-79669745D01*
X132380330Y-79650000D01*
X133449115Y-79650000D01*
X133449115Y-79649999D01*
X133447914Y-79642415D01*
X133394408Y-79477744D01*
X133315804Y-79323475D01*
X133214032Y-79183397D01*
X133106434Y-79075799D01*
X133072949Y-79014476D01*
X133077933Y-78944784D01*
X133119805Y-78888851D01*
X133128995Y-78882594D01*
X133193656Y-78842712D01*
X133317712Y-78718656D01*
X133409814Y-78569334D01*
X133464999Y-78402797D01*
X133475500Y-78300009D01*
X133475499Y-77499992D01*
X133464999Y-77397203D01*
X133409814Y-77230666D01*
X133317712Y-77081344D01*
X133193656Y-76957288D01*
X133044334Y-76865186D01*
X132877797Y-76810001D01*
X132877795Y-76810000D01*
X132775010Y-76799500D01*
X131424998Y-76799500D01*
X131424981Y-76799501D01*
X131322203Y-76810000D01*
X131322200Y-76810001D01*
X131155668Y-76865185D01*
X131155663Y-76865187D01*
X131006342Y-76957289D01*
X130882289Y-77081342D01*
X130790187Y-77230663D01*
X130790186Y-77230666D01*
X130735001Y-77397203D01*
X130735001Y-77397204D01*
X130735000Y-77397204D01*
X130724500Y-77499983D01*
X115818330Y-77499983D01*
X115827374Y-77460360D01*
X115832700Y-77389288D01*
X115846885Y-77200004D01*
X115846885Y-77199995D01*
X115827375Y-76939649D01*
X115827374Y-76939644D01*
X115827374Y-76939640D01*
X115769276Y-76685097D01*
X115673889Y-76442055D01*
X115673888Y-76442054D01*
X115673889Y-76442054D01*
X115600933Y-76315692D01*
X115543344Y-76215945D01*
X115380557Y-76011816D01*
X115380556Y-76011815D01*
X115380553Y-76011811D01*
X115189165Y-75834230D01*
X115189162Y-75834228D01*
X114973443Y-75687153D01*
X114973439Y-75687151D01*
X114973436Y-75687149D01*
X114973435Y-75687148D01*
X114738211Y-75573872D01*
X114738213Y-75573872D01*
X114488719Y-75496913D01*
X114488713Y-75496911D01*
X114230552Y-75458000D01*
X114230545Y-75458000D01*
X113969455Y-75458000D01*
X113969447Y-75458000D01*
X113711286Y-75496911D01*
X113711280Y-75496913D01*
X113461787Y-75573872D01*
X113226565Y-75687148D01*
X113226557Y-75687153D01*
X113010837Y-75834228D01*
X112819446Y-76011811D01*
X112705293Y-76154955D01*
X112648104Y-76195095D01*
X112578293Y-76197945D01*
X112543070Y-76183070D01*
X112515021Y-76165703D01*
X112515017Y-76165701D01*
X112415608Y-76127190D01*
X112316198Y-76088679D01*
X112106610Y-76049500D01*
X111893390Y-76049500D01*
X111683802Y-76088679D01*
X111683799Y-76088679D01*
X111683799Y-76088680D01*
X111484982Y-76165701D01*
X111484980Y-76165702D01*
X111303699Y-76277947D01*
X111146126Y-76421594D01*
X111098953Y-76484061D01*
X111042844Y-76525696D01*
X110973132Y-76530387D01*
X110911950Y-76496644D01*
X110901047Y-76484061D01*
X110853873Y-76421594D01*
X110803734Y-76375886D01*
X110696302Y-76277948D01*
X110515019Y-76165702D01*
X110515017Y-76165701D01*
X110415608Y-76127190D01*
X110316198Y-76088679D01*
X110106610Y-76049500D01*
X109893390Y-76049500D01*
X109683802Y-76088679D01*
X109683799Y-76088679D01*
X109683799Y-76088680D01*
X109484982Y-76165701D01*
X109484980Y-76165702D01*
X109303699Y-76277947D01*
X109146126Y-76421594D01*
X109098953Y-76484061D01*
X109042844Y-76525696D01*
X108973132Y-76530387D01*
X108911950Y-76496644D01*
X108901047Y-76484061D01*
X108853873Y-76421594D01*
X108803734Y-76375886D01*
X108696302Y-76277948D01*
X108515019Y-76165702D01*
X108515017Y-76165701D01*
X108415608Y-76127190D01*
X108316198Y-76088679D01*
X108106610Y-76049500D01*
X107893390Y-76049500D01*
X107683802Y-76088679D01*
X107683799Y-76088679D01*
X107683799Y-76088680D01*
X107484982Y-76165701D01*
X107484980Y-76165702D01*
X107456928Y-76183071D01*
X107389566Y-76201624D01*
X107322868Y-76180815D01*
X107294706Y-76154955D01*
X107180553Y-76011811D01*
X106989165Y-75834230D01*
X106989162Y-75834228D01*
X106773443Y-75687153D01*
X106773439Y-75687151D01*
X106773436Y-75687149D01*
X106773435Y-75687148D01*
X106538211Y-75573872D01*
X106538213Y-75573872D01*
X106288719Y-75496913D01*
X106288713Y-75496911D01*
X106030552Y-75458000D01*
X106030545Y-75458000D01*
X105769455Y-75458000D01*
X105769447Y-75458000D01*
X105511286Y-75496911D01*
X105511280Y-75496913D01*
X105261787Y-75573872D01*
X105026565Y-75687148D01*
X105026557Y-75687153D01*
X104810837Y-75834228D01*
X104619446Y-76011811D01*
X104456656Y-76215945D01*
X104326111Y-76442054D01*
X104230726Y-76685091D01*
X104230720Y-76685110D01*
X104172625Y-76939644D01*
X104172624Y-76939649D01*
X104153115Y-77199995D01*
X102421643Y-77199995D01*
X102177793Y-77002531D01*
X101852543Y-76791310D01*
X101506994Y-76615244D01*
X101144936Y-76476262D01*
X100770330Y-76375887D01*
X100770323Y-76375886D01*
X100387287Y-76315219D01*
X100000001Y-76294922D01*
X99999999Y-76294922D01*
X99612712Y-76315219D01*
X99229676Y-76375886D01*
X99229669Y-76375887D01*
X98855063Y-76476262D01*
X98493005Y-76615244D01*
X98147456Y-76791310D01*
X97822206Y-77002531D01*
X97564648Y-77211095D01*
X97564648Y-77211096D01*
X99059301Y-78705748D01*
X98957670Y-78779588D01*
X98779588Y-78957670D01*
X98705748Y-79059300D01*
X97211096Y-77564648D01*
X97211095Y-77564648D01*
X97002531Y-77822206D01*
X96791310Y-78147456D01*
X96615244Y-78493005D01*
X96476262Y-78855063D01*
X96375887Y-79229669D01*
X96375886Y-79229676D01*
X96315219Y-79612712D01*
X96294922Y-79999999D01*
X95000004Y-79999999D01*
X95000007Y-79999358D01*
X95002328Y-79786528D01*
X95002793Y-79777073D01*
X95005750Y-79743284D01*
X95039943Y-79352444D01*
X95041355Y-79341725D01*
X95044573Y-79323475D01*
X95115257Y-78922602D01*
X95117589Y-78912083D01*
X95227749Y-78500959D01*
X95230989Y-78490683D01*
X95376558Y-78090736D01*
X95380679Y-78080786D01*
X95560552Y-77695047D01*
X95565532Y-77685480D01*
X95778332Y-77316900D01*
X95784125Y-77307806D01*
X96028246Y-76959165D01*
X96034812Y-76950609D01*
X96308394Y-76624566D01*
X96315681Y-76616615D01*
X96616615Y-76315681D01*
X96624566Y-76308394D01*
X96950609Y-76034812D01*
X96959165Y-76028246D01*
X97307806Y-75784125D01*
X97316900Y-75778332D01*
X97685480Y-75565532D01*
X97695047Y-75560552D01*
X98080786Y-75380679D01*
X98090736Y-75376558D01*
X98490683Y-75230989D01*
X98500959Y-75227749D01*
X98912083Y-75117589D01*
X98922602Y-75115257D01*
X99341732Y-75041353D01*
X99352444Y-75039943D01*
X99777085Y-75002792D01*
X99786517Y-75002328D01*
X99999358Y-75000006D01*
X100000710Y-75000000D01*
X138977310Y-75000000D01*
X139044349Y-75019685D01*
G37*
%TD.AperFunction*%
%TD*%
M02*
